<svg version="1.1" id="Layer_1" xmlns="http://www.w3.org/2000/svg" xmlns:xlink="http://www.w3.org/1999/xlink" x="0px" y="0px"
	 width="100%" viewBox="0 0 328 322" enable-background="new 0 0 328 322" xml:space="preserve">
<path fill="#010101" opacity="1.000000" stroke="none" 
	d="
M329.000000,116.000000 
	C329.000000,185.333328 329.000000,254.166672 329.000000,323.000000 
	C219.666672,323.000000 110.333336,323.000000 1.000000,323.000000 
	C1.000000,215.666672 1.000000,108.333336 1.000000,1.000000 
	C110.333336,1.000000 219.666672,1.000000 329.000000,1.000000 
	C329.000000,39.166668 329.000000,77.333336 329.000000,116.000000 
M315.955750,165.459396 
	C315.356079,156.669327 315.421509,147.774292 314.053314,139.105515 
	C301.022552,56.545330 224.955505,1.046078 142.708084,13.858907 
	C59.652248,26.797676 2.951615,106.416672 18.267899,188.597748 
	C33.306751,269.290222 107.963745,322.249146 189.511887,310.071838 
	C259.971802,299.550293 314.324738,237.802643 315.955750,165.459396 
z"/>
<path fill="#E3E3DA" opacity="1.000000" stroke="none" 
	d="
M315.948730,165.950317 
	C314.324738,237.802643 259.971802,299.550293 189.511887,310.071838 
	C107.963745,322.249146 33.306751,269.290222 18.267899,188.597748 
	C2.951615,106.416672 59.652248,26.797676 142.708084,13.858907 
	C224.955505,1.046078 301.022552,56.545330 314.053314,139.105515 
	C315.421509,147.774292 315.356079,156.669327 315.948730,165.950317 
M73.865578,276.849548 
	C75.451111,277.243927 77.016800,277.790741 78.626396,278.000183 
	C81.745285,278.406067 84.888885,278.622162 87.443047,279.473755 
	C84.599510,279.777802 81.755974,280.081848 78.521118,280.427734 
	C130.649185,321.409576 208.068817,317.225891 252.358093,280.941986 
	C250.903488,280.014740 249.448883,279.087494 248.896408,278.054108 
	C252.301041,277.701874 255.705688,277.349640 259.669220,276.658539 
	C268.602081,266.850586 278.587433,257.798706 286.275146,247.096344 
	C311.775940,211.595688 319.248779,172.027267 310.023956,129.358826 
	C303.100189,97.333679 286.331177,71.045021 261.898590,49.667530 
	C254.990753,43.623482 246.684036,39.178238 238.676682,33.404804 
	C222.836090,23.317436 205.070831,18.179661 186.893265,15.296191 
	C163.982056,11.661829 141.145218,14.037572 119.156700,21.544981 
	C95.363014,29.668724 74.838379,42.760117 57.626518,61.560875 
	C33.087132,88.365601 20.449326,119.846069 18.139782,155.623993 
	C16.874317,175.227753 20.477465,194.390778 27.206625,212.824600 
	C29.506384,219.124527 33.033012,224.976608 36.096634,231.738205 
	C44.117283,249.064941 57.237038,262.321991 70.855934,275.163483 
	C71.481400,275.753265 72.684143,275.730835 73.865578,276.849548 
z"/>
<path fill="#FAF8F2" opacity="1.000000" stroke="none" 
	d="
M35.999092,231.033310 
	C33.033012,224.976608 29.506384,219.124527 27.206625,212.824600 
	C20.477465,194.390778 16.874317,175.227753 18.139782,155.623993 
	C20.449326,119.846069 33.087132,88.365601 57.626518,61.560875 
	C74.838379,42.760117 95.363014,29.668724 119.156700,21.544981 
	C141.145218,14.037572 163.982056,11.661829 186.893265,15.296191 
	C205.070831,18.179661 222.836090,23.317436 238.552460,33.858315 
	C229.619339,42.879658 220.810440,51.447487 211.618210,60.001030 
	C210.130997,59.646542 208.984772,59.404911 207.929565,58.951469 
	C190.367859,51.404984 171.849304,49.321423 153.166046,51.374550 
	C131.973465,53.703430 112.824173,61.628452 96.313896,75.712036 
	C80.039864,89.594101 68.501778,106.494591 62.104626,126.786964 
	C57.261185,142.150833 55.238525,158.025513 58.188580,173.964706 
	C59.887501,183.143997 63.340233,191.998672 65.999542,201.246460 
	C65.995552,201.493439 65.984352,201.987335 65.693939,202.148346 
	C55.602055,211.884003 45.800571,221.458649 35.999092,231.033310 
z"/>
<path fill="#EBEBE1" opacity="1.000000" stroke="none" 
	d="
M212.001556,60.015324 
	C220.810440,51.447487 229.619339,42.879658 238.723572,34.155777 
	C246.684036,39.178238 254.990753,43.623482 261.898590,49.667530 
	C286.331177,71.045021 303.100189,97.333679 310.023956,129.358826 
	C319.248779,172.027267 311.775940,211.595688 286.275146,247.096344 
	C278.587433,257.798706 268.602081,266.850586 259.289368,276.409454 
	C257.714203,270.702728 252.595261,275.909027 249.987183,272.283081 
	C249.987183,268.336639 249.987183,263.614014 249.987183,257.686676 
	C247.738373,258.716614 246.317551,259.367340 244.652603,260.328979 
	C244.572983,263.753479 244.737457,266.867065 244.986740,270.355835 
	C245.007782,271.492584 244.944016,272.254181 244.689056,273.138489 
	C244.258560,273.461487 244.091110,273.710144 243.558838,273.933411 
	C241.060776,273.773254 238.999420,273.686829 236.755676,273.455994 
	C236.290207,273.158234 235.988907,273.101471 235.450394,272.782532 
	C235.231384,267.968353 235.231384,263.512939 235.231384,258.808014 
	C233.341568,258.808014 231.966278,258.808014 230.069962,258.808014 
	C230.069962,264.430298 230.069962,269.718292 229.766922,275.009888 
	C229.261841,275.014069 229.059814,275.014618 228.623993,274.731384 
	C227.168076,270.499969 225.861679,266.575745 224.754105,262.596161 
	C224.041321,260.035156 223.294189,258.275665 219.907806,258.304138 
	C216.505920,258.332764 214.876511,259.308868 213.962082,262.644287 
	C212.703415,267.235413 210.850876,271.663727 209.081268,276.041840 
	C208.909790,275.921875 208.568466,275.679565 208.575867,275.273132 
	C208.358124,269.970184 208.133011,265.073669 208.008698,259.821838 
	C213.065689,256.650391 218.021881,253.834244 223.217819,250.814819 
	C223.655914,250.026855 223.854248,249.442169 224.464600,248.908081 
	C226.658005,248.254868 229.040817,248.044373 230.102325,246.750137 
	C232.761871,243.507492 236.458237,243.647491 239.012314,247.190613 
	C240.046127,248.624771 242.141891,249.293381 243.754425,250.310364 
	C244.071930,249.904709 244.389450,249.499069 244.706970,249.093414 
	C243.237183,244.031082 241.767395,238.968750 240.595612,234.019562 
	C242.245224,233.938477 244.210754,234.247971 244.849854,233.469086 
	C249.362076,227.969879 254.065826,222.539841 257.847992,216.544861 
	C274.007690,190.930801 278.131744,163.158798 271.093506,133.865967 
	C263.022736,100.276100 242.666397,76.393021 211.999969,60.753162 
	C212.000534,60.507217 212.001556,60.015327 212.001556,60.015324 
z"/>
<path fill="#EBEBE1" opacity="1.000000" stroke="none" 
	d="
M247.994293,278.160217 
	C249.448883,279.087494 250.903488,280.014740 252.358734,280.941040 
	C208.068817,317.225891 130.649185,321.409576 78.521118,280.427734 
	C81.755974,280.081848 84.599510,279.777802 88.048615,279.229095 
	C89.404778,278.642609 90.155373,278.300751 91.234833,277.956848 
	C91.782440,277.939148 92.001175,277.923553 92.520126,277.935303 
	C93.211037,278.057007 93.601723,278.151459 94.075905,278.549194 
	C95.442780,278.541046 96.726158,278.229614 98.288109,277.664520 
	C100.730415,276.063080 102.894150,274.715271 105.057884,273.367462 
	C104.771324,274.053711 104.484764,274.739990 104.198204,275.426239 
	C105.797867,276.366150 107.397537,277.306091 109.108597,278.577637 
	C111.289711,280.640167 113.005287,280.758179 114.387207,277.903809 
	C115.157303,278.026093 115.596069,278.092102 116.256668,278.472717 
	C122.158859,280.465607 127.796829,281.464874 133.448578,277.832336 
	C134.169220,278.025879 134.581604,278.134277 135.115845,278.580383 
	C137.667679,280.649231 139.370544,280.774200 140.051773,277.189056 
	C140.277588,276.000641 141.461075,274.994141 142.480408,274.088257 
	C144.167221,275.590424 145.580322,276.908813 147.109619,278.557007 
	C150.727890,280.723541 151.888535,280.472931 151.824417,277.687225 
	C151.859482,277.472870 151.871048,277.038574 152.276703,276.986877 
	C152.951721,276.893005 153.221069,276.850830 153.744629,276.943542 
	C154.663773,277.446381 155.328705,277.814301 156.128235,278.547516 
	C161.274307,280.167999 166.311111,281.769043 170.948669,277.434265 
	C169.794022,276.009552 168.763107,274.381378 167.445251,274.100739 
	C165.056274,273.591980 162.496323,273.886047 160.001862,273.497131 
	C159.998230,272.453369 160.000458,271.757507 160.438599,270.995117 
	C163.846817,270.486511 166.819153,270.044373 169.994293,269.781860 
	C172.660767,269.314453 175.124435,268.667419 177.672363,268.465027 
	C178.176727,272.038116 178.596802,275.166595 179.128418,278.614197 
	C182.748596,280.360321 184.872269,279.440277 184.978775,275.413208 
	C185.061676,272.278778 184.996445,269.140442 185.275635,265.955719 
	C185.858856,265.608887 186.163467,265.310150 186.468079,265.011414 
	C186.010574,264.689209 185.553055,264.367004 185.074005,263.813141 
	C185.052490,263.581451 184.997375,263.119324 185.381653,263.039978 
	C186.811523,262.930267 187.857117,262.899933 188.945679,262.977905 
	C188.988647,263.086212 189.130325,263.271240 189.198700,263.410919 
	C189.396561,263.720245 189.562210,263.839874 189.950012,263.955719 
	C190.136032,264.001984 190.518951,264.020905 190.593079,264.478424 
	C191.101639,269.360901 191.536087,273.785858 192.110031,278.572571 
	C196.512268,278.918091 200.775024,278.901825 205.365723,278.919495 
	C206.651932,277.862152 207.610199,276.770874 208.568466,275.679565 
	C208.568466,275.679565 208.909790,275.921875 209.130280,276.359009 
	C209.911636,277.276428 210.472519,277.756683 211.292084,278.434265 
	C212.706833,278.381226 213.862915,278.130859 215.286469,277.603394 
	C216.488419,276.496429 217.291519,275.360291 218.381439,274.892822 
	C221.985229,273.347046 223.359726,277.298401 226.094696,278.542542 
	C228.162247,278.553802 230.130234,278.249329 232.417877,277.961456 
	C233.157120,278.052002 233.576675,278.125916 234.127197,278.557770 
	C237.657837,280.245056 241.068176,281.670959 243.925232,277.901062 
	C243.949829,277.949036 243.855759,277.896332 244.255585,277.927002 
	C245.456818,277.963226 246.258209,277.968750 247.299423,277.989929 
	C247.539230,278.005524 247.994293,278.160217 247.994293,278.160217 
z"/>
<path fill="#EAEBE1" opacity="1.000000" stroke="none" 
	d="
M36.047859,231.385757 
	C45.800571,221.458649 55.602055,211.884003 65.843872,202.474701 
	C71.669930,211.488693 77.055649,220.337296 82.350639,229.634216 
	C82.215240,235.323593 82.061554,240.567825 82.213127,245.803223 
	C82.245438,246.919403 83.387650,248.003433 84.311050,249.335266 
	C86.054001,248.864868 88.776596,248.118607 88.754570,247.464813 
	C88.570732,242.008514 91.573044,242.894150 94.931107,244.411499 
	C94.718452,247.308075 95.130722,249.710876 98.108109,249.597672 
	C98.813354,249.570862 99.863770,246.540558 99.959488,244.846863 
	C100.238274,239.913605 100.113983,234.957596 100.373062,230.131668 
	C101.042213,230.505844 101.486046,230.758835 102.018860,231.471588 
	C102.107849,237.478836 102.107849,243.026321 102.107849,248.992310 
	C104.098618,248.823334 105.450829,248.708572 105.621140,248.694107 
	C108.243561,246.743866 104.450226,241.945877 109.808907,243.516571 
	C108.039520,248.896591 108.713966,252.796829 114.385460,254.840210 
	C115.536903,255.255051 116.127899,257.225464 116.612541,258.599945 
	C111.981766,260.605774 113.300941,264.426178 113.973595,267.321228 
	C114.262337,268.563965 117.389580,269.386749 119.357246,269.923248 
	C120.903801,270.344940 122.664734,269.912323 124.300415,270.108978 
	C124.945412,270.186523 125.871910,270.851349 126.011284,271.412415 
	C126.161797,272.018402 125.445816,273.458801 125.272423,273.432922 
	C122.755623,273.057037 120.266487,272.495880 117.759239,271.777283 
	C117.747742,271.575562 117.444893,271.309387 117.444893,271.309387 
	C117.444893,271.309387 117.073822,271.466980 116.692612,271.351074 
	C115.551628,271.393372 114.791847,271.551605 113.811363,271.710876 
	C113.524460,272.117157 113.458267,272.522308 113.323700,273.336487 
	C113.391518,274.271484 113.527718,274.797455 113.251587,275.218018 
	C111.197388,271.080414 109.385971,267.106445 107.974823,262.995056 
	C107.073647,260.369476 106.597801,258.247742 102.881531,258.283051 
	C99.375046,258.316406 97.875099,259.482239 97.009598,262.751404 
	C95.909454,266.906891 94.270699,270.919739 92.642693,274.994080 
	C92.421211,274.994080 91.978363,275.003601 91.881577,274.610352 
	C91.603455,270.417145 91.763924,266.554260 91.080803,262.846802 
	C90.787376,261.254303 88.871284,258.935272 87.469406,258.763184 
	C83.122932,258.229645 78.669411,258.568054 73.618027,258.568054 
	C73.618027,264.791382 73.618027,270.392456 73.618027,275.993530 
	C72.684143,275.730835 71.481400,275.753265 70.855934,275.163483 
	C57.237038,262.321991 44.117283,249.064941 36.047859,231.385757 
z"/>
<path fill="#224072" opacity="1.000000" stroke="none" 
	d="
M73.741806,276.421539 
	C73.618027,270.392456 73.618027,264.791382 73.618027,258.568054 
	C78.669411,258.568054 83.122932,258.229645 87.469406,258.763184 
	C88.871284,258.935272 90.787376,261.254303 91.080803,262.846802 
	C91.763924,266.554260 91.603455,270.417145 91.786629,274.867798 
	C91.842239,275.693420 91.896011,275.868347 91.987274,276.028625 
	C92.024757,276.014008 92.020096,275.933685 91.700058,276.003540 
	C91.222008,276.701904 91.063988,277.330414 90.905968,277.958893 
	C90.155373,278.300751 89.404778,278.642609 88.338211,278.950684 
	C84.888885,278.622162 81.745285,278.406067 78.626396,278.000183 
	C77.016800,277.790741 75.451111,277.243927 73.741806,276.421539 
M78.752205,272.381561 
	C81.118179,272.811401 83.476868,273.305603 85.860962,273.575439 
	C86.109985,273.603607 86.716339,272.319275 86.766647,271.615997 
	C86.800682,271.140228 86.084770,270.148224 85.816360,270.185883 
	C83.450111,270.517822 81.109009,271.028992 78.752205,272.381561 
z"/>
<path fill="#264374" opacity="1.000000" stroke="none" 
	d="
M248.445343,278.107178 
	C247.994293,278.160217 247.539230,278.005524 247.111237,277.700012 
	C246.082230,275.934906 245.481247,274.475342 244.880249,273.015747 
	C244.944016,272.254181 245.007782,271.492584 245.082855,269.911957 
	C245.028366,266.067963 244.962540,263.042999 244.896713,260.018066 
	C246.317551,259.367340 247.738373,258.716614 249.987183,257.686676 
	C249.987183,263.614014 249.987183,268.336639 249.987183,272.283081 
	C252.595261,275.909027 257.714203,270.702728 259.009918,276.578918 
	C255.705688,277.349640 252.301041,277.701874 248.445343,278.107178 
z"/>
<path fill="#E9EBE8" opacity="1.000000" stroke="none" 
	d="
M211.618225,60.001030 
	C212.001556,60.015327 212.000534,60.507217 211.704742,60.909466 
	C207.944305,64.872459 204.479675,68.433212 200.762299,71.995941 
	C200.341187,71.998619 200.172806,71.999306 199.773743,71.729477 
	C193.738922,69.959564 187.934784,68.460175 181.805237,66.842972 
	C179.272873,65.316948 177.206741,63.583107 174.834473,62.557076 
	C164.700882,58.174145 155.928711,61.103523 147.754105,67.742592 
	C137.381241,68.272842 128.271667,72.164146 119.614426,77.035828 
	C114.391258,79.975052 109.637932,83.749199 104.168671,87.493820 
	C111.495750,94.863312 117.857735,101.378426 124.398705,107.708603 
	C125.320580,108.600761 127.110214,108.912750 128.509323,108.940933 
	C134.822403,109.068146 141.139709,108.964622 147.455032,109.009644 
	C150.773438,109.033302 152.954605,107.885078 153.355865,104.157349 
	C154.485855,104.225372 155.237289,104.329834 156.047745,104.715225 
	C156.744949,105.661850 157.383133,106.327568 158.318893,107.099152 
	C159.406937,107.486031 160.197388,107.767052 160.996368,108.416458 
	C161.004196,109.522545 161.003464,110.260231 160.586029,110.951981 
	C151.730469,110.628807 143.238602,110.844368 134.866898,109.943344 
	C125.461754,108.931084 118.015625,110.686134 114.083633,119.856178 
	C113.967598,118.986732 114.075249,118.320320 113.793900,118.026863 
	C107.941772,111.922813 102.106987,105.798141 96.059143,99.892197 
	C95.479752,99.326393 93.231415,99.775703 92.269341,100.466316 
	C90.983780,101.389114 90.159119,102.981056 89.204445,104.333572 
	C78.941620,118.873283 72.789322,134.866104 71.967270,152.780914 
	C71.816582,156.064819 73.092850,157.645767 76.313675,156.878403 
	C86.112144,154.543976 95.914597,152.203049 105.626831,149.541153 
	C109.567795,148.461014 113.279854,146.545685 117.232910,145.434845 
	C117.314514,148.226852 117.259277,150.594406 116.896416,153.115814 
	C113.404488,156.833633 110.220177,160.397598 107.014305,163.979416 
	C106.992744,163.997253 106.948990,164.032135 106.682693,164.064636 
	C105.969589,164.360809 105.522789,164.624496 104.865013,165.140533 
	C103.442993,165.927490 102.231949,166.462128 100.613022,166.999298 
	C91.907715,168.358322 83.589867,169.609558 75.340202,171.211899 
	C74.369606,171.400406 72.940239,173.684265 73.144943,174.714310 
	C74.169159,179.867905 75.667252,184.927322 76.999252,190.349701 
	C76.999619,191.119370 76.999451,191.559174 76.691925,192.139862 
	C72.924225,195.186996 69.463882,198.093231 66.003532,200.999466 
	C63.340233,191.998672 59.887501,183.143997 58.188580,173.964706 
	C55.238525,158.025513 57.261185,142.150833 62.104626,126.786964 
	C68.501778,106.494591 80.039864,89.594101 96.313896,75.712036 
	C112.824173,61.628452 131.973465,53.703430 153.166046,51.374550 
	C171.849304,49.321423 190.367859,51.404984 207.929565,58.951469 
	C208.984772,59.404911 210.130997,59.646542 211.618225,60.001030 
z"/>
<path fill="#DADFDD" opacity="1.000000" stroke="none" 
	d="
M65.999542,201.246460 
	C69.463882,198.093231 72.924225,195.186996 76.840485,192.460022 
	C81.766907,202.356110 86.157333,212.123062 92.796791,218.796371 
	C102.481346,209.866898 111.867096,201.212936 121.502716,192.805557 
	C124.986664,197.293915 128.220749,201.535675 131.081085,205.862030 
	C126.371696,209.894638 121.931282,213.735031 117.731644,217.822769 
	C113.977676,221.476700 110.489349,225.403580 106.507812,229.202972 
	C104.731163,229.801239 103.330521,230.406540 101.929878,231.011841 
	C101.486046,230.758835 101.042213,230.505844 100.106781,229.836609 
	C98.206909,229.420395 96.798630,229.420395 95.294106,229.420395 
	C95.084564,231.870224 94.906021,233.957779 94.725792,236.064941 
	C92.076591,236.064941 89.719749,236.064941 87.265182,236.064941 
	C87.071648,233.592651 86.908783,231.512146 86.726685,229.185913 
	C85.064819,229.185913 83.753090,229.185913 82.441360,229.185913 
	C77.055649,220.337296 71.669930,211.488693 66.134277,202.313705 
	C65.984352,201.987335 65.995552,201.493439 65.999542,201.246460 
z"/>
<path fill="#DBE0DD" opacity="1.000000" stroke="none" 
	d="
M201.015045,71.993958 
	C204.479675,68.433212 207.944305,64.872459 211.704163,61.155411 
	C242.666397,76.393021 263.022736,100.276100 271.093506,133.865967 
	C278.131744,163.158798 274.007690,190.930801 257.847992,216.544861 
	C254.065826,222.539841 249.362076,227.969879 244.849854,233.469086 
	C244.210754,234.247971 242.245224,233.938477 240.432861,233.723282 
	C239.283707,231.182114 239.090256,228.385559 235.737411,229.184418 
	C233.747345,229.658585 230.790939,230.108826 230.151672,231.460327 
	C228.274765,235.428223 227.339539,239.841522 225.635559,244.199249 
	C224.343430,241.961426 223.451248,239.604752 222.944229,237.139709 
	C226.868286,233.529373 227.106445,230.719940 223.834976,227.376205 
	C217.688080,221.093460 211.379730,214.968491 205.246918,208.672302 
	C203.919037,207.309052 203.048981,205.499863 202.081207,203.583679 
	C204.757599,199.773163 207.320816,196.275009 210.049591,193.083160 
	C219.257294,202.107742 228.299438,210.826050 237.369904,219.571655 
	C237.549332,219.489731 237.929749,219.429398 238.133011,219.207077 
	C251.806976,204.252548 257.769745,186.084229 259.815643,166.385056 
	C259.919220,165.387756 257.543365,163.151062 256.361023,163.178467 
	C252.093674,163.277298 247.616348,163.428802 243.630661,164.778259 
	C233.627411,168.165146 223.849365,172.217194 213.880096,175.544403 
	C213.848557,170.056778 213.917908,165.027237 214.299377,159.831268 
	C216.089371,158.938034 217.569031,158.214798 219.044830,157.483780 
	C230.535797,151.792007 243.040710,149.951462 255.507675,148.116486 
	C258.400940,147.690628 259.429932,146.556290 258.915131,143.983170 
	C255.745621,128.141098 250.212875,113.325867 239.428757,100.960258 
	C238.715485,100.142395 235.902069,99.847466 235.234009,100.501999 
	C228.825989,106.780151 222.669495,113.315048 216.229095,119.498352 
	C212.891144,115.850014 212.383224,109.687035 206.037964,109.482162 
	C207.128601,107.873169 208.065231,106.497581 209.213104,105.329605 
	C213.881149,100.579865 218.550705,95.828079 223.347992,91.210320 
	C225.979675,88.677124 227.159683,86.604843 223.048431,84.361229 
	C215.655869,80.326935 208.354507,76.125542 201.015045,71.993958 
z"/>
<path fill="#D2D8DA" opacity="1.000000" stroke="none" 
	d="
M116.977264,258.478729 
	C116.127899,257.225464 115.536903,255.255051 114.385460,254.840210 
	C108.713966,252.796829 108.039520,248.896591 110.117767,243.642914 
	C113.092354,246.786972 114.879745,251.401749 121.113838,249.247498 
	C118.904228,245.999847 116.893852,243.045013 115.249283,240.072647 
	C117.588554,240.689713 119.562019,241.324341 121.639908,242.352310 
	C122.839584,244.856476 123.934860,246.967285 125.286591,249.345978 
	C129.248947,249.896469 133.007568,250.708221 136.649124,250.345306 
	C143.112244,249.701187 149.300903,253.420746 156.044922,250.441971 
	C161.266724,248.135513 162.967346,244.140594 158.932037,238.692383 
	C154.958008,237.539948 151.194397,236.738632 147.430786,235.937332 
	C147.433899,235.712860 147.437012,235.488403 147.440125,235.263931 
	C151.201492,235.263931 154.962845,235.263931 159.294312,235.263931 
	C158.754410,233.070663 158.374481,231.527328 158.144135,229.649475 
	C158.858688,226.714783 159.423660,224.114609 160.382385,221.428558 
	C161.840363,221.413849 162.904617,221.485046 164.150024,221.865341 
	C167.543747,222.446533 170.756302,222.718628 173.974640,223.375412 
	C173.657257,225.495239 173.334106,227.230377 172.554825,229.054901 
	C170.442169,229.158844 168.712845,228.875977 167.146591,229.259384 
	C164.934921,229.800781 161.194870,227.186630 160.913773,231.483368 
	C160.847794,232.491486 164.290771,233.729187 166.934387,235.365799 
	C166.934387,236.032135 166.809601,237.833923 166.961716,239.612000 
	C167.234039,242.794922 167.673096,245.963593 168.153992,249.374680 
	C168.508255,250.073074 168.750946,250.535019 169.010590,251.389130 
	C170.415192,252.442307 171.760559,253.510056 173.201340,253.659821 
	C174.945099,253.841064 176.840622,253.474533 178.546387,252.945221 
	C184.719131,251.029831 191.945999,252.815857 197.493561,247.864380 
	C199.421158,248.689514 201.019791,249.425858 202.699127,249.790833 
	C202.919693,249.838791 203.553421,247.985748 204.003052,246.758514 
	C204.369217,246.008301 204.728104,245.512726 205.320129,245.309845 
	C206.708740,246.762192 207.864182,247.921844 209.223419,249.413467 
	C213.944168,250.169647 218.461105,250.593872 222.978058,251.018097 
	C218.021881,253.834244 213.065689,256.650391 207.651871,259.586670 
	C201.916306,259.191162 196.638397,258.675507 191.304886,258.154449 
	C190.948746,260.812866 190.733841,262.416870 190.518951,264.020905 
	C190.518951,264.020905 190.136032,264.001984 189.911469,263.793640 
	C189.565948,263.366333 189.380432,263.261658 189.130325,263.271240 
	C189.130325,263.271240 188.988647,263.086212 189.017181,262.535736 
	C188.119766,260.864136 187.233063,258.818024 186.261261,258.776764 
	C181.143494,258.559540 176.004242,258.848328 170.693298,258.971375 
	C170.514160,258.981232 170.155289,258.993011 169.776108,258.824707 
	C163.980972,259.118347 158.565018,259.580292 152.804810,260.026184 
	C151.771729,260.023163 151.082901,260.036194 150.365189,259.677551 
	C144.004303,255.847702 142.602661,263.348938 138.199509,265.039978 
	C138.088943,262.786835 137.995956,260.892212 137.820343,257.313538 
	C135.649933,258.967926 134.313461,259.986633 132.519974,261.052185 
	C131.759720,261.141907 131.456467,261.184845 130.957809,260.920532 
	C129.074295,259.927948 127.433075,258.856659 125.687477,258.644592 
	C122.819695,258.296143 119.884201,258.504913 116.977264,258.478729 
z"/>
<path fill="#224073" opacity="1.000000" stroke="none" 
	d="
M190.593079,264.478424 
	C190.733841,262.416870 190.948746,260.812866 191.304886,258.154449 
	C196.638397,258.675507 201.916306,259.191162 207.551056,259.941956 
	C208.133011,265.073669 208.358124,269.970184 208.575867,275.273132 
	C207.610199,276.770874 206.651932,277.862152 205.123260,278.566132 
	C200.358765,278.189484 196.164642,278.200165 191.970535,278.210815 
	C191.536087,273.785858 191.101639,269.360901 190.593079,264.478424 
M195.564667,272.345276 
	C198.051331,272.744720 200.538010,273.144196 203.024673,273.543640 
	C203.018234,272.431122 203.011795,271.318573 203.005356,270.206055 
	C200.525650,270.648590 198.045929,271.091095 195.564667,272.345276 
z"/>
<path fill="#284576" opacity="1.000000" stroke="none" 
	d="
M226.035522,244.080399 
	C227.339539,239.841522 228.274765,235.428223 230.151672,231.460327 
	C230.790939,230.108826 233.747345,229.658585 235.737411,229.184418 
	C239.090256,228.385559 239.283707,231.182114 240.134872,233.610123 
	C241.767395,238.968750 243.237183,244.031082 244.706970,249.093414 
	C244.389450,249.499069 244.071930,249.904709 243.754425,250.310364 
	C242.141891,249.293381 240.046127,248.624771 239.012314,247.190613 
	C236.458237,243.647491 232.761871,243.507492 230.102325,246.750137 
	C229.040817,248.044373 226.658005,248.254868 224.444977,248.605850 
	C223.971146,247.852066 223.929001,247.451126 224.218018,247.032562 
	C225.044647,246.036743 225.540085,245.058563 226.035522,244.080399 
z"/>
<path fill="#244273" opacity="1.000000" stroke="none" 
	d="
M211.033386,278.236938 
	C210.472519,277.756683 209.911636,277.276428 209.301758,276.479004 
	C210.850876,271.663727 212.703415,267.235413 213.962082,262.644287 
	C214.876511,259.308868 216.505920,258.332764 219.907806,258.304138 
	C223.294189,258.275665 224.041321,260.035156 224.754105,262.596161 
	C225.861679,266.575745 227.168076,270.499969 228.626617,275.131012 
	C227.907089,276.618530 226.951111,277.422668 225.995148,278.226837 
	C223.359726,277.298401 221.985229,273.347046 218.381439,274.892822 
	C217.291519,275.360291 216.488419,276.496429 214.884537,277.583099 
	C213.154556,277.972260 212.093979,278.104614 211.033386,278.236938 
z"/>
<path fill="#274375" opacity="1.000000" stroke="none" 
	d="
M233.996246,278.199829 
	C233.576675,278.125916 233.157120,278.052002 232.269135,277.701538 
	C231.223816,276.618744 230.646896,275.812500 230.069977,275.006256 
	C230.069962,269.718292 230.069962,264.430298 230.069962,258.808014 
	C231.966278,258.808014 233.341568,258.808014 235.231384,258.808014 
	C235.231384,263.512939 235.231384,267.968353 235.582733,273.009155 
	C236.268753,273.596497 236.603394,273.598450 236.938049,273.600403 
	C238.999420,273.686829 241.060776,273.773254 243.547577,274.322662 
	C243.933929,275.822540 243.894852,276.859436 243.855774,277.896332 
	C243.855759,277.896332 243.949829,277.949036 243.480713,277.958679 
	C240.006470,278.045532 237.001358,278.122681 233.996246,278.199829 
z"/>
<path fill="#E9EFF0" opacity="1.000000" stroke="none" 
	d="
M223.886841,247.050201 
	C223.929001,247.451126 223.971146,247.852066 224.032928,248.555237 
	C223.854248,249.442169 223.655914,250.026855 223.217819,250.814819 
	C218.461105,250.593872 213.944168,250.169647 209.679962,249.360413 
	C214.584091,248.333679 219.235458,247.691940 223.886841,247.050201 
z"/>
<path fill="#E3E3DA" opacity="1.000000" stroke="none" 
	d="
M229.766937,275.009888 
	C230.646896,275.812500 231.223816,276.618744 231.949478,277.684937 
	C230.130234,278.249329 228.162247,278.553802 226.094696,278.542542 
	C226.951111,277.422668 227.907089,276.618530 228.860413,275.414734 
	C229.059814,275.014618 229.261841,275.014069 229.766937,275.009888 
z"/>
<path fill="#E3E3DA" opacity="1.000000" stroke="none" 
	d="
M244.652603,260.328979 
	C244.962540,263.042999 245.028366,266.067963 244.998062,269.536774 
	C244.737457,266.867065 244.572983,263.753479 244.652603,260.328979 
z"/>
<path fill="#E3E3DA" opacity="1.000000" stroke="none" 
	d="
M244.255585,277.927002 
	C243.894852,276.859436 243.933929,275.822540 243.984268,274.396423 
	C244.091110,273.710144 244.258560,273.461487 244.689056,273.138489 
	C245.481247,274.475342 246.082230,275.934906 246.871429,277.684387 
	C246.258209,277.968750 245.456818,277.963226 244.255585,277.927002 
z"/>
<path fill="#E3E3DA" opacity="1.000000" stroke="none" 
	d="
M236.755676,273.455994 
	C236.603394,273.598450 236.268753,273.596497 235.801758,273.367920 
	C235.988907,273.101471 236.290207,273.158234 236.755676,273.455994 
z"/>
<path fill="#274474" opacity="1.000000" stroke="none" 
	d="
M153.149048,260.042206 
	C158.565018,259.580292 163.980972,259.118347 169.738510,259.205627 
	C170.134125,260.513245 170.188156,261.271606 170.110397,262.434326 
	C166.327637,263.279205 162.676651,263.719727 158.717377,264.181885 
	C158.618713,264.727600 158.828339,265.251770 159.489136,265.830322 
	C162.083694,265.884003 164.245911,266.062714 166.365921,265.839783 
	C169.401871,265.520569 170.077530,267.050446 169.791473,269.602234 
	C166.819153,270.044373 163.846817,270.486511 160.044067,270.929260 
	C158.777863,271.569519 158.342056,272.209198 157.906250,272.848877 
	C158.606766,273.180908 159.307266,273.512939 160.007751,273.844971 
	C162.496323,273.886047 165.056274,273.591980 167.445251,274.100739 
	C168.763107,274.381378 169.794022,276.009552 170.489288,277.492035 
	C165.347397,278.029968 160.670517,278.106079 155.993637,278.182190 
	C155.328705,277.814301 154.663773,277.446381 153.593506,276.512756 
	C153.007980,271.948517 152.827805,267.949951 152.725220,263.563965 
	C152.918213,262.131714 153.033630,261.086975 153.149048,260.042206 
z"/>
<path fill="#244172" opacity="1.000000" stroke="none" 
	d="
M116.612541,258.599945 
	C119.884201,258.504913 122.819695,258.296143 125.687477,258.644592 
	C127.433075,258.856659 129.074295,259.927948 130.911072,261.226990 
	C130.374680,262.908325 129.689621,263.975952 128.618530,264.951599 
	C125.078026,264.071014 121.923553,263.282410 118.769081,262.493774 
	C118.616585,263.256134 118.464088,264.018494 118.311592,264.780884 
	C121.493225,267.234924 125.467262,265.408478 129.346252,266.123840 
	C133.714569,273.761414 131.428177,278.051056 123.446045,278.066315 
	C120.975594,278.071014 118.505241,278.126068 116.034836,278.158081 
	C115.596069,278.092102 115.157303,278.026093 114.361023,277.676025 
	C114.003510,277.391907 114.010468,276.933258 114.011101,276.722412 
	C113.895790,276.115509 113.779846,275.719452 113.663910,275.323425 
	C113.527718,274.797455 113.391518,274.271484 113.455681,273.217621 
	C113.781380,272.363098 113.906723,272.036469 114.032066,271.709839 
	C114.791847,271.551605 115.551628,271.393372 116.784485,271.466125 
	C117.406197,271.831909 117.577248,271.925873 117.770737,271.979034 
	C120.266487,272.495880 122.755623,273.057037 125.272423,273.432922 
	C125.445816,273.458801 126.161797,272.018402 126.011284,271.412415 
	C125.871910,270.851349 124.945412,270.186523 124.300415,270.108978 
	C122.664734,269.912323 120.903801,270.344940 119.357246,269.923248 
	C117.389580,269.386749 114.262337,268.563965 113.973595,267.321228 
	C113.300941,264.426178 111.981766,260.605774 116.612541,258.599945 
z"/>
<path fill="#284576" opacity="1.000000" stroke="none" 
	d="
M113.251579,275.218018 
	C113.779846,275.719452 113.895790,276.115509 113.628662,276.666351 
	C111.829460,277.296143 110.413330,277.771088 108.997208,278.246033 
	C107.397537,277.306091 105.797867,276.366150 104.198204,275.426239 
	C104.484764,274.739990 104.771324,274.053711 105.057884,273.367462 
	C102.894150,274.715271 100.730415,276.063080 97.883362,277.645111 
	C96.130829,278.001526 95.061615,278.123718 93.992409,278.245911 
	C93.601723,278.151459 93.211037,278.057007 92.545670,277.592896 
	C92.187370,276.793365 92.103729,276.363525 92.020096,275.933685 
	C92.020096,275.933685 92.024757,276.014008 92.285873,276.061707 
	C92.652718,275.737610 92.758438,275.365875 92.864166,274.994110 
	C94.270699,270.919739 95.909454,266.906891 97.009598,262.751404 
	C97.875099,259.482239 99.375046,258.316406 102.881531,258.283051 
	C106.597801,258.247742 107.073647,260.369476 107.974823,262.995056 
	C109.385971,267.106445 111.197388,271.080414 113.251579,275.218018 
z"/>
<path fill="#254274" opacity="1.000000" stroke="none" 
	d="
M132.976990,261.005341 
	C134.313461,259.986633 135.649933,258.967926 137.820343,257.313538 
	C137.995956,260.892212 138.088943,262.786835 138.199509,265.039978 
	C142.602661,263.348938 144.004303,255.847702 150.078156,259.875122 
	C148.379944,261.966583 146.613144,263.307190 145.626434,265.081543 
	C145.064865,266.091339 145.778107,267.810089 146.008026,269.528442 
	C148.022873,272.244415 149.946960,274.641510 151.871048,277.038574 
	C151.871048,277.038574 151.859482,277.472870 151.424255,277.718079 
	C149.657166,278.051270 148.325287,278.139252 146.993423,278.227234 
	C145.580322,276.908813 144.167221,275.590424 142.387054,273.743561 
	C141.197235,272.569214 140.374496,271.923340 139.551758,271.277466 
	C139.062210,272.232239 138.160919,273.188660 138.164642,274.141510 
	C138.173752,276.479736 138.159927,278.484924 134.993988,278.242676 
	C134.581604,278.134277 134.169220,278.025879 133.485809,277.382507 
	C133.135513,271.566833 133.056244,266.286072 132.976990,261.005341 
z"/>
<path fill="#203E72" opacity="1.000000" stroke="none" 
	d="
M170.872437,258.961487 
	C176.004242,258.848328 181.143494,258.559540 186.261261,258.776764 
	C187.233063,258.818024 188.119766,260.864136 188.974213,262.427429 
	C187.857117,262.899933 186.811523,262.930267 184.937775,262.994690 
	C183.656738,264.263672 182.874298,265.482483 182.813263,266.736420 
	C182.636871,270.360321 182.750916,273.998352 182.750916,277.727631 
	C181.275253,277.951904 180.146057,278.123505 179.016876,278.295105 
	C178.596802,275.166595 178.176727,272.038116 177.757324,268.090454 
	C177.709381,266.506470 177.660736,265.741638 177.713760,264.658478 
	C177.212143,263.968384 176.608871,263.596649 175.632812,263.144714 
	C173.825699,262.716156 172.391388,262.367737 170.937622,261.637360 
	C170.902924,260.490753 170.887680,259.726135 170.872437,258.961487 
z"/>
<path fill="#E6ECEF" opacity="1.000000" stroke="none" 
	d="
M132.519974,261.052185 
	C133.056244,266.286072 133.135513,271.566833 133.177551,277.297363 
	C127.796829,281.464874 122.158859,280.465607 116.256676,278.472717 
	C118.505241,278.126068 120.975594,278.071014 123.446045,278.066315 
	C131.428177,278.051056 133.714569,273.761414 129.347748,265.909088 
	C129.014694,265.473022 129.004562,265.043579 129.004562,265.043579 
	C129.689621,263.975952 130.374680,262.908325 131.106476,261.534241 
	C131.456467,261.184845 131.759720,261.141907 132.519974,261.052185 
z"/>
<path fill="#E3E3DA" opacity="1.000000" stroke="none" 
	d="
M177.612091,264.976807 
	C177.660736,265.741638 177.709381,266.506470 177.673065,267.645874 
	C175.124435,268.667419 172.660767,269.314453 169.994293,269.781860 
	C170.077530,267.050446 169.401871,265.520569 166.365921,265.839783 
	C164.245911,266.062714 162.083694,265.884003 159.484985,265.561157 
	C159.028320,264.878510 159.026993,264.519409 159.025665,264.160278 
	C162.676651,263.719727 166.327637,263.279205 170.289139,262.438934 
	C170.599655,262.039185 170.957077,262.019318 170.957077,262.019318 
	C172.391388,262.367737 173.825699,262.716156 175.742554,263.359833 
	C176.687439,264.095673 177.149765,264.536255 177.612091,264.976807 
z"/>
<path fill="#E3E3DA" opacity="1.000000" stroke="none" 
	d="
M152.276703,276.986877 
	C149.946960,274.641510 148.022873,272.244415 146.156845,269.218506 
	C148.565445,267.329712 148.480286,262.691681 152.647629,263.951416 
	C152.827805,267.949951 153.007980,271.948517 153.339294,276.377869 
	C153.221069,276.850830 152.951721,276.893005 152.276703,276.986877 
z"/>
<path fill="#F3F9F5" opacity="1.000000" stroke="none" 
	d="
M179.128418,278.614197 
	C180.146057,278.123505 181.275253,277.951904 182.750916,277.727631 
	C182.750916,273.998352 182.636871,270.360321 182.813263,266.736420 
	C182.874298,265.482483 183.656738,264.263672 184.553497,263.074066 
	C184.997375,263.119324 185.052490,263.581451 185.040924,264.138031 
	C185.018585,265.131012 185.007812,265.567444 184.997040,266.003845 
	C184.996445,269.140442 185.061676,272.278778 184.978775,275.413208 
	C184.872269,279.440277 182.748596,280.360321 179.128418,278.614197 
z"/>
<path fill="#E3E3DA" opacity="1.000000" stroke="none" 
	d="
M156.128235,278.547485 
	C160.670517,278.106079 165.347397,278.029968 170.483658,277.896088 
	C166.311111,281.769043 161.274307,280.167999 156.128235,278.547485 
z"/>
<path fill="#E3E3DA" opacity="1.000000" stroke="none" 
	d="
M135.115845,278.580383 
	C138.159927,278.484924 138.173752,276.479736 138.164642,274.141510 
	C138.160919,273.188660 139.062210,272.232239 139.551758,271.277466 
	C140.374496,271.923340 141.197235,272.569214 142.113358,273.559753 
	C141.461075,274.994141 140.277588,276.000641 140.051773,277.189056 
	C139.370544,280.774200 137.667679,280.649231 135.115845,278.580383 
z"/>
<path fill="#D2D8DA" opacity="1.000000" stroke="none" 
	d="
M192.110031,278.572571 
	C196.164642,278.200165 200.358765,278.189484 204.795319,278.532166 
	C200.775024,278.901825 196.512268,278.918091 192.110031,278.572571 
z"/>
<path fill="#E3E3DA" opacity="1.000000" stroke="none" 
	d="
M234.127197,278.557770 
	C237.001358,278.122681 240.006470,278.045532 243.456116,277.910706 
	C241.068176,281.670959 237.657837,280.245056 234.127197,278.557770 
z"/>
<path fill="#E6ECEF" opacity="1.000000" stroke="none" 
	d="
M109.108604,278.577637 
	C110.413330,277.771088 111.829460,277.296143 113.628029,276.877197 
	C114.010468,276.933258 114.003510,277.391907 114.029694,277.619690 
	C113.005287,280.758179 111.289711,280.640167 109.108604,278.577637 
z"/>
<path fill="#E3E3DA" opacity="1.000000" stroke="none" 
	d="
M147.109619,278.557037 
	C148.325287,278.139252 149.657166,278.051270 151.389191,277.932434 
	C151.888535,280.472931 150.727890,280.723541 147.109619,278.557037 
z"/>
<path fill="#E3E3DA" opacity="1.000000" stroke="none" 
	d="
M94.075905,278.549194 
	C95.061615,278.123718 96.130829,278.001526 97.604782,277.898743 
	C96.726158,278.229614 95.442780,278.541046 94.075905,278.549194 
z"/>
<path fill="#E3E3DA" opacity="1.000000" stroke="none" 
	d="
M160.001862,273.497131 
	C159.307266,273.512939 158.606766,273.180908 157.906250,272.848877 
	C158.342056,272.209198 158.777863,271.569519 159.608185,270.995728 
	C160.000458,271.757507 159.998230,272.453369 160.001862,273.497131 
z"/>
<path fill="#E3E3DA" opacity="1.000000" stroke="none" 
	d="
M185.275635,265.955719 
	C185.007812,265.567444 185.018585,265.131012 185.062439,264.369720 
	C185.553055,264.367004 186.010574,264.689209 186.468079,265.011414 
	C186.163467,265.310150 185.858856,265.608887 185.275635,265.955719 
z"/>
<path fill="#E3E3DA" opacity="1.000000" stroke="none" 
	d="
M211.292084,278.434265 
	C212.093979,278.104614 213.154556,277.972260 214.617065,277.860199 
	C213.862915,278.130859 212.706833,278.381226 211.292084,278.434265 
z"/>
<path fill="#E3E3DA" opacity="1.000000" stroke="none" 
	d="
M91.700058,276.003540 
	C92.103729,276.363525 92.187370,276.793365 92.245453,277.565613 
	C92.001175,277.923553 91.782440,277.939148 91.234833,277.956848 
	C91.063988,277.330414 91.222008,276.701904 91.700058,276.003540 
z"/>
<path fill="#F3F9F5" opacity="1.000000" stroke="none" 
	d="
M189.198700,263.410919 
	C189.380432,263.261658 189.565948,263.366333 189.725433,263.747375 
	C189.562210,263.839874 189.396561,263.720245 189.198700,263.410919 
z"/>
<path fill="#254274" opacity="1.000000" stroke="none" 
	d="
M82.350639,229.634216 
	C83.753090,229.185913 85.064819,229.185913 86.726685,229.185913 
	C86.908783,231.512146 87.071648,233.592651 87.265182,236.064941 
	C89.719749,236.064941 92.076591,236.064941 94.725792,236.064941 
	C94.906021,233.957779 95.084564,231.870224 95.294106,229.420395 
	C96.798630,229.420395 98.206909,229.420395 99.881470,229.715454 
	C100.113983,234.957596 100.238274,239.913605 99.959488,244.846863 
	C99.863770,246.540558 98.813354,249.570862 98.108109,249.597672 
	C95.130722,249.710876 94.718452,247.308075 95.005440,243.985840 
	C93.384529,238.390350 90.054787,242.011642 88.003212,241.330307 
	C85.460907,243.703369 89.769272,248.772934 84.018532,249.102280 
	C83.387650,248.003433 82.245438,246.919403 82.213127,245.803223 
	C82.061554,240.567825 82.215240,235.323593 82.350639,229.634216 
z"/>
<path fill="#2A4778" opacity="1.000000" stroke="none" 
	d="
M114.883484,240.090195 
	C116.893852,243.045013 118.904228,245.999847 121.113838,249.247498 
	C114.879745,251.401749 113.092354,246.786972 110.282654,243.290649 
	C104.450226,241.945877 108.243561,246.743866 105.621140,248.694107 
	C105.450829,248.708572 104.098618,248.823334 102.107849,248.992310 
	C102.107849,243.026321 102.107849,237.478836 102.018860,231.471588 
	C103.330521,230.406540 104.731163,229.801239 106.568665,229.587677 
	C107.107811,231.725800 107.210121,233.472214 107.340279,235.694092 
	C111.667381,233.272339 113.570183,226.413879 119.644485,230.174179 
	C117.694031,232.190308 115.714714,233.833038 114.454132,235.911652 
	C113.884201,236.851395 114.743553,238.657944 114.930588,240.052917 
	C114.906715,240.034592 114.883476,240.090195 114.883484,240.090195 
z"/>
<path fill="#DEE5E6" opacity="1.000000" stroke="none" 
	d="
M84.311050,249.335266 
	C89.769272,248.772934 85.460907,243.703369 88.003212,241.330307 
	C90.054787,242.011642 93.384529,238.390350 94.938927,243.583374 
	C91.573044,242.894150 88.570732,242.008514 88.754570,247.464813 
	C88.776596,248.118607 86.054001,248.864868 84.311050,249.335266 
z"/>
<path fill="#284576" opacity="1.000000" stroke="none" 
	d="
M113.811363,271.710907 
	C113.906723,272.036469 113.781380,272.363098 113.524048,272.808594 
	C113.458267,272.522308 113.524460,272.117157 113.811363,271.710907 
z"/>
<path fill="#284576" opacity="1.000000" stroke="none" 
	d="
M117.759239,271.777283 
	C117.577248,271.925873 117.406197,271.831909 117.165695,271.582031 
	C117.073822,271.466980 117.444893,271.309387 117.444893,271.309387 
	C117.444893,271.309387 117.747742,271.575562 117.759239,271.777283 
z"/>
<path fill="#E3E3DA" opacity="1.000000" stroke="none" 
	d="
M92.642685,274.994080 
	C92.758438,275.365875 92.652718,275.737610 92.248390,276.076294 
	C91.896011,275.868347 91.842239,275.693420 91.883408,275.261047 
	C91.978363,275.003601 92.421211,274.994080 92.642685,274.994080 
z"/>
<path fill="#CDD6D9" opacity="1.000000" stroke="none" 
	d="
M78.756332,271.934387 
	C81.109009,271.028992 83.450111,270.517822 85.816360,270.185883 
	C86.084770,270.148224 86.800682,271.140228 86.766647,271.615997 
	C86.716339,272.319275 86.109985,273.603607 85.860962,273.575439 
	C83.476868,273.305603 81.118179,272.811401 78.756332,271.934387 
z"/>
<path fill="#FAF8F2" opacity="1.000000" stroke="none" 
	d="
M117.096069,145.010391 
	C113.279854,146.545685 109.567795,148.461014 105.626831,149.541153 
	C95.914597,152.203049 86.112144,154.543976 76.313675,156.878403 
	C73.092850,157.645767 71.816582,156.064819 71.967270,152.780914 
	C72.789322,134.866104 78.941620,118.873283 89.204445,104.333572 
	C90.159119,102.981056 90.983780,101.389114 92.269341,100.466316 
	C93.231415,99.775703 95.479752,99.326393 96.059143,99.892197 
	C102.106987,105.798141 107.941772,111.922813 113.793900,118.026863 
	C114.075249,118.320320 113.967598,118.986732 114.113640,119.974823 
	C114.186188,120.470169 114.133934,120.709236 114.191086,120.967491 
	C114.833290,121.228767 115.418335,121.231789 116.397820,121.171234 
	C117.851509,121.174744 118.910751,121.241844 119.964310,121.653137 
	C119.964119,122.915199 119.969620,123.833069 119.541290,124.832535 
	C118.404755,126.044357 117.133583,127.155983 117.095871,128.307968 
	C116.913857,133.869476 117.063835,139.441864 117.096069,145.010391 
z"/>
<path fill="#ECECE1" opacity="1.000000" stroke="none" 
	d="
M121.252853,192.558975 
	C111.867096,201.212936 102.481346,209.866898 92.796791,218.796371 
	C86.157333,212.123062 81.766907,202.356110 77.147842,192.319138 
	C76.999451,191.559174 76.999619,191.119370 77.340866,190.298187 
	C85.461594,182.276779 93.241249,174.636765 101.020905,166.996765 
	C102.231949,166.462128 103.442993,165.927490 105.133392,165.123825 
	C106.058167,164.580566 106.503578,164.306351 106.948990,164.032135 
	C106.948990,164.032135 106.992744,163.997253 107.373825,163.918274 
	C110.915787,162.900909 114.076653,161.962540 117.314896,161.482468 
	C117.572212,172.286407 116.407600,182.801575 121.252853,192.558975 
z"/>
<path fill="#1D3E73" opacity="1.000000" stroke="none" 
	d="
M119.970001,121.308937 
	C118.910751,121.241844 117.851509,121.174744 116.096451,121.050735 
	C114.978401,120.898956 114.556168,120.804100 114.133934,120.709244 
	C114.133934,120.709236 114.186188,120.470169 114.156174,120.351532 
	C118.015625,110.686134 125.461754,108.931084 134.866898,109.943344 
	C143.238602,110.844368 151.730469,110.628807 160.731262,111.182541 
	C162.140045,112.093224 162.986877,112.727409 163.953339,113.667648 
	C164.899963,114.155128 165.949188,114.750854 166.515884,114.446907 
	C169.088760,113.066933 171.525635,111.433388 174.454987,109.967506 
	C177.592651,109.980873 180.286819,109.917824 183.445282,109.931229 
	C191.266754,109.942123 198.623917,109.876556 205.981064,109.811005 
	C212.383224,109.687035 212.891144,115.850014 216.117615,119.742294 
	C215.145477,120.534897 214.073013,120.805542 212.540939,120.976883 
	C203.478622,120.842361 194.839783,120.338135 186.290482,120.996643 
	C182.739227,121.270172 179.370163,124.007851 175.936386,125.662590 
	C174.426041,126.390427 172.985153,127.820244 171.470917,127.880531 
	C166.358490,128.084030 161.227310,127.816528 156.000885,127.413048 
	C152.922729,125.163231 149.946976,123.229485 146.512589,121.204010 
	C137.359299,121.177834 128.664642,121.243385 119.970001,121.308937 
z"/>
<path fill="#EBEBE0" opacity="1.000000" stroke="none" 
	d="
M206.037964,109.482155 
	C198.623917,109.876556 191.266754,109.942123 183.136169,109.697105 
	C179.578979,109.554710 176.795212,109.722900 174.011459,109.891090 
	C171.525635,111.433388 169.088760,113.066933 166.515884,114.446907 
	C165.949188,114.750854 164.899963,114.155128 164.338409,113.521675 
	C165.434204,111.511932 166.264511,109.954216 167.475006,108.316910 
	C169.538681,107.816719 171.222183,107.396111 172.905685,106.975494 
	C172.801956,106.489723 172.698212,106.003952 172.594467,105.518181 
	C167.736740,106.009880 162.879028,106.501579 158.021301,106.993286 
	C157.383133,106.327568 156.744949,105.661850 156.508575,104.616547 
	C163.935562,104.155365 170.960739,104.073769 178.227692,103.883362 
	C178.660355,103.481850 178.851242,103.189140 179.040863,102.615807 
	C179.038040,101.961349 179.036499,101.587524 179.376984,101.160583 
	C180.758041,100.420120 181.797073,99.732765 183.063080,98.930595 
	C183.532639,98.385216 183.775223,97.954651 184.270203,97.373825 
	C184.670486,97.095177 184.818344,96.966774 185.231735,96.723511 
	C185.661026,96.075317 185.824799,95.541985 186.212189,94.871918 
	C186.618103,94.440575 186.800430,94.145973 187.221313,93.625504 
	C187.648621,92.582642 187.837341,91.765633 188.036896,90.677910 
	C188.063171,90.046761 188.078613,89.686325 188.378555,89.004471 
	C188.813980,85.784386 188.964920,82.885704 189.472260,79.983795 
	C193.220581,77.320381 196.612488,74.660187 200.004410,72.000000 
	C200.172806,71.999306 200.341187,71.998619 200.762299,71.995941 
	C208.354507,76.125542 215.655869,80.326935 223.048431,84.361229 
	C227.159683,86.604843 225.979675,88.677124 223.347992,91.210320 
	C218.550705,95.828079 213.881149,100.579865 209.213104,105.329605 
	C208.065231,106.497581 207.128601,107.873169 206.037964,109.482155 
z"/>
<path fill="#FAF7F1" opacity="1.000000" stroke="none" 
	d="
M152.977295,104.193802 
	C152.954605,107.885078 150.773438,109.033302 147.455032,109.009644 
	C141.139709,108.964622 134.822403,109.068146 128.509323,108.940933 
	C127.110214,108.912750 125.320580,108.600761 124.398705,107.708603 
	C117.857735,101.378426 111.495750,94.863312 104.168671,87.493820 
	C109.637932,83.749199 114.391258,79.975052 119.614426,77.035828 
	C128.271667,72.164146 137.381241,68.272842 147.606750,68.056084 
	C143.249771,74.767677 140.961914,81.428352 142.971741,89.430168 
	C143.036575,90.233070 143.086212,90.691040 143.130890,91.450394 
	C143.767181,92.471390 144.408417,93.191010 145.026489,94.171440 
	C144.995392,94.606392 144.987488,94.780525 144.798645,95.128845 
	C145.402710,95.902138 146.187714,96.501236 147.211029,97.231064 
	C147.622665,97.414742 147.795975,97.467690 147.975220,97.814018 
	C148.058136,98.490814 148.135132,98.874229 148.301727,99.463959 
	C148.615707,100.060783 148.840057,100.451286 149.240189,101.113358 
	C150.310211,101.959732 151.204437,102.534546 152.165085,103.343124 
	C152.438217,103.833145 152.686813,104.038788 152.977295,104.193802 
z"/>
<path fill="#A28448" opacity="1.000000" stroke="none" 
	d="
M142.956543,89.085243 
	C140.961914,81.428352 143.249771,74.767677 147.865967,68.300873 
	C155.928711,61.103523 164.700882,58.174145 174.834473,62.557076 
	C177.206741,63.583107 179.272873,65.316948 181.945068,67.144455 
	C184.645477,71.704857 186.880661,75.845947 189.115845,79.987030 
	C188.964920,82.885704 188.813980,85.784386 187.910889,88.907806 
	C172.424667,89.116791 157.690598,89.101013 142.956543,89.085243 
z"/>
<path fill="#1D3E72" opacity="1.000000" stroke="none" 
	d="
M121.502716,192.805557 
	C116.407600,182.801575 117.572212,172.286407 117.468719,161.145081 
	C117.431450,157.886917 117.317741,155.424438 117.204033,152.961975 
	C117.259277,150.594406 117.314514,148.226852 117.232910,145.434845 
	C117.063835,139.441864 116.913857,133.869476 117.095871,128.307968 
	C117.133583,127.155983 118.404755,126.044357 119.990845,124.918289 
	C122.611549,124.922440 124.348854,124.922440 126.748512,124.922440 
	C126.748512,130.786133 126.748512,135.881104 126.607742,141.426300 
	C126.432037,153.180786 126.284073,164.486603 126.436409,175.788345 
	C126.477943,178.868835 127.423141,181.937149 127.948868,185.376099 
	C130.960114,190.167709 133.976120,194.594299 137.149124,199.319778 
	C138.890808,200.953857 140.475510,202.289062 142.253876,203.787430 
	C140.697113,206.134430 139.303772,208.235031 137.829529,210.457626 
	C135.383713,208.661942 133.419281,207.219696 131.454849,205.777451 
	C128.220749,201.535675 124.986664,197.293915 121.502716,192.805557 
z"/>
<path fill="#FAF7F1" opacity="1.000000" stroke="none" 
	d="
M100.613022,166.999298 
	C93.241249,174.636765 85.461594,182.276779 77.340332,189.968323 
	C75.667252,184.927322 74.169159,179.867905 73.144943,174.714310 
	C72.940239,173.684265 74.369606,171.400406 75.340202,171.211899 
	C83.589867,169.609558 91.907715,168.358322 100.613022,166.999298 
z"/>
<path fill="#F8F5ED" opacity="1.000000" stroke="none" 
	d="
M189.472260,79.983795 
	C186.880661,75.845947 184.645477,71.704857 182.270477,67.262283 
	C187.934784,68.460175 193.738922,69.959564 199.773743,71.729477 
	C196.612488,74.660187 193.220581,77.320381 189.472260,79.983795 
z"/>
<path fill="#C2CBCF" opacity="1.000000" stroke="none" 
	d="
M116.896416,153.115814 
	C117.317741,155.424438 117.431450,157.886917 117.391342,160.686768 
	C114.076653,161.962540 110.915787,162.900909 107.395386,163.900436 
	C110.220177,160.397598 113.404488,156.833633 116.896416,153.115814 
z"/>
<path fill="#B9A883" opacity="1.000000" stroke="none" 
	d="
M158.318893,107.099152 
	C162.879028,106.501579 167.736740,106.009880 172.594467,105.518181 
	C172.698212,106.003952 172.801956,106.489723 172.905685,106.975494 
	C171.222183,107.396111 169.538681,107.816719 167.044189,108.227158 
	C164.484741,108.160675 162.736298,108.104370 160.987839,108.048065 
	C160.197388,107.767052 159.406937,107.486031 158.318893,107.099152 
z"/>
<path fill="#D3D7D4" opacity="1.000000" stroke="none" 
	d="
M160.996368,108.416458 
	C162.736298,108.104370 164.484741,108.160675 166.664017,108.306747 
	C166.264511,109.954216 165.434204,111.511932 164.218811,113.215622 
	C162.986877,112.727409 162.140045,112.093224 161.147964,111.228477 
	C161.003464,110.260231 161.004196,109.522545 160.996368,108.416458 
z"/>
<path fill="#AA9B76" opacity="1.000000" stroke="none" 
	d="
M153.355865,104.157349 
	C152.686813,104.038788 152.438217,103.833145 152.624832,103.304893 
	C161.379349,103.002670 169.740524,102.972435 178.071686,103.204575 
	C178.023071,103.642021 178.004486,103.817101 177.985916,103.992172 
	C170.960739,104.073769 163.935562,104.155365 156.449554,104.335632 
	C155.237289,104.329834 154.485855,104.225372 153.355865,104.157349 
z"/>
<path fill="#C2CBCF" opacity="1.000000" stroke="none" 
	d="
M106.682693,164.064636 
	C106.503578,164.306351 106.058167,164.580566 105.344376,164.871490 
	C105.522789,164.624496 105.969589,164.360809 106.682693,164.064636 
z"/>
<path fill="#E9E9E1" opacity="1.000000" stroke="none" 
	d="
M131.081085,205.862030 
	C133.419281,207.219696 135.383713,208.661942 137.829529,210.457626 
	C139.303772,208.235031 140.697113,206.134430 142.253876,203.787430 
	C140.475510,202.289062 138.890808,200.953857 137.204803,198.978531 
	C138.094223,197.547272 139.084961,196.756149 140.380814,196.095337 
	C142.002487,197.118713 143.319046,198.011780 144.961929,199.126205 
	C146.493561,196.678925 147.844482,194.520432 149.187698,192.374222 
	C147.755066,190.785233 146.569809,189.470612 145.770172,188.103119 
	C149.461365,185.354950 152.766922,182.659622 156.145645,180.413513 
	C155.501938,184.683075 155.267593,188.683640 153.927841,192.271408 
	C152.673233,195.631165 150.221008,198.537659 148.343292,201.672043 
	C144.623871,207.880676 140.937180,214.108902 136.531799,221.514450 
	C145.178894,221.514450 152.583771,221.514450 159.988632,221.514450 
	C159.423660,224.114609 158.858688,226.714783 157.727478,229.613983 
	C151.958725,229.208557 146.698257,227.647308 141.448547,230.955688 
	C140.494095,230.957947 139.857986,230.958298 139.133423,230.602493 
	C137.360016,230.168488 135.675018,230.090607 133.721039,230.323761 
	C133.300430,233.238617 133.343002,235.874283 132.923630,238.434250 
	C132.676041,239.945633 131.697021,241.337189 131.046936,242.782639 
	C130.365738,241.368744 129.485779,240.013702 129.046097,238.528320 
	C128.214981,235.720612 127.636917,232.837997 126.668022,229.774628 
	C124.800209,229.705124 123.218079,229.847504 121.348068,229.993347 
	C120.676384,229.990738 120.292587,229.984650 119.908783,229.978561 
	C113.570183,226.413879 111.667381,233.272339 107.340279,235.694092 
	C107.210121,233.472214 107.107811,231.725800 106.944656,229.594696 
	C110.489349,225.403580 113.977676,221.476700 117.731644,217.822769 
	C121.931282,213.735031 126.371696,209.894638 131.081085,205.862030 
z"/>
<path fill="#ECECE1" opacity="1.000000" stroke="none" 
	d="
M213.981003,176.002502 
	C223.849365,172.217194 233.627411,168.165146 243.630661,164.778259 
	C247.616348,163.428802 252.093674,163.277298 256.361023,163.178467 
	C257.543365,163.151062 259.919220,165.387756 259.815643,166.385056 
	C257.769745,186.084229 251.806976,204.252548 238.133011,219.207077 
	C237.929749,219.429398 237.549332,219.489731 237.369904,219.571655 
	C228.299438,210.826050 219.257294,202.107742 210.046478,192.707672 
	C211.245544,186.684753 212.613281,181.343628 213.981003,176.002502 
z"/>
<path fill="#ECECE2" opacity="1.000000" stroke="none" 
	d="
M213.000549,121.076187 
	C214.073013,120.805542 215.145477,120.534897 216.329437,120.020309 
	C222.669495,113.315048 228.825989,106.780151 235.234009,100.501999 
	C235.902069,99.847466 238.715485,100.142395 239.428757,100.960258 
	C250.212875,113.325867 255.745621,128.141098 258.915131,143.983170 
	C259.429932,146.556290 258.400940,147.690628 255.507675,148.116486 
	C243.040710,149.951462 230.535797,151.792007 219.044830,157.483780 
	C217.569031,158.214798 216.089371,158.938034 214.198227,159.372192 
	C213.768066,153.316147 213.838974,147.550766 213.709473,141.789902 
	C213.581238,136.085495 213.250900,130.385666 213.008881,124.323135 
	C213.005875,123.000359 213.003204,122.038277 213.000549,121.076187 
z"/>
<path fill="#E7E8E0" opacity="1.000000" stroke="none" 
	d="
M197.189743,247.659927 
	C191.945999,252.815857 184.719131,251.029831 178.546387,252.945221 
	C176.840622,253.474533 174.945099,253.841064 173.201340,253.659821 
	C171.760559,253.510056 170.415192,252.442307 169.421875,251.387421 
	C172.720535,251.157059 174.097519,249.819016 174.013580,246.878510 
	C173.942978,244.404739 174.077087,241.924515 173.985107,239.452179 
	C173.889069,236.871078 174.196381,235.043320 177.550171,234.891464 
	C180.633072,234.751862 180.534744,232.914078 178.578857,230.605438 
	C176.600555,229.854614 174.805756,229.410049 173.010941,228.965500 
	C173.334106,227.230377 173.657257,225.495239 174.177322,223.261627 
	C174.621277,222.386307 174.868317,222.009491 175.561752,221.521515 
	C181.866440,221.410339 187.724731,221.410339 194.446289,221.410339 
	C190.814285,214.846802 187.853775,209.496735 185.037628,203.854248 
	C185.810013,202.027328 186.438019,200.492844 187.309448,198.705688 
	C188.669556,197.621094 189.786270,196.789185 191.251495,196.016388 
	C192.416916,197.082993 193.233856,198.090454 193.911682,199.392822 
	C192.317108,200.981018 190.861618,202.274292 189.217499,203.735168 
	C190.657196,206.093109 191.988785,208.273972 193.483063,210.721298 
	C196.595032,208.218063 199.281555,206.057068 201.968079,203.896057 
	C203.048981,205.499863 203.919037,207.309052 205.246918,208.672302 
	C211.379730,214.968491 217.688080,221.093460 223.834976,227.376205 
	C227.106445,230.719940 226.868286,233.529373 222.629761,237.067856 
	C221.516205,236.730515 220.683243,236.167877 220.753448,236.012009 
	C221.430161,234.509583 222.258835,233.075577 223.044067,231.622009 
	C221.244003,230.801880 219.505188,229.512741 217.629990,229.267776 
	C214.553970,228.865936 211.389359,229.142075 207.976868,228.943893 
	C205.351257,228.058548 203.010895,227.361618 200.670517,226.664688 
	C200.448105,227.425125 200.225693,228.185577 199.685852,229.033081 
	C198.929855,229.129578 198.491287,229.138977 197.989014,228.840454 
	C197.463654,228.277603 197.001999,228.022659 196.540344,227.767731 
	C196.355789,228.836868 196.171219,229.906021 195.993774,230.988083 
	C196.000885,231.001007 195.975021,230.986801 195.621246,230.983490 
	C193.907013,230.653793 192.546539,230.327423 190.887558,229.743286 
	C189.198853,229.485519 187.808655,229.485519 186.373734,229.485519 
	C186.373734,236.164307 186.373734,242.399124 186.373734,249.007568 
	C188.099258,248.837250 189.472549,248.701691 190.452667,248.604935 
	C191.035385,245.977280 191.495743,243.901382 191.956116,241.825470 
	C192.401459,241.749588 192.846802,241.673706 193.292145,241.597824 
	C194.591354,243.618530 195.890549,245.639221 197.189743,247.659927 
z"/>
<path fill="#214174" opacity="1.000000" stroke="none" 
	d="
M202.081223,203.583694 
	C199.281555,206.057068 196.595032,208.218063 193.483063,210.721298 
	C191.988785,208.273972 190.657196,206.093109 189.217499,203.735168 
	C190.861618,202.274292 192.317108,200.981018 194.220093,199.253235 
	C203.427734,189.900986 206.399399,179.168564 204.746277,166.499954 
	C204.782425,154.695236 204.728073,143.348511 204.766586,131.556396 
	C204.859467,129.074280 204.859467,127.037521 204.859467,124.683823 
	C208.128052,124.683823 210.568634,124.683823 213.009216,124.683823 
	C213.250900,130.385666 213.581238,136.085495 213.709473,141.789902 
	C213.838974,147.550766 213.768066,153.316147 213.886108,159.538620 
	C213.917908,165.027237 213.848557,170.056778 213.880096,175.544403 
	C212.613281,181.343628 211.245544,186.684753 209.880936,192.401367 
	C207.320816,196.275009 204.757599,199.773163 202.081223,203.583694 
z"/>
<path fill="#284677" opacity="1.000000" stroke="none" 
	d="
M208.262115,229.132294 
	C211.389359,229.142075 214.553970,228.865936 217.629990,229.267776 
	C219.505188,229.512741 221.244003,230.801880 223.044067,231.622009 
	C222.258835,233.075577 221.430161,234.509583 220.753448,236.012009 
	C220.683243,236.167877 221.516205,236.730515 222.244598,237.176239 
	C223.451248,239.604752 224.343430,241.961426 225.635559,244.199249 
	C225.540085,245.058563 225.044647,246.036743 224.218018,247.032562 
	C219.235458,247.691940 214.584091,248.333679 209.476166,249.028473 
	C207.864182,247.921844 206.708740,246.762192 205.511230,244.951874 
	C206.306366,243.493286 207.143539,242.685333 208.348083,241.965576 
	C213.602600,245.870026 217.680328,245.558243 218.359299,240.868881 
	C214.879135,240.868881 211.453888,240.868881 207.733582,240.650253 
	C203.683929,236.813263 203.992752,232.576401 208.262115,229.132294 
M212.659943,234.887299 
	C212.765106,235.455673 212.870255,236.024063 212.975418,236.592422 
	C213.674667,236.228821 214.373917,235.865219 215.073181,235.501617 
	C214.549072,235.274780 214.024963,235.047943 212.659943,234.887299 
M218.793091,235.595596 
	C218.609543,235.526764 218.425980,235.457932 218.242432,235.389114 
	C218.297134,235.576172 218.351837,235.763214 218.793091,235.595596 
z"/>
<path fill="#A3864D" opacity="1.000000" stroke="none" 
	d="
M184.893265,204.146667 
	C187.853775,209.496735 190.814285,214.846802 194.446289,221.410339 
	C187.724731,221.410339 181.866440,221.410339 175.115936,221.362030 
	C170.805450,221.394577 167.387146,221.475403 163.968857,221.556244 
	C162.904617,221.485046 161.840363,221.413849 160.382385,221.428558 
	C152.583771,221.514450 145.178894,221.514450 136.531799,221.514450 
	C140.937180,214.108902 144.623871,207.880676 148.343292,201.672043 
	C150.221008,198.537659 152.673233,195.631165 153.927841,192.271408 
	C155.267593,188.683640 155.501938,184.683075 156.215851,179.952774 
	C156.147629,172.694885 156.082413,166.346939 156.079041,159.668274 
	C156.095230,158.893204 156.049561,158.448853 156.092026,157.542480 
	C156.152985,150.730087 156.125824,144.379700 156.166382,137.593811 
	C156.234116,135.249908 156.234116,133.341553 156.234116,131.004227 
	C158.893021,131.004227 160.942322,131.004227 163.035812,131.256744 
	C163.140793,131.669006 163.201599,131.828735 163.209213,132.454773 
	C163.241653,145.278290 163.327301,157.635483 163.320496,170.453308 
	C163.238571,176.611450 163.249069,182.308990 163.195679,188.251602 
	C163.150513,188.664505 163.169220,188.832321 163.090500,189.351761 
	C159.250244,196.442825 155.507416,203.182236 151.370102,210.631973 
	C156.806061,210.631973 161.371048,210.631973 166.392776,210.746613 
	C171.037628,210.861267 175.225723,210.861267 180.543228,210.861267 
	C177.270782,205.810883 174.691498,201.830246 172.024994,197.508179 
	C168.534393,192.598953 167.415009,187.493057 167.795624,181.828613 
	C168.059128,177.906631 167.658340,173.940018 167.649261,169.534882 
	C167.744125,156.526062 167.744125,143.975723 167.744125,131.234955 
	C170.508438,131.234955 172.528107,131.234955 174.711700,131.234955 
	C174.895264,133.744125 175.050690,135.868683 175.128357,138.454681 
	C175.110626,143.941315 175.170639,148.966522 175.142212,154.453369 
	C175.102066,163.282501 175.150375,171.650009 175.130035,180.441849 
	C175.362015,183.586746 175.662628,186.307327 176.036499,189.370026 
	C179.037598,194.523666 181.965424,199.335159 184.893265,204.146667 
z"/>
<path fill="#2A4777" opacity="1.000000" stroke="none" 
	d="
M141.766891,230.953766 
	C146.698257,227.647308 151.958725,229.208557 157.577911,229.948502 
	C158.374481,231.527328 158.754410,233.070663 159.294312,235.263931 
	C154.962845,235.263931 151.201492,235.263931 147.440125,235.263931 
	C147.437012,235.488403 147.433899,235.712860 147.430786,235.937332 
	C151.194397,236.738632 154.958008,237.539948 158.903015,239.129745 
	C159.080688,241.558640 159.581848,243.439758 158.943878,244.777725 
	C158.168335,246.404221 156.594742,248.484085 155.079422,248.753418 
	C151.741653,249.346771 148.191132,249.196136 144.795380,248.786285 
	C143.450455,248.623962 142.285980,246.966522 141.139069,245.609375 
	C141.279968,241.283813 143.119812,241.704086 146.009048,242.842834 
	C148.329742,243.757492 151.032227,243.716263 153.577850,243.975983 
	C153.643295,243.982651 153.855011,242.555466 153.998505,241.796997 
	C151.862289,241.437546 149.683167,240.616653 147.598358,240.810440 
	C142.568222,241.277985 141.069702,238.920090 141.577652,234.404129 
	C141.706177,233.261368 141.707260,232.104279 141.766891,230.953766 
z"/>
<path fill="#294676" opacity="1.000000" stroke="none" 
	d="
M197.493561,247.864380 
	C195.890549,245.639221 194.591354,243.618530 193.292145,241.597824 
	C192.846802,241.673706 192.401459,241.749588 191.956116,241.825470 
	C191.495743,243.901382 191.035385,245.977280 190.452667,248.604935 
	C189.472549,248.701691 188.099258,248.837250 186.373734,249.007568 
	C186.373734,242.399124 186.373734,236.164307 186.373734,229.485519 
	C187.808655,229.485519 189.198853,229.485519 190.820938,230.122849 
	C191.052826,232.256760 191.052826,233.753326 191.052826,235.249908 
	C191.401459,235.366852 191.750092,235.483810 192.098724,235.600754 
	C193.390823,234.062775 194.682922,232.524796 195.975021,230.986801 
	C195.975021,230.986801 196.000885,231.001007 196.258301,230.889420 
	C197.028030,230.234680 197.540359,229.691528 198.052704,229.148376 
	C198.491287,229.138977 198.929855,229.129578 200.013763,229.117859 
	C201.542084,229.212082 202.425095,229.308609 203.879440,229.467575 
	C201.251160,232.483765 199.028458,235.034500 196.566849,237.859406 
	C199.119904,241.005203 201.557846,244.009186 203.995789,247.013168 
	C203.553421,247.985748 202.919693,249.838791 202.699127,249.790833 
	C201.019791,249.425858 199.421158,248.689514 197.493561,247.864380 
z"/>
<path fill="#294676" opacity="1.000000" stroke="none" 
	d="
M133.990036,230.012741 
	C135.675018,230.090607 137.360016,230.168488 139.049896,231.065460 
	C139.079697,236.598709 139.104599,241.312820 138.976288,246.381241 
	C137.148087,247.477371 135.528534,248.634338 133.785522,248.867249 
	C130.909027,249.251587 127.952766,249.039078 125.030128,249.078094 
	C123.934860,246.967285 122.839584,244.856476 121.730804,241.917694 
	C121.646217,238.730026 121.575142,236.370346 121.607513,233.618347 
	C121.685944,232.147324 121.660942,231.068619 121.635941,229.989899 
	C123.218079,229.847504 124.800209,229.705124 126.594818,230.237976 
	C126.807281,235.287491 126.807281,239.661743 126.807281,244.019104 
	C129.555359,244.019104 131.608719,244.019104 133.990036,244.019104 
	C133.990036,239.153107 133.990036,234.582916 133.990036,230.012741 
z"/>
<path fill="#2B4778" opacity="1.000000" stroke="none" 
	d="
M172.554825,229.054901 
	C174.805756,229.410049 176.600555,229.854614 178.455856,230.971191 
	C176.497589,232.721542 174.478821,233.799850 171.851456,235.203262 
	C171.851456,239.224167 171.851456,243.940125 171.851456,248.702255 
	C170.313171,248.878311 169.177811,249.008255 168.042450,249.138214 
	C167.673096,245.963593 167.234039,242.794922 166.961716,239.612000 
	C166.809601,237.833923 166.934387,236.032135 166.934387,235.365799 
	C164.290771,233.729187 160.847794,232.491486 160.913773,231.483368 
	C161.194870,227.186630 164.934921,229.800781 167.146591,229.259384 
	C168.712845,228.875977 170.442169,229.158844 172.554825,229.054901 
z"/>
<path fill="#E5E9E6" opacity="1.000000" stroke="none" 
	d="
M204.003067,246.758514 
	C201.557846,244.009186 199.119904,241.005203 196.566849,237.859406 
	C199.028458,235.034500 201.251160,232.483765 203.879440,229.467575 
	C202.425095,229.308609 201.542084,229.212082 200.331177,229.030792 
	C200.225693,228.185577 200.448105,227.425125 200.670517,226.664688 
	C203.010895,227.361618 205.351257,228.058548 207.976868,228.943878 
	C203.992752,232.576401 203.683929,236.813263 207.717789,240.902222 
	C207.991608,241.541000 207.986145,241.709183 207.980713,241.877380 
	C207.143539,242.685333 206.306366,243.493286 205.278076,244.659180 
	C204.728104,245.512726 204.369217,246.008301 204.003067,246.758514 
z"/>
<path fill="#EDF2F0" opacity="1.000000" stroke="none" 
	d="
M125.286591,249.345978 
	C127.952766,249.039078 130.909027,249.251587 133.785522,248.867249 
	C135.528534,248.634338 137.148087,247.477371 139.294006,246.355255 
	C140.189728,245.979919 140.614548,245.984879 141.039352,245.989822 
	C142.285980,246.966522 143.450455,248.623962 144.795380,248.786285 
	C148.191132,249.196136 151.741653,249.346771 155.079422,248.753418 
	C156.594742,248.484085 158.168335,246.404221 158.943878,244.777725 
	C159.581848,243.439758 159.080688,241.558640 159.113434,239.480865 
	C162.967346,244.140594 161.266724,248.135513 156.044922,250.441971 
	C149.300903,253.420746 143.112244,249.701187 136.649124,250.345306 
	C133.007568,250.708221 129.248947,249.896469 125.286591,249.345978 
z"/>
<path fill="#EDF2F0" opacity="1.000000" stroke="none" 
	d="
M168.153992,249.374680 
	C169.177811,249.008255 170.313171,248.878311 171.851456,248.702255 
	C171.851456,243.940125 171.851456,239.224167 171.851456,235.203262 
	C174.478821,233.799850 176.497589,232.721542 178.639343,231.277466 
	C180.534744,232.914078 180.633072,234.751862 177.550171,234.891464 
	C174.196381,235.043320 173.889069,236.871078 173.985107,239.452179 
	C174.077087,241.924515 173.942978,244.404739 174.013580,246.878510 
	C174.097519,249.819016 172.720535,251.157059 169.404938,250.995239 
	C168.750946,250.535019 168.508255,250.073074 168.153992,249.374680 
z"/>
<path fill="#EAEBE1" opacity="1.000000" stroke="none" 
	d="
M121.504059,234.010666 
	C121.575142,236.370346 121.646217,238.730026 121.626389,241.524323 
	C119.562019,241.324341 117.588554,240.689713 115.249283,240.072647 
	C114.883476,240.090195 114.906715,240.034592 114.985626,239.707153 
	C117.211044,237.590012 119.357552,235.800339 121.504059,234.010666 
z"/>
<path fill="#E6ECEF" opacity="1.000000" stroke="none" 
	d="
M152.725220,263.563965 
	C148.480286,262.691681 148.565445,267.329712 146.066101,268.899597 
	C145.778107,267.810089 145.064865,266.091339 145.626434,265.081543 
	C146.613144,263.307190 148.379944,261.966583 150.107056,260.246765 
	C151.082901,260.036194 151.771729,260.023163 152.804794,260.026184 
	C153.033630,261.086975 152.918213,262.131714 152.725220,263.563965 
z"/>
<path fill="#D4D2C5" opacity="1.000000" stroke="none" 
	d="
M164.150024,221.865326 
	C167.387146,221.475403 170.805450,221.394577 174.669556,221.473206 
	C174.868317,222.009491 174.621277,222.386307 174.171555,222.876923 
	C170.756302,222.718628 167.543747,222.446533 164.150024,221.865326 
z"/>
<path fill="#CDD6D9" opacity="1.000000" stroke="none" 
	d="
M170.937622,261.637360 
	C170.957077,262.019318 170.599655,262.039185 170.420914,262.034607 
	C170.188156,261.271606 170.134125,260.513245 170.117691,259.373932 
	C170.155289,258.993011 170.514160,258.981232 170.693298,258.971375 
	C170.887680,259.726135 170.902924,260.490753 170.937622,261.637360 
z"/>
<path fill="#CDD6DD" opacity="1.000000" stroke="none" 
	d="
M195.565445,271.939453 
	C198.045929,271.091095 200.525650,270.648590 203.005356,270.206055 
	C203.011795,271.318573 203.018234,272.431122 203.024673,273.543640 
	C200.538010,273.144196 198.051331,272.744720 195.565445,271.939453 
z"/>
<path fill="#CDD6D9" opacity="1.000000" stroke="none" 
	d="
M158.717392,264.181885 
	C159.026993,264.519409 159.028320,264.878510 159.033813,265.506775 
	C158.828339,265.251770 158.618713,264.727600 158.717392,264.181885 
z"/>
<path fill="#D5DEE3" opacity="1.000000" stroke="none" 
	d="
M128.618530,264.951599 
	C129.004562,265.043579 129.014694,265.473022 129.013214,265.687805 
	C125.467262,265.408478 121.493225,267.234924 118.311592,264.780884 
	C118.464088,264.018494 118.616585,263.256134 118.769081,262.493774 
	C121.923553,263.282410 125.078026,264.071014 128.618530,264.951599 
z"/>
<path fill="#CDD6D9" opacity="1.000000" stroke="none" 
	d="
M177.713760,264.658478 
	C177.149765,264.536255 176.687439,264.095673 176.115356,263.440002 
	C176.608871,263.596649 177.212143,263.968384 177.713760,264.658478 
z"/>
<path fill="#E8EAEB" opacity="1.000000" stroke="none" 
	d="
M121.607506,233.618347 
	C119.357552,235.800339 117.211044,237.590012 115.009499,239.725464 
	C114.743553,238.657944 113.884201,236.851395 114.454132,235.911652 
	C115.714714,233.833038 117.694031,232.190308 119.644485,230.174179 
	C120.292587,229.984650 120.676384,229.990738 121.348068,229.993362 
	C121.660942,231.068619 121.685944,232.147324 121.607506,233.618347 
z"/>
<path fill="#E8EAEB" opacity="1.000000" stroke="none" 
	d="
M126.748512,140.976074 
	C126.748512,135.881104 126.748512,130.786133 126.748512,124.922440 
	C124.348854,124.922440 122.611549,124.922440 120.424683,124.836685 
	C119.969620,123.833069 119.964119,122.915199 119.964310,121.653137 
	C128.664642,121.243385 137.359299,121.177834 146.501953,121.548706 
	C144.621902,124.325134 142.293839,126.665131 139.878677,128.593582 
	C138.648712,121.408501 134.114777,126.551369 130.855499,124.621429 
	C130.855499,129.829102 130.855499,133.905945 130.636932,138.226959 
	C130.218918,139.324219 130.019470,140.177322 129.512787,141.021667 
	C128.386520,141.000626 127.567520,140.988358 126.748512,140.976074 
z"/>
<path fill="#D9DEDC" opacity="1.000000" stroke="none" 
	d="
M114.191086,120.967499 
	C114.556168,120.804100 114.978401,120.898956 115.702011,121.114319 
	C115.418335,121.231789 114.833290,121.228767 114.191086,120.967499 
z"/>
<path fill="#E9E9DF" opacity="1.000000" stroke="none" 
	d="
M163.412964,169.992676 
	C163.327301,157.635483 163.241653,145.278290 163.315552,132.326263 
	C163.313950,131.489044 163.152786,131.246628 162.991623,131.004227 
	C160.942322,131.004227 158.893021,131.004227 156.234116,131.004227 
	C156.234116,133.341553 156.234116,135.249908 155.816605,137.545807 
	C150.308304,134.716110 150.281784,134.510071 154.005310,130.462570 
	C154.779861,129.620605 155.407806,128.643799 156.103302,127.729126 
	C161.227310,127.816528 166.358490,128.084030 171.470917,127.880531 
	C172.985153,127.820244 174.426041,126.390427 175.936386,125.662590 
	C179.370163,124.007851 182.739227,121.270172 186.290482,120.996643 
	C194.839783,120.338135 203.478622,120.842361 212.540955,120.976891 
	C213.003204,122.038277 213.005875,123.000359 213.008881,124.323135 
	C210.568634,124.683823 208.128052,124.683823 204.859467,124.683823 
	C204.859467,127.037521 204.859467,129.074280 204.481171,131.606964 
	C203.000549,132.395630 201.898209,132.688385 200.636627,132.548615 
	C200.377014,129.832031 200.276627,127.548004 200.162506,124.951492 
	C197.229034,124.951492 194.611099,124.951492 191.782257,124.750801 
	C191.027237,125.369064 190.483154,126.188019 189.600922,127.053345 
	C187.646011,128.426727 186.063034,129.797668 184.405197,131.071213 
	C181.362122,133.408859 178.274933,135.689102 175.206116,137.993256 
	C175.050690,135.868683 174.895264,133.744125 174.711700,131.234955 
	C172.528107,131.234955 170.508438,131.234955 167.744125,131.234955 
	C167.744125,143.975723 167.744125,156.526062 167.304840,169.537567 
	C165.714706,169.996719 164.563828,169.994705 163.412964,169.992676 
z"/>
<path fill="#D9DEDC" opacity="1.000000" stroke="none" 
	d="
M156.000885,127.413055 
	C155.407806,128.643799 154.779861,129.620605 154.005310,130.462570 
	C150.281784,134.510071 150.308304,134.716110 155.748871,137.981339 
	C156.125824,144.379700 156.152985,150.730087 155.749512,157.497269 
	C153.206192,156.103027 151.107468,154.275391 148.977478,152.484940 
	C145.991913,149.975311 142.983109,147.493378 139.884247,144.541748 
	C139.844757,139.057648 139.905273,134.031387 139.965775,129.005127 
	C142.293839,126.665131 144.621902,124.325134 146.960602,121.640442 
	C149.946976,123.229485 152.922729,125.163231 156.000885,127.413055 
z"/>
<path fill="#DBE0DD" opacity="1.000000" stroke="none" 
	d="
M174.454987,109.967506 
	C176.795212,109.722900 179.578979,109.554710 182.671844,109.620651 
	C180.286819,109.917824 177.592651,109.980873 174.454987,109.967506 
z"/>
<path fill="#AD9666" opacity="1.000000" stroke="none" 
	d="
M145.049667,93.910629 
	C144.408417,93.191010 143.767181,92.471390 143.588043,91.412262 
	C158.708801,91.031380 173.367432,90.989998 188.026062,90.948624 
	C187.837341,91.765633 187.648621,92.582642 186.754120,93.603180 
	C172.382111,93.841354 158.715881,93.875992 145.049667,93.910629 
z"/>
<path fill="#DFD5B7" opacity="1.000000" stroke="none" 
	d="
M188.036896,90.677910 
	C173.367432,90.989998 158.708801,91.031380 143.593018,91.110886 
	C143.086212,90.691040 143.036575,90.233070 142.971741,89.430168 
	C157.690598,89.101013 172.424667,89.116791 187.626389,89.229225 
	C188.078613,89.686325 188.063171,90.046761 188.036896,90.677910 
z"/>
<path fill="#ECE4CC" opacity="1.000000" stroke="none" 
	d="
M148.212112,99.257645 
	C148.135132,98.874229 148.058136,98.490814 148.433899,97.705757 
	C160.597031,97.377434 172.307419,97.450760 184.017792,97.524078 
	C183.775223,97.954651 183.532639,98.385216 182.608124,98.923782 
	C170.688171,99.107063 159.450150,99.182350 148.212112,99.257645 
z"/>
<path fill="#AB976C" opacity="1.000000" stroke="none" 
	d="
M148.301727,99.463959 
	C159.450150,99.182350 170.688171,99.107063 182.381165,99.038589 
	C181.797073,99.732765 180.758041,100.420120 178.909760,101.091064 
	C168.421799,100.997040 158.743103,100.919418 149.064407,100.841789 
	C148.840057,100.451286 148.615707,100.060783 148.301727,99.463959 
z"/>
<path fill="#A3864D" opacity="1.000000" stroke="none" 
	d="
M184.270203,97.373825 
	C172.307419,97.450760 160.597031,97.377434 148.427979,97.412376 
	C147.795975,97.467690 147.622665,97.414742 147.225037,96.924149 
	C147.019440,96.078186 147.038162,95.669884 147.511978,95.214989 
	C151.652603,95.180946 155.338135,95.193489 159.351440,95.427368 
	C163.111588,95.499710 166.543961,95.350731 170.433929,95.157440 
	C174.259766,95.140320 177.627991,95.167526 181.101807,95.311417 
	C181.207397,95.428108 181.646027,95.483490 181.646027,95.483490 
	C181.646027,95.483490 182.001251,95.193840 182.368866,95.150543 
	C183.473282,95.150185 184.210098,95.193123 184.948288,95.503258 
	C184.955200,96.126419 184.960709,96.482399 184.966217,96.838371 
	C184.818344,96.966774 184.670486,97.095177 184.270203,97.373825 
z"/>
<path fill="#ECE4CC" opacity="1.000000" stroke="none" 
	d="
M149.240189,101.113358 
	C158.743103,100.919418 168.421799,100.997040 178.567719,101.144180 
	C179.036499,101.587524 179.038040,101.961349 178.805573,102.628906 
	C178.571579,102.922638 178.101700,102.942200 178.101700,102.942200 
	C169.740524,102.972435 161.379349,103.002670 152.558426,103.071136 
	C151.204437,102.534546 150.310211,101.959732 149.240189,101.113358 
z"/>
<path fill="#E6DBC5" opacity="1.000000" stroke="none" 
	d="
M180.996231,95.194725 
	C177.627991,95.167526 174.259766,95.140320 169.983246,95.084030 
	C165.724533,95.105301 162.374100,95.155670 159.023651,95.206039 
	C155.338135,95.193489 151.652603,95.180946 147.167603,95.148010 
	C145.905273,95.069969 145.442429,95.012314 144.979584,94.954651 
	C144.987488,94.780525 144.995392,94.606392 145.026489,94.171448 
	C158.715881,93.875992 172.382111,93.841354 186.515533,93.829041 
	C186.800430,94.145973 186.618103,94.440575 185.947983,94.911469 
	C185.289078,95.137192 185.117996,95.186630 184.946899,95.236069 
	C184.210098,95.193123 183.473282,95.150185 182.117569,95.105118 
	C181.331177,95.133575 181.163696,95.164154 180.996231,95.194725 
z"/>
<path fill="#A69566" opacity="1.000000" stroke="none" 
	d="
M184.948288,95.503258 
	C185.117996,95.186630 185.289078,95.137192 185.724365,95.048203 
	C185.824799,95.541985 185.661026,96.075317 185.231735,96.723511 
	C184.960709,96.482399 184.955200,96.126419 184.948288,95.503258 
z"/>
<path fill="#D7CEB5" opacity="1.000000" stroke="none" 
	d="
M178.071686,103.204575 
	C178.101700,102.942200 178.571579,102.922638 178.806854,102.909531 
	C178.851242,103.189140 178.660355,103.481850 178.227692,103.883362 
	C178.004486,103.817101 178.023071,103.642021 178.071686,103.204575 
z"/>
<path fill="#A69566" opacity="1.000000" stroke="none" 
	d="
M144.798645,95.128845 
	C145.442429,95.012314 145.905273,95.069969 146.712494,95.194595 
	C147.038162,95.669884 147.019440,96.078186 146.986725,96.793419 
	C146.187714,96.501236 145.402710,95.902138 144.798645,95.128845 
z"/>
<path fill="#E9EAE5" opacity="1.000000" stroke="none" 
	d="
M126.607742,141.426300 
	C127.567520,140.988358 128.386520,141.000626 129.756958,141.045654 
	C130.308380,141.078415 130.795792,141.066269 130.851593,141.527649 
	C130.938080,146.446884 130.853775,150.909119 131.022903,155.361725 
	C131.397385,165.221710 131.899170,175.076874 131.909821,184.954391 
	C130.298279,184.986862 129.125946,184.998962 127.953629,185.011047 
	C127.423141,181.937149 126.477943,178.868835 126.436409,175.788345 
	C126.284073,164.486603 126.432037,153.180786 126.607742,141.426300 
z"/>
<path fill="#CBD3D8" opacity="1.000000" stroke="none" 
	d="
M127.948868,185.376099 
	C129.125946,184.998962 130.298279,184.986862 132.149933,185.176117 
	C135.244736,188.906647 137.660217,192.435837 140.075684,195.965027 
	C139.084961,196.756149 138.094223,197.547272 137.047821,198.679642 
	C133.976120,194.594299 130.960114,190.167709 127.948868,185.376099 
z"/>
<path fill="#234375" opacity="1.000000" stroke="none" 
	d="
M140.380798,196.095337 
	C137.660217,192.435837 135.244736,188.906647 132.589142,185.155731 
	C131.899170,175.076874 131.397385,165.221710 131.022903,155.361725 
	C130.853775,150.909119 130.938080,146.446884 130.976135,141.152893 
	C130.981750,139.538757 130.918625,138.760757 130.855499,137.982773 
	C130.855499,133.905945 130.855499,129.829102 130.855499,124.621429 
	C134.114777,126.551369 138.648712,121.408501 139.878677,128.593582 
	C139.905273,134.031387 139.844757,139.057648 139.790710,145.002441 
	C139.847702,154.949249 139.898254,163.977509 139.848755,173.429886 
	C139.531799,179.447083 140.856812,184.432556 145.384537,188.155991 
	C146.569809,189.470612 147.755066,190.785233 149.187698,192.374222 
	C147.844482,194.520432 146.493561,196.678925 144.961929,199.126205 
	C143.319046,198.011780 142.002487,197.118713 140.380798,196.095337 
z"/>
<path fill="#D9DEDC" opacity="1.000000" stroke="none" 
	d="
M145.770172,188.103119 
	C140.856812,184.432556 139.531799,179.447083 140.195435,173.390106 
	C142.763290,171.119629 144.874283,169.300919 147.008057,167.509323 
	C150.002213,164.995316 153.013321,162.501465 156.017181,159.998993 
	C156.082413,166.346939 156.147629,172.694885 156.142670,179.503571 
	C152.766922,182.659622 149.461365,185.354950 145.770172,188.103119 
z"/>
<path fill="#CDD6DD" opacity="1.000000" stroke="none" 
	d="
M141.139069,245.609375 
	C140.614548,245.984879 140.189728,245.979919 139.447205,246.000946 
	C139.104599,241.312820 139.079697,236.598709 139.138336,231.421600 
	C139.857986,230.958298 140.494095,230.957947 141.448547,230.955688 
	C141.707260,232.104279 141.706177,233.261368 141.577652,234.404129 
	C141.069702,238.920090 142.568222,241.277985 147.598358,240.810440 
	C149.683167,240.616653 151.862289,241.437546 153.998505,241.796997 
	C153.855011,242.555466 153.643295,243.982651 153.577850,243.975983 
	C151.032227,243.716263 148.329742,243.757492 146.009048,242.842834 
	C143.119812,241.704086 141.279968,241.283813 141.139069,245.609375 
z"/>
<path fill="#E9EFF0" opacity="1.000000" stroke="none" 
	d="
M133.721039,230.323761 
	C133.990036,234.582916 133.990036,239.153107 133.990036,244.019104 
	C131.608719,244.019104 129.555359,244.019104 126.807281,244.019104 
	C126.807281,239.661743 126.807281,235.287491 126.880493,230.449860 
	C127.636917,232.837997 128.214981,235.720612 129.046097,238.528320 
	C129.485779,240.013702 130.365738,241.368744 131.046936,242.782639 
	C131.697021,241.337189 132.676041,239.945633 132.923630,238.434250 
	C133.343002,235.874283 133.300430,233.238617 133.721039,230.323761 
z"/>
<path fill="#1B3C71" opacity="1.000000" stroke="none" 
	d="
M191.993179,124.951492 
	C194.611099,124.951492 197.229034,124.951492 200.162506,124.951492 
	C200.276627,127.548004 200.377014,129.832031 200.472794,132.992920 
	C200.525940,144.898178 200.583694,155.926605 200.501740,167.402512 
	C201.086365,178.523941 199.098770,188.285233 190.903000,195.957275 
	C189.786270,196.789185 188.669556,197.621094 186.956787,198.521973 
	C185.056030,196.563950 183.751343,194.536987 182.346054,192.353760 
	C188.280975,186.994324 192.602997,181.194382 191.674164,172.511566 
	C191.728714,163.065872 191.696381,154.079605 191.753250,144.816864 
	C191.785004,144.355453 191.727524,144.170502 191.722504,143.668121 
	C191.732529,142.925720 191.690063,142.500732 191.730209,141.787079 
	C191.756744,141.306244 191.700653,141.114075 191.708771,140.466980 
	C191.729538,135.701065 191.686096,131.390076 191.758026,126.736267 
	C191.913315,125.912804 191.953247,125.432144 191.993179,124.951492 
z"/>
<path fill="#D9DDD7" opacity="1.000000" stroke="none" 
	d="
M191.587265,172.971024 
	C192.602997,181.194382 188.280975,186.994324 182.346054,192.353760 
	C183.751343,194.536987 185.056030,196.563950 186.713379,198.774628 
	C186.438019,200.492844 185.810013,202.027328 185.037628,203.854248 
	C181.965424,199.335159 179.037598,194.523666 176.410248,189.354965 
	C178.089722,187.846695 179.468689,186.695618 180.847656,185.544540 
	C178.964661,183.702209 177.081665,181.859863 175.198685,180.017517 
	C175.150375,171.650009 175.102066,163.282501 175.469208,154.466705 
	C176.590164,154.678391 177.295700,155.338379 177.868408,156.288300 
	C177.384583,157.649704 176.426041,159.368301 176.774094,159.695053 
	C181.606995,164.232025 186.619003,168.578217 191.587265,172.971024 
z"/>
<path fill="#D2D8DC" opacity="1.000000" stroke="none" 
	d="
M191.251495,196.016388 
	C199.098770,188.285233 201.086365,178.523941 200.835602,167.406982 
	C202.424728,166.961945 203.540268,166.959946 204.655792,166.957932 
	C206.399399,179.168564 203.427734,189.900986 194.359177,198.958344 
	C193.233856,198.090454 192.416916,197.082993 191.251495,196.016388 
z"/>
<path fill="#E5E9E6" opacity="1.000000" stroke="none" 
	d="
M195.621246,230.983490 
	C194.682922,232.524796 193.390823,234.062775 192.098724,235.600754 
	C191.750092,235.483810 191.401459,235.366852 191.052826,235.249908 
	C191.052826,233.753326 191.052826,232.256760 191.119446,230.380615 
	C192.546539,230.327423 193.907013,230.653793 195.621246,230.983490 
z"/>
<path fill="#E5E9E6" opacity="1.000000" stroke="none" 
	d="
M197.988998,228.840454 
	C197.540359,229.691528 197.028030,230.234680 196.251175,230.876495 
	C196.171219,229.906021 196.355789,228.836868 196.540344,227.767731 
	C197.001999,228.022659 197.463654,228.277603 197.988998,228.840454 
z"/>
<path fill="#EBECE5" opacity="1.000000" stroke="none" 
	d="
M204.746277,166.499954 
	C203.540268,166.959946 202.424728,166.961945 200.975327,166.959503 
	C200.583694,155.926605 200.525940,144.898178 200.632019,133.425446 
	C201.898209,132.688385 203.000549,132.395630 204.388306,132.052338 
	C204.728073,143.348511 204.782425,154.695236 204.746277,166.499954 
z"/>
<path fill="#CDD6DD" opacity="1.000000" stroke="none" 
	d="
M208.348068,241.965561 
	C207.986145,241.709183 207.991608,241.541000 208.012848,241.120850 
	C211.453888,240.868881 214.879135,240.868881 218.359299,240.868881 
	C217.680328,245.558243 213.602600,245.870026 208.348068,241.965561 
z"/>
<path fill="#E7E8E0" opacity="1.000000" stroke="none" 
	d="
M213.080383,234.854187 
	C214.024963,235.047943 214.549072,235.274780 215.073181,235.501617 
	C214.373917,235.865219 213.674667,236.228821 212.975418,236.592438 
	C212.870255,236.024063 212.765106,235.455673 213.080383,234.854187 
z"/>
<path fill="#E7E8E0" opacity="1.000000" stroke="none" 
	d="
M218.599808,235.772934 
	C218.351837,235.763214 218.297134,235.576172 218.242432,235.389114 
	C218.425980,235.457932 218.609543,235.526764 218.599808,235.772934 
z"/>
<path fill="#ECEADD" opacity="1.000000" stroke="none" 
	d="
M163.320511,170.453308 
	C164.563828,169.994705 165.714706,169.996719 167.209991,169.996048 
	C167.658340,173.940018 168.059128,177.906631 167.795624,181.828613 
	C167.415009,187.493057 168.534393,192.598953 171.851364,197.820282 
	C169.821976,202.526520 167.878998,206.579239 165.936020,210.631973 
	C161.371048,210.631973 156.806061,210.631973 151.370102,210.631973 
	C155.507416,203.182236 159.250244,196.442825 163.213928,189.255066 
	C163.614014,188.497971 163.555618,188.231232 163.259583,188.006516 
	C163.249069,182.308990 163.238571,176.611450 163.320511,170.453308 
z"/>
<path fill="#DCE0DD" opacity="1.000000" stroke="none" 
	d="
M178.001221,155.998367 
	C177.295700,155.338379 176.590164,154.678391 175.557648,154.005081 
	C175.170639,148.966522 175.110626,143.941315 175.128357,138.454681 
	C178.274933,135.689102 181.362122,133.408859 184.405197,131.071213 
	C186.063034,129.797668 187.646011,128.426727 189.885132,127.077522 
	C190.885910,127.063248 191.264282,127.071159 191.642670,127.079071 
	C191.686096,131.390076 191.729538,135.701065 191.486145,140.482315 
	C190.988144,141.135941 190.776993,141.319321 190.565826,141.502686 
	C190.926422,141.693710 191.287003,141.884720 191.647598,142.075745 
	C191.690063,142.500732 191.732529,142.925720 191.541290,143.804413 
	C191.123962,144.502090 190.974289,144.765366 190.578232,145.209259 
	C186.199005,148.913177 182.100113,152.455780 178.001221,155.998367 
z"/>
<path fill="#ECECE2" opacity="1.000000" stroke="none" 
	d="
M156.079041,159.668274 
	C153.013321,162.501465 150.002213,164.995316 147.008057,167.509323 
	C144.874283,169.300919 142.763290,171.119629 140.295471,172.966003 
	C139.898254,163.977509 139.847702,154.949249 139.890686,145.460281 
	C142.983109,147.493378 145.991913,149.975311 148.977478,152.484940 
	C151.107468,154.275391 153.206192,156.103027 155.661377,157.959290 
	C156.049561,158.448853 156.095230,158.893204 156.079041,159.668274 
z"/>
<path fill="#DBD9CE" opacity="1.000000" stroke="none" 
	d="
M166.392776,210.746613 
	C167.878998,206.579239 169.821976,202.526520 171.938599,198.161713 
	C174.691498,201.830246 177.270782,205.810883 180.543228,210.861267 
	C175.225723,210.861267 171.037628,210.861267 166.392776,210.746613 
z"/>
<path fill="#EBEBE0" opacity="1.000000" stroke="none" 
	d="
M175.130035,180.441849 
	C177.081665,181.859863 178.964661,183.702209 180.847656,185.544540 
	C179.468689,186.695618 178.089722,187.846695 176.336990,189.012833 
	C175.662628,186.307327 175.362015,183.586746 175.130035,180.441849 
z"/>
<path fill="#DCD8C5" opacity="1.000000" stroke="none" 
	d="
M163.035812,131.256744 
	C163.152786,131.246628 163.313950,131.489044 163.368774,131.859955 
	C163.201599,131.828735 163.140793,131.669006 163.035812,131.256744 
z"/>
<path fill="#DCD8C5" opacity="1.000000" stroke="none" 
	d="
M163.195694,188.251602 
	C163.555618,188.231232 163.614014,188.497971 163.311340,188.903412 
	C163.169220,188.832321 163.150513,188.664505 163.195694,188.251602 
z"/>
<path fill="#B7C2CE" opacity="1.000000" stroke="none" 
	d="
M130.636932,138.226959 
	C130.918625,138.760757 130.981750,139.538757 130.920334,140.691498 
	C130.795792,141.066269 130.308380,141.078415 130.064209,141.054413 
	C130.019470,140.177322 130.218918,139.324219 130.636932,138.226959 
z"/>
<path fill="#B6C2CD" opacity="1.000000" stroke="none" 
	d="
M191.758026,126.736267 
	C191.264282,127.071159 190.885910,127.063248 190.223297,127.031158 
	C190.483154,126.188019 191.027237,125.369064 191.782257,124.750801 
	C191.953247,125.432144 191.913315,125.912804 191.758026,126.736267 
z"/>
<path fill="#A69566" opacity="1.000000" stroke="none" 
	d="
M159.351440,95.427368 
	C162.374100,95.155670 165.724533,95.105301 169.525665,95.128342 
	C166.543961,95.350731 163.111588,95.499710 159.351440,95.427368 
z"/>
<path fill="#A69566" opacity="1.000000" stroke="none" 
	d="
M181.101807,95.311417 
	C181.163696,95.164154 181.331177,95.133575 181.749954,95.148422 
	C182.001251,95.193840 181.646027,95.483490 181.646027,95.483490 
	C181.646027,95.483490 181.207397,95.428108 181.101807,95.311417 
z"/>
<path fill="#ECECE2" opacity="1.000000" stroke="none" 
	d="
M177.868408,156.288300 
	C182.100113,152.455780 186.199005,148.913177 190.778717,145.246674 
	C191.259552,145.122772 191.664047,145.093353 191.664032,145.093353 
	C191.696381,154.079605 191.728714,163.065872 191.674164,172.511566 
	C186.619003,168.578217 181.606995,164.232025 176.774094,159.695053 
	C176.426041,159.368301 177.384583,157.649704 177.868408,156.288300 
z"/>
<path fill="#B6C2CD" opacity="1.000000" stroke="none" 
	d="
M191.730209,141.787079 
	C191.287003,141.884720 190.926422,141.693710 190.565826,141.502686 
	C190.776993,141.319321 190.988144,141.135941 191.421936,140.937256 
	C191.700653,141.114075 191.756744,141.306244 191.730209,141.787079 
z"/>
<path fill="#B6C2CD" opacity="1.000000" stroke="none" 
	d="
M191.753265,144.816864 
	C191.664047,145.093353 191.259552,145.122772 191.059067,145.085358 
	C190.974289,144.765366 191.123962,144.502090 191.488800,144.121826 
	C191.727524,144.170502 191.785004,144.355453 191.753265,144.816864 
z"/>
</svg>