<?xml version="1.0" encoding="UTF-8"?>
<svg version="1.1" xmlns="http://www.w3.org/2000/svg" width="1050" height="1104">
<path d="M0 0 C346.5 0 693 0 1050 0 C1050 364.32 1050 728.64 1050 1104 C703.5 1104 357 1104 0 1104 C0 739.68 0 375.36 0 0 Z " fill="#FEFEFE" transform="translate(0,0)"/>
<path d="M0 0 C2.7621621 2.72951863 5.47463387 5.4504743 7.98046875 8.41796875 C8.49931641 9.02745361 9.01816406 9.63693848 9.55273438 10.26489258 C10.09220703 10.89935303 10.63167969 11.53381348 11.1875 12.1875 C23.91618287 26.9593015 40.86535009 44.62178336 60 51 C60 51.66 60 52.32 60 53 C60.85980469 53.28101563 61.71960938 53.56203125 62.60546875 53.8515625 C69.69364195 56.2496326 76.71956857 58.89161432 83.5 62.0625 C93.4501213 66.55520736 104.05097225 68.80335638 114.75 70.6875 C116.48056641 71.00557617 116.48056641 71.00557617 118.24609375 71.33007812 C127.77435293 73.05211813 137.06257261 74.12404267 146.7421875 74.31640625 C147.63237579 74.33718735 148.52256409 74.35796844 149.43972778 74.37937927 C152.25141617 74.44411143 155.06318909 74.50335734 157.875 74.5625 C159.78386223 74.60576538 161.69271654 74.64938202 163.6015625 74.69335938 C174.53093976 75.096239 174.53093976 75.096239 185.4375 74.625 C186.19933594 74.55539062 186.96117187 74.48578125 187.74609375 74.4140625 C189.99528311 74.12307358 189.99528311 74.12307358 191.765625 73.03125 C195.12738878 71.47966672 198.67242627 71.3099474 202.3125 70.875 C227.87508671 67.41636225 254.3077912 59.73026485 277.625 48.765625 C278.429375 48.38921875 279.23375 48.0128125 280.0625 47.625 C280.75472656 47.28726563 281.44695312 46.94953125 282.16015625 46.6015625 C284 46 284 46 287 47 C286.95875 47.680625 286.9175 48.36125 286.875 49.0625 C287.06660458 53.56520767 288.49809899 57.58840341 290 61.8125 C290.868536 64.5809585 291.46144643 67.21826395 292 70.0625 C292.95435765 76.0004976 292.95435765 76.0004976 296 81 C296.32351301 83.83972535 296.5130429 86.68073737 296.71875 89.53125 C296.73385265 91.9413605 296.73385265 91.9413605 298 93 C298.23423464 94.94080131 298.46669713 96.88184348 298.6875 98.82421875 C299.14071288 101.97971343 300.08980212 104.94816005 301 108 C302.73147024 115.20551481 304.15380394 122.48810784 305.625 129.75 C305.85445312 130.85988281 306.08390625 131.96976563 306.3203125 133.11328125 C306.64515625 134.72009766 306.64515625 134.72009766 306.9765625 136.359375 C307.17330566 137.32327148 307.37004883 138.28716797 307.57275391 139.28027344 C307.98673504 141.91555907 308.07291981 144.33814865 308 147 C308 149.65197392 308.29495214 151.57980151 308.90234375 154.12890625 C309.9523965 158.71120692 310.80853412 163.29801681 311.5625 167.9375 C311.68818359 168.65228516 311.81386719 169.36707031 311.94335938 170.10351562 C314.46161053 185.62174397 314.18650716 201.57611964 314.18530273 217.24926758 C314.18749482 220.42998545 314.20575124 223.61035834 314.22460938 226.79101562 C314.25934964 239.32496264 313.68648782 251.57728278 312 264 C311.86456787 265.02375732 311.72913574 266.04751465 311.58959961 267.10229492 C307.50003877 295.27570406 295.7940497 322.60449619 272.72265625 340.19140625 C255.65795931 351.52706577 237.48888283 355.12555502 217.3125 355.25 C215.74495972 355.26401855 215.74495972 355.26401855 214.14575195 355.27832031 C207.23312032 355.24996527 200.75355268 354.46718279 194 353 C196.81154103 350.02763591 199.76150976 348.38228857 203.375 346.4375 C221.748193 336.17770298 236.59867812 321.61463219 248 304 C248.63421875 303.02675781 249.2684375 302.05351563 249.921875 301.05078125 C262.97563311 279.88174431 268.55828839 255.53782378 269.8125 230.9375 C269.86559326 229.98625244 269.91868652 229.03500488 269.97338867 228.05493164 C270.20876814 222.0371514 269.62271453 216.79294605 268 211 C267.68289063 209.83597656 267.36578125 208.67195312 267.0390625 207.47265625 C266.69617188 206.32667969 266.35328125 205.18070313 266 204 C265.8050293 203.3385498 265.61005859 202.67709961 265.40917969 201.99560547 C260.43545294 185.37449558 253.38783624 172.25974931 241 160 C240.01580078 158.98292969 240.01580078 158.98292969 239.01171875 157.9453125 C225.37539855 144.80538939 206.0808557 141.57325323 187.890625 141.765625 C180.46591759 141.9982062 173.24745347 143.45876939 166 145 C165.85973389 145.72517822 165.71946777 146.45035645 165.57495117 147.19750977 C165.04775912 149.76720723 164.44459159 152.29727933 163.80078125 154.83984375 C157.01405029 182.37933113 152.85509414 210.56476741 150.29248047 238.79980469 C150.0070018 241.92338935 149.69356702 245.0433037 149.37890625 248.1640625 C146.82587932 275.10275166 146.50843705 303.1373346 150 330 C150.11827148 330.92619141 150.23654297 331.85238281 150.35839844 332.80664062 C152.94149852 351.88083005 158.23472438 373.78199569 173.9375 386.4375 C175.27318827 387.32028248 176.62734296 388.17587579 178 389 C178.60585938 389.41121094 179.21171875 389.82242187 179.8359375 390.24609375 C185.16100215 393.28748443 190.5121461 393.38315431 196.5 393.4375 C197.29510986 393.44765137 198.09021973 393.45780273 198.90942383 393.46826172 C207.82115971 393.33800269 215.31186964 390.00955008 223.3125 386.375 C230.92462197 382.92853879 230.92462197 382.92853879 235 382 C233.55450564 386.39301079 231.17782305 389.55347246 228.1875 393 C227.70321533 393.56251465 227.21893066 394.1250293 226.7199707 394.70458984 C217.10569924 405.72339962 206.74951299 415.30845236 195 424 C194.08154297 424.69295166 194.08154297 424.69295166 193.14453125 425.39990234 C145.21799595 461.43126922 70.57099594 495.84448997 9 495 C13.35342305 490.51053248 13.35342305 490.51053248 15.7265625 488.63671875 C28.11663091 478.77055317 35.89352364 463.85396036 43 450 C43.47050781 449.08492676 43.94101562 448.16985352 44.42578125 447.22705078 C52.39374912 431.5617947 58.86840283 415.5647158 64.84008789 399.06005859 C65.64045726 396.94853897 66.50860614 394.86191019 67.42993164 392.80029297 C69.50126274 388.01799292 70.91405904 383.03561499 72.3984375 378.046875 C72.71527496 376.99203918 73.03211243 375.93720337 73.35855103 374.85040283 C74.02781649 372.61864037 74.69504097 370.38626496 75.36035156 368.15332031 C76.35977394 364.80107104 77.36684845 361.45119546 78.375 358.1015625 C81.96746934 346.11992108 85.38320255 334.11544039 88.48498535 321.99755859 C89.23761137 319.07839004 90.02341618 316.16836925 90.80859375 313.2578125 C94.32765908 300.06526737 97.40391038 286.85929537 100.04663086 273.46728516 C100.3889978 271.74131104 100.3889978 271.74131104 100.73828125 269.98046875 C100.93462158 268.96879639 101.13096191 267.95712402 101.33325195 266.91479492 C102.03189993 263.8605444 103.00041691 260.96736079 104 258 C104.38109741 255.69489 104.71304343 253.38121156 105 251.0625 C105.44378118 247.48451423 105.95359997 244.15993127 106.95898438 240.69458008 C107.93109816 237.24453365 108.6270088 233.88409363 109.21875 230.3515625 C109.42781982 229.10721436 109.63688965 227.86286621 109.85229492 226.58081055 C110.06864311 225.26228022 110.28453626 223.94367515 110.5 222.625 C110.61082916 221.95393219 110.72165833 221.28286438 110.83584595 220.59146118 C112.51395292 210.41424579 113.92250035 200.25737408 115 190 C115.17125649 188.59986247 115.34583429 187.20012788 115.5234375 185.80078125 C116.77441037 175.87857335 117.52493931 165.98877609 118 156 C114.62045303 159.14859843 112.03987602 162.65027687 109.4375 166.4375 C90.52689948 193.29669966 90.52689948 193.29669966 79.68359375 196.734375 C79.12800781 196.82203125 78.57242188 196.9096875 78 197 C78 197.66 78 198.32 78 199 C72.08823859 201.92745877 66.54926265 203.3187023 60 203.9375 C49.7486668 205.00395393 42.56287214 208.11333286 35.9375 216.16796875 C31.89821847 222.0721605 28.91618163 228.48482349 26 235 C25.24783203 236.67449219 25.24783203 236.67449219 24.48046875 238.3828125 C20.93798091 246.79500125 18.13184511 255.44921732 15.3125 264.125 C14.9316626 265.29256836 14.5508252 266.46013672 14.15844727 267.66308594 C11.69912926 275.36681692 9.69363525 283.09309135 8 291 C7.34 291 6.68 291 6 291 C5.98969254 290.29289383 5.97938507 289.58578766 5.96876526 288.85725403 C5.41555627 247.9893028 5.41555627 247.9893028 4.4357605 207.13027954 C4.15606476 197.82168441 3.94932909 188.51511076 3.8203125 179.203125 C3.47981456 155.07048843 3.00035726 130.95226485 2.26953125 106.828125 C2.2360685 105.72108215 2.20260574 104.61403931 2.16812897 103.47344971 C1.82870655 92.27425898 1.4812524 81.07535331 1.1199646 69.87684631 C0.37089664 46.57660643 -0.256668 23.31403847 0 0 Z " fill="#6FB8DE" transform="translate(538,499)"/>
<path d="M0 0 C0.99 0.495 0.99 0.495 2 1 C2.74609375 3.51171875 2.74609375 3.51171875 3.4375 6.6875 C4.48480226 11.18662504 5.80178438 14.91759957 8 19 C8 19.99 8 20.98 8 22 C8.99 22.33 9.98 22.66 11 23 C11.433125 24.2065625 11.433125 24.2065625 11.875 25.4375 C12.76411601 28.22224641 12.76411601 28.22224641 15.5 29.1875 C16.325 29.455625 17.15 29.72375 18 30 C20 32 20 32 21 34 C23.43851949 34.8797567 23.43851949 34.8797567 26.3125 35.5625 C27.27800781 35.81128906 28.24351562 36.06007812 29.23828125 36.31640625 C30.79741043 36.70232932 32.35697861 37.08651824 33.91796875 37.46484375 C35.67425191 37.91627113 37.40698878 38.45788018 39.13134766 39.01904297 C43.16474764 40.04177433 46.85528577 40.27311657 50.98046875 40.23046875 C52.08338005 40.22978142 52.08338005 40.22978142 53.20857239 40.2290802 C54.75063711 40.22607914 56.29269939 40.2182579 57.8347168 40.20581055 C60.19135284 40.18747002 62.54759662 40.18530182 64.90429688 40.18554688 C66.40885755 40.18063364 67.91341559 40.17480617 69.41796875 40.16796875 C70.46962471 40.16629951 70.46962471 40.16629951 71.54252625 40.16459656 C74.85828252 40.13243826 77.81341935 39.91025704 81 39 C83 39 85 39 87 39 C87.680625 38.814375 88.36125 38.62875 89.0625 38.4375 C91.59168692 37.86639328 93.51188197 38.37797049 96 39 C96 40.65 96 42.3 96 44 C95.34 44 94.68 44 94 44 C93.9175 44.70125 93.835 45.4025 93.75 46.125 C92.81990995 49.6903452 91.23313631 52.09015572 89 55 C88.34 55 87.68 55 87 55 C86.92007812 55.58265625 86.84015625 56.1653125 86.7578125 56.765625 C85.75891592 59.71082522 84.26808858 60.78685615 81.875 62.75 C78.84436319 65.31986601 76.21958682 67.82879901 73.75 70.9375 C69.03402188 76.41941425 61.82755981 83.60170915 54.25390625 84.2265625 C51.66861278 83.73450977 49.43347935 82.99625665 47 82 C45.5020789 81.49380597 44.00208758 80.99369312 42.5 80.5 C41.77296875 80.24605469 41.0459375 79.99210937 40.296875 79.73046875 C34.88886282 78.01057372 28.68722818 76.30268062 23 77 C20.70558598 78.55834542 20.70558598 78.55834542 19 81 C18.71752581 84.08000922 18.71752581 84.08000922 19.22265625 87.4453125 C19.35043457 88.69473633 19.47821289 89.94416016 19.60986328 91.23144531 C19.7386084 92.47506836 19.86735352 93.71869141 20 95 C20.10435842 97.10057216 20.18730791 99.20234635 20.24609375 101.3046875 C20.61763564 114.29638696 21.13320321 127.2717399 21.80426407 140.25102043 C22.03109034 144.65443595 22.25115973 149.05819115 22.47192383 153.46191406 C22.51672756 154.35488158 22.5615313 155.2478491 22.60769272 156.16787624 C22.7386141 158.77857656 22.86931313 161.38928794 23 164 C23.03878139 164.77216354 23.07756279 165.54432709 23.11751938 166.33988953 C23.67858706 177.53679667 24.18483487 188.73516471 24.625 199.9375 C24.67405739 201.18114256 24.67405739 201.18114256 24.72410583 202.44990921 C26.21654549 240.8367303 26.27477221 279.22726771 26.25126553 317.63662958 C26.25000477 319.92882831 26.24931632 322.22102655 26.24878693 324.51322556 C26.24615251 334.04149343 26.23247239 343.56968502 26.2079463 353.09792137 C26.20323577 355.10514485 26.20008882 357.1123718 26.19697952 359.11959839 C26.17138358 372.95143369 26.01688084 386.7706202 25.57324219 400.59594727 C25.52027418 402.34355677 25.52027418 402.34355677 25.46623611 404.12647152 C25.07147245 415.20255537 23.72940232 426.06228886 22 437 C21.79397979 438.4361562 21.58823053 439.8723513 21.3828125 441.30859375 C18.12725156 461.58551343 9.64855418 481.56682824 -4 497 C-4.77214844 497.91523437 -5.54429687 498.83046875 -6.33984375 499.7734375 C-17.4349607 512.56875404 -31.78906334 521.68454682 -47.6875 527.375 C-48.68354248 527.73295654 -48.68354248 527.73295654 -49.69970703 528.09814453 C-71.70387526 535.52958889 -97.55441559 534.41734461 -118.4375 524.25 C-134.45248861 515.94829754 -146.85050859 502.83925816 -153.1875 485.80859375 C-155.17342202 478.94379599 -155.13066596 472.08499888 -155 465 C-150.69189664 467.79842612 -146.44205421 470.66470588 -142.28515625 473.68359375 C-134.7222977 479.15911422 -127.08247167 484.31600381 -119 489 C-118.23574707 489.44432373 -117.47149414 489.88864746 -116.68408203 490.34643555 C-105.87861189 496.49599511 -92.58189518 503.68649763 -80 504 C-78.77023437 504.05027344 -77.54046875 504.10054687 -76.2734375 504.15234375 C-66.59155825 504.43713841 -58.63896864 504.16343378 -50.8125 497.9375 C-42.80842248 490.30014317 -39.88781176 481.70212712 -38 471 C-37.82799072 470.07276123 -37.65598145 469.14552246 -37.47875977 468.19018555 C-34.77205238 450.15421135 -36.95785349 430.86589224 -40 413 C-40.11746582 412.27651367 -40.23493164 411.55302734 -40.35595703 410.80761719 C-41.74215689 402.40163666 -44.01107462 394.57100383 -46.8125 386.55859375 C-47.88543038 383.34333198 -48.73684631 380.17477251 -49.5 376.875 C-53.82614946 358.8734114 -63.18714634 334.7843662 -79 324 C-88.48976021 318.89450901 -100.09503482 318.3526616 -110.50390625 320.8359375 C-117.66093101 323.61663291 -123.34889534 327.87110964 -129 333 C-129.76054687 333.66773438 -130.52109375 334.33546875 -131.3046875 335.0234375 C-146.52428896 349.18977934 -153.85952032 369.07876317 -159.54516602 388.56225586 C-160.31586125 391.1989997 -161.10675235 393.82906586 -161.90039062 396.45898438 C-164.29505627 404.48692465 -166.44709923 412.34987944 -167.62817383 420.66235352 C-168.09100293 423.5721294 -169.03980869 426.21928597 -170 429 C-174.48351659 449.43045644 -174.65260922 471.43124432 -171 492 C-170.79375 493.17175781 -170.5875 494.34351563 -170.375 495.55078125 C-168.18198398 506.7526074 -164.75373277 517.64394944 -159.9140625 527.9921875 C-158.42566731 531.2615684 -157.22720634 534.62518257 -156 538 C-165.84170187 538.5368201 -172.37867224 535.96547224 -180.0546875 529.81640625 C-182.0018693 527.99825457 -183.54414396 526.22956569 -185 524 C-185 523.34 -185 522.68 -185 522 C-185.66 522 -186.32 522 -187 522 C-191.54198753 511.76950383 -194.43395767 502.10876073 -196 491 C-196.0935376 490.3694873 -196.1870752 489.73897461 -196.28344727 489.08935547 C-199.46779618 464.92728407 -196.86217079 439.88167994 -193 416 C-192.74307373 414.32405762 -192.74307373 414.32405762 -192.48095703 412.61425781 C-187.10888477 377.80157822 -178.63805232 342.90712271 -166 310 C-165.53722656 308.77925781 -165.07445312 307.55851562 -164.59765625 306.30078125 C-160.81981635 296.45101284 -156.84495091 286.68516779 -152.8125 276.9375 C-152.55469757 276.31348297 -152.29689514 275.68946594 -152.03128052 275.04653931 C-135.96437196 236.18883756 -117.66289227 195.76224671 -91 163 C-90.09563233 161.83590966 -89.19472953 160.66912122 -88.296875 159.5 C-83.20569094 152.88645208 -77.9461507 146.57281611 -72.26953125 140.44921875 C-70.28619538 138.30885456 -68.35039811 136.14063092 -66.4375 133.9375 C-65.59832031 132.9784375 -65.59832031 132.9784375 -64.7421875 132 C-63.53178154 130.61047567 -62.32919354 129.21411795 -61.1328125 127.8125 C-55.12191058 120.91697477 -48.51632537 114.77073236 -41.81640625 108.5546875 C-35.36215747 102.56314851 -29.24245519 96.38565498 -23.48828125 89.71875 C-20.96118524 86.80031891 -18.74159609 84.42376919 -15.375 82.5 C-12.75168153 80.84316728 -12.23165116 79.75709066 -11 77 C-25.44031262 77.43804296 -37.92342974 78.09705172 -50.625 85.6953125 C-52.7959076 86.88788345 -54.58221155 87.54106793 -57 88 C-56.608125 87.360625 -56.21625 86.72125 -55.8125 86.0625 C-54.39879623 83.67382811 -53.06030257 81.2747125 -51.73828125 78.8359375 C-49.18719348 74.23524196 -46.34297321 69.90189167 -43.375 65.5625 C-39.12878598 59.28930845 -35.08315058 52.93387631 -31.1875 46.4375 C-27.94663164 41.03605273 -24.68097271 35.88858752 -20.53515625 31.1171875 C-19.15628777 29.21554191 -18.22843124 27.48407008 -17.22265625 25.375 C-14.75468624 20.29322806 -11.59519845 15.75403527 -8.375 11.125 C-7.78976562 10.27164063 -7.20453125 9.41828125 -6.6015625 8.5390625 C-2.29161352 2.29161352 -2.29161352 2.29161352 0 0 Z " fill="#9CD9F0" transform="translate(400,210)"/>
<path d="M0 0 C0.99 0.33 1.98 0.66 3 1 C3 1.66 3 2.32 3 3 C3.99 3 4.98 3 6 3 C6.33 3.66 6.66 4.32 7 5 C8.75687802 5.99024034 10.51614234 6.97805252 12.30859375 7.90234375 C14 9 14 9 16 12 C17.051875 12.556875 18.10375 13.11375 19.1875 13.6875 C23.14944523 15.81261823 25.52976315 18.72992063 28.35546875 22.16796875 C30.30496324 24.3397334 32.45210732 25.61024036 35 27 C35 27.66 35 28.32 35 29 C35.66 29 36.32 29 37 29 C38.70044482 30.63218962 40.3602193 32.30687425 42 34 C42.98589034 34.91709198 43.97961402 35.82582544 44.98046875 36.7265625 C52.94058432 43.91399512 60.52835402 51.27856548 67.15234375 59.75390625 C68.803198 62.07103232 68.803198 62.07103232 71 63 C71 63.66 71 64.32 71 65 C71.5775 65.20625 72.155 65.4125 72.75 65.625 C75.80648183 67.49285001 77.0382307 70.02762228 79 73 C80.65893182 74.34294481 82.32476605 75.67744688 84 77 C84.6837045 78.32467746 85.34964186 79.65863633 86 81 C86.845625 81.845625 87.69125 82.69125 88.5625 83.5625 C91 86 91 86 92 89 C92.9590625 89.4640625 92.9590625 89.4640625 93.9375 89.9375 C96.5207942 91.26828792 96.78394327 92.41587946 98 95 C98.70125 95.70125 99.4025 96.4025 100.125 97.125 C102 99 102 99 102 101 C103.485 101.495 103.485 101.495 105 102 C105.33333333 103.33333333 105.66666667 104.66666667 106 106 C107.485 106.495 107.485 106.495 109 107 C109.70151152 108.3153341 110.36525925 109.65117592 111 111 C111.53625 111.53625 112.0725 112.0725 112.625 112.625 C113.07875 113.07875 113.5325 113.5325 114 114 C114 114.66 114 115.32 114 116 C115.485 116.495 115.485 116.495 117 117 C117 117.99 117 118.98 117 120 C117.89525391 120.37511719 117.89525391 120.37511719 118.80859375 120.7578125 C121.30546294 122.17315011 122.41341036 123.54428664 124.0625 125.875 C124.54847656 126.55304688 125.03445313 127.23109375 125.53515625 127.9296875 C126.26025391 128.95449219 126.26025391 128.95449219 127 130 C127.55558594 130.68320313 128.11117187 131.36640625 128.68359375 132.0703125 C130 134 130 134 130 137 C130.59683594 137.24363281 131.19367188 137.48726562 131.80859375 137.73828125 C134.42198827 139.24296294 135.41451624 140.67126905 137.0625 143.1875 C140.07899092 147.67339744 143.21629655 152.03594355 146.4375 156.375 C150.42714012 161.78088477 154.24552383 167.26502519 157.93359375 172.8828125 C159.82469362 175.73554916 161.75729001 178.55232013 163.7097168 181.36303711 C209.78843788 247.76595857 252.32160373 320.79630566 280 397 C280.30325195 397.8259668 280.60650391 398.65193359 280.91894531 399.50292969 C285.54637693 412.2000849 285.54637693 412.2000849 284 416 C282.27270508 417.03320312 282.27270508 417.03320312 280.01953125 417.78125 C279.19106689 418.06403809 278.36260254 418.34682617 277.5090332 418.63818359 C276.61917725 418.92258301 275.72932129 419.20698242 274.8125 419.5 C273.91297607 419.80115723 273.01345215 420.10231445 272.08666992 420.41259766 C265.59699676 422.56022603 259.06038569 424.50536821 252.45703125 426.2734375 C250.07593168 426.76487912 250.07593168 426.76487912 249 428 C247.57072133 428.32960305 246.13063148 428.61261246 244.6875 428.875 C234.57106972 430.57777707 234.57106972 430.57777707 225 434 C223.19129862 434.20379734 221.37763408 434.36500995 219.5625 434.5 C216.43691282 434.73306642 213.98575171 435.00474943 211 436 C199.67080528 437.55651589 188.08133181 437.15254334 176.67626953 437.13037109 C173.34793664 437.12495597 170.01973533 437.13037164 166.69140625 437.13671875 C164.57291637 437.13605889 162.45442657 437.13477964 160.3359375 437.1328125 C158.84542374 437.13584885 158.84542374 437.13584885 157.32479858 437.13894653 C156.40598907 437.13579437 155.48717957 437.13264221 154.54052734 437.12939453 C153.33026382 437.12820114 153.33026382 437.12820114 152.09555054 437.12698364 C150 437 150 437 147 436 C144.60745424 435.77439324 142.21071877 435.59151405 139.8125 435.4375 C138.54019531 435.35371094 137.26789063 435.26992188 135.95703125 435.18359375 C134.98121094 435.12300781 134.00539063 435.06242187 133 435 C132.60266921 426.21683865 133.81935981 418.05420795 135.4375 409.4375 C143.09937758 367.82298844 137.54142365 329.69486944 114.125 293.8125 C112.76841193 291.86206414 111.39174989 289.92550344 110 288 C109.34692871 287.08637695 109.34692871 287.08637695 108.68066406 286.15429688 C102.50058137 277.54374926 95.97694497 269.49901251 88.671875 261.8203125 C86.52238853 259.55141012 84.46080342 257.25479022 82.4375 254.875 C79.49558384 251.48271643 76.40107336 248.2593305 73.25 245.0625 C72.32703125 244.12535156 71.4040625 243.18820312 70.453125 242.22265625 C68.13282979 239.8205885 68.13282979 239.8205885 65 239 C57.22806505 257.54901808 54.63386216 274.64914668 54.5625 294.6875 C54.55310394 295.92682785 54.55310394 295.92682785 54.54351807 297.19119263 C54.48806555 308.77803947 55.61389523 319.66523262 58 331 C58.21229248 332.03753418 58.42458496 333.07506836 58.64331055 334.14404297 C63.97951589 359.08463844 76.18750871 382.61515458 92.53125 402.0390625 C94 404 94 404 94 406 C94.66 406 95.32 406 96 406 C97.43581474 407.61457079 98.80144783 409.29219075 100.125 411 C100.84945312 411.928125 101.57390625 412.85625 102.3203125 413.8125 C103.15175781 414.8953125 103.15175781 414.8953125 104 416 C100.23331402 417.3805087 97.55210827 416.59568159 93.75 415.5625 C92.67234375 415.27503906 91.5946875 414.98757813 90.484375 414.69140625 C89.25460937 414.34916016 89.25460937 414.34916016 88 414 C88 413.34 88 412.68 88 412 C87.12601563 411.90460938 86.25203125 411.80921875 85.3515625 411.7109375 C70.14085012 408.48442275 57.21780806 391.98935253 49.08447266 379.64306641 C48.11162244 378.1691173 47.11029603 376.71405674 46.10546875 375.26171875 C7.65053377 318.05674775 2.82454511 232.4992162 0.4375 165.75 C0.39431641 164.58484863 0.35113281 163.41969727 0.30664062 162.21923828 C0.04697177 154.74963698 -0.097162 147.29290756 0.03686523 139.81933594 C0.08059443 136.48925367 -0.08227089 133.3416911 -0.49581909 130.03259277 C-1.16077326 124.22555805 -1.13989543 118.4502994 -1.12939453 112.61132812 C-1.13114685 111.40217743 -1.13289917 110.19302673 -1.13470459 108.94723511 C-1.1383309 105.65853581 -1.13751117 102.36987729 -1.1343255 99.08117867 C-1.1317805 95.6330164 -1.13414496 92.18485671 -1.13571167 88.73669434 C-1.13752518 82.95694494 -1.13514654 77.17720838 -1.13037109 71.39746094 C-1.12490941 64.70978034 -1.12670817 58.02213013 -1.1321975 51.33445024 C-1.13672745 45.58567815 -1.13738038 39.83691522 -1.13475883 34.08814192 C-1.13319805 30.65706858 -1.13299729 27.22600956 -1.13629532 23.79493713 C-1.13970626 19.98111779 -1.1349864 16.16733294 -1.12939453 12.35351562 C-1.13141876 11.21175873 -1.13344299 10.07000183 -1.13552856 8.89364624 C-1.13270874 7.86192291 -1.12988892 6.83019958 -1.12698364 5.76721191 C-1.1264181 4.41450069 -1.1264181 4.41450069 -1.12584114 3.03446198 C-1 1 -1 1 0 0 Z " fill="#B1E3F6" transform="translate(532,113)"/>
<path d="M0 0 C0.78608643 -0.00006042 1.57217285 -0.00012085 2.38208008 -0.00018311 C20.56712411 0.0193756 38.67224511 0.98763894 56.8125 2.1875 C57.51064819 2.23324158 58.20879639 2.27898315 58.92810059 2.32611084 C65.72173097 2.77153267 72.51400115 3.23424289 79.3046875 3.72265625 C80.37630127 3.79814697 81.44791504 3.8736377 82.55200195 3.95141602 C84.7231553 4.10862345 86.89361289 4.27575908 89.06323242 4.45288086 C102.61624498 5.49072846 116.20457523 5.50796488 129.79077148 5.66430664 C154.48523472 5.96088883 154.48523472 5.96088883 165.8125 8.1875 C167.15163452 8.44430542 167.15163452 8.44430542 168.51782227 8.70629883 C189.62799211 13.05471432 210.26274703 22.89229954 223.375 40.6875 C224.55677271 42.49787521 225.6983918 44.33471613 226.8125 46.1875 C227.35221436 47.0846875 227.35221436 47.0846875 227.90283203 48 C241.01586733 70.18705763 244.99904072 95.68663421 245.0625 121.1875 C245.06550613 122.18027954 245.06550613 122.18027954 245.068573 123.19311523 C245.07755908 135.54182091 244.16311281 147.72467006 242.95019531 160.0065918 C242.1295367 168.33855461 241.55603217 176.62823162 241.3125 185 C240.85889258 198.12597837 239.3826683 210.3770089 229.84375 220.21875 C216.5102776 231.61983509 198.3261933 231.05690398 181.8125 230.1875 C144.29379074 226.72510777 104.97582163 212.28394836 73.8125 191.1875 C73.2138916 190.78563477 72.6152832 190.38376953 71.99853516 189.96972656 C62.7070633 183.68424465 54.1766358 176.65092048 45.8125 169.1875 C45.28914063 168.7219873 44.76578125 168.25647461 44.2265625 167.77685547 C33.73694679 158.40875007 23.64804533 148.78809206 14.88671875 137.76171875 C12.9554873 135.36495505 10.94924693 133.08547717 8.875 130.8125 C-13.41777533 105.95936631 -31.25405946 76.19036288 -46.1875 46.5 C-46.6323877 45.61586426 -47.07727539 44.73172852 -47.53564453 43.82080078 C-57.25191487 24.16904023 -57.25191487 24.16904023 -55.1875 13.1875 C-51.94952814 7.07369788 -46.02413331 4.95896487 -39.73828125 2.9140625 C-38.89652344 2.67429687 -38.05476563 2.43453125 -37.1875 2.1875 C-36.62289062 2.01887451 -36.05828125 1.85024902 -35.4765625 1.67651367 C-24.13718995 -0.74592268 -11.56280655 -0.01390503 0 0 Z " fill="#559DCE" transform="translate(279.1875,761.8125)"/>
<path d="M0 0 C0.33 0 0.66 0 1 0 C1.17156594 5.58319357 1.33764907 11.16653096 1.5 16.75 C1.52400879 17.57045807 1.54801758 18.39091614 1.57275391 19.23623657 C1.87519549 29.70171854 2.1222389 40.15511726 1.96289062 50.62597656 C1.94190244 52.41723746 1.96509537 54.20895623 2 56 C2.33 56.33 2.66 56.66 3 57 C3.12090349 59.55458563 3.17559443 62.08310369 3.18945312 64.63916016 C3.19776626 65.45864576 3.20607939 66.27813137 3.21464443 67.12244987 C3.24172609 69.9279655 3.26147495 72.73348644 3.28125 75.5390625 C3.29916453 77.58598138 3.31745113 79.63289702 3.33607483 81.67980957 C3.38674492 87.42828218 3.43040498 93.17679018 3.47252274 98.92533112 C3.50020199 102.65219688 3.52949998 106.37904659 3.55929565 110.105896 C3.71693805 129.88802356 3.8534357 149.67027081 3.98325634 169.45259857 C4.00024977 172.03799997 4.01734472 174.62340069 4.03446198 177.20880127 C4.68752113 275.9603375 5.10872683 374.70929584 5 532 C-1.55300011 527.65963734 -1.55300011 527.65963734 -4.33984375 525.30078125 C-16.936877 514.82220478 -29.68228274 506.97722073 -45 501 C-46.59134766 500.32130859 -46.59134766 500.32130859 -48.21484375 499.62890625 C-70.91344047 490.53327356 -97.10091661 491.89951848 -121 494 C-119.78493974 490.72397385 -118.4608169 487.98194349 -116.41015625 485.15625 C-115.61919556 484.05132202 -115.61919556 484.05132202 -114.81225586 482.92407227 C-114.23483643 482.12412842 -113.65741699 481.32418457 -113.0625 480.5 C-85.06163098 441.08245174 -57.49575543 398.92676213 -39.73144531 353.82861328 C-39.11096887 352.27742217 -38.44678945 350.74382446 -37.7734375 349.21484375 C-32.92228084 338.12384054 -28.05819903 322.54905448 -31.73046875 310.62890625 C-33.61659695 306.43323331 -35.86668783 303.21084139 -40 301 C-43.63690489 300.73059964 -45.81611047 301.10024396 -48.7578125 303.3359375 C-65.13059976 320.14924819 -69.90262734 351.08364657 -75 373 C-75.33 373 -75.66 373 -76 373 C-75.68139482 361.1200755 -75.07635845 349.31714099 -73.88822937 337.49014282 C-71.78179733 316.27828337 -71.57136806 295.17906177 -71.6774292 273.87884521 C-71.69103213 270.15914543 -71.68564902 266.43956393 -71.68030071 262.71985054 C-71.67694384 259.08042592 -71.68361704 255.44107333 -71.69342995 251.80166245 C-71.69722473 250.09310152 -71.69845454 248.38453255 -71.6968441 246.67596817 C-71.6954439 237.82978399 -71.96734274 229.34398181 -73.54637146 220.6053772 C-74.15232566 217.12513046 -74.27649482 213.78103196 -74.375 210.25 C-74.72783293 201.57113281 -76.14388883 193.10224198 -77.62841797 184.55371094 C-78.47015999 179.65166512 -79.26757027 174.99752218 -79 170 C-76.00796792 172.79126802 -73.9396961 175.54006621 -71.875 179.0625 C-66.31568006 187.9360299 -59.32743868 197.55752044 -49 201 C-44.40232331 201.84010704 -41.10451435 201.47645717 -36.8125 199.625 C-29.96451485 193.23354719 -26.84346352 184.73718789 -24 176 C-23.64035156 175.16210938 -23.28070313 174.32421875 -22.91015625 173.4609375 C-21.50734118 168.12662784 -21.67191672 162.8665489 -21.6875 157.375 C-21.67138672 156.26253906 -21.65527344 155.15007812 -21.63867188 154.00390625 C-21.63468885 147.16106618 -22.43358786 141.14451255 -24.34863281 134.56982422 C-24.96105455 132.15365059 -25.14270706 130.22624327 -25.0625 127.75 C-25.00142891 124.08573463 -25.52214732 121.41430954 -26.5 117.9375 C-27 116 -27 116 -27.4375 112.4375 C-27.95825195 109.25512699 -28.9021642 106.84912672 -30.2421875 103.94140625 C-31.73571413 100.11520659 -32.2748715 96.02849167 -33 92 C-34.11333518 86.01454664 -35.79302569 80.72930677 -38.29296875 75.1640625 C-39 73 -39 73 -38 70 C-38.66 69.67 -39.32 69.34 -40 69 C-39.67 68.34 -39.34 67.68 -39 67 C-39.66 67 -40.32 67 -41 67 C-42.32 62.38 -43.64 57.76 -45 53 C-41.4365367 49.4365367 -38.66456695 46.93648897 -34.625 44.1875 C-30.3727063 41.14770772 -26.96066773 38.09131599 -23.671875 34.04296875 C-22 32 -22 32 -20.078125 29.98828125 C-14.90754366 24.56718725 -11.31869861 18.76798051 -7.76171875 12.234375 C-5.4322163 7.95759444 -3.0831088 3.78381535 0 0 Z " fill="#7DC3E4" transform="translate(515,258)"/>
<path d="M0 0 C1.56488442 1.51809386 3.1069865 3.06003763 4.625 4.625 C5.41648437 5.4190625 6.20796875 6.213125 7.0234375 7.03125 C14.50345411 14.88402492 19.34805202 23.22145445 22.08203125 33.7265625 C22.45711006 35.61891185 22.45711006 35.61891185 23.625 36.625 C25.90826925 45.90807278 25.86796622 55.5009467 25.9375 65 C25.96372437 66.81818237 25.96372437 66.81818237 25.99047852 68.6730957 C25.98327856 80.26581954 23.02861337 87.92729441 15.1875 96.625 C10.14830687 101.56947145 4.0976562 104.02267728 -2.375 106.625 C-3.15085449 106.95749756 -3.92670898 107.28999512 -4.72607422 107.63256836 C-13.8423144 111.04800765 -23.83227389 110.96361535 -33.4375 110.9375 C-34.62666016 110.95361328 -35.81582031 110.96972656 -37.04101562 110.98632812 C-44.65742145 110.99051067 -51.14936678 109.98377807 -58.375 107.625 C-59.63828125 107.27179688 -60.9015625 106.91859375 -62.203125 106.5546875 C-82.94763887 100.16083048 -100.47669516 86.00401595 -115.88427734 71.06884766 C-117.3246267 69.67378934 -118.78119733 68.29553922 -120.23828125 66.91796875 C-127.37741278 60.02118397 -133.47241242 52.57533314 -139.375 44.625 C-139.77992676 44.08617187 -140.18485352 43.54734375 -140.60205078 42.9921875 C-145.30426473 36.68893083 -149.27608157 30.25799306 -152.8125 23.25 C-153.1427417 22.59596191 -153.4729834 21.94192383 -153.81323242 21.26806641 C-158.03127113 12.60237579 -159.58640275 4.25074079 -158.375 -5.375 C-155.2567001 -13.55609098 -148.50410104 -17.94289106 -140.87890625 -21.55859375 C-103.32991299 -36.79020617 -30.86272068 -26.92178865 0 0 Z " fill="#FDFEFE" transform="translate(461.375,824.375)"/>
<path d="M0 0 C0.14823273 12.47928903 -0.17130388 24.81134527 -1.1875 37.25 C-1.25180206 38.0576178 -1.31610413 38.8652356 -1.38235474 39.69732666 C-2.69891787 55.96618587 -4.92310472 71.96841877 -8 88 C-8.24121582 89.27786377 -8.24121582 89.27786377 -8.48730469 90.58154297 C-11.3178515 105.0310783 -16.71251974 122.37062608 -28.98046875 131.46875 C-40.56850792 138.72974358 -55.49746175 139.68221963 -68.70703125 137.34375 C-79.50958683 134.58058253 -90.82464836 129.76235457 -97 120 C-101.24447954 112.68439464 -101.06230162 105.15784183 -99.37890625 96.984375 C-95.42592264 84.12400167 -88.96090042 72.01100594 -80 62 C-79.01 60.83210938 -79.01 60.83210938 -78 59.640625 C-73.679193 54.61093561 -69.07695484 50.24947154 -64 46 C-62.59814453 44.78376953 -62.59814453 44.78376953 -61.16796875 43.54296875 C-52.7557392 36.26580674 -43.97198089 29.56884458 -35 23 C-34.26555664 22.46052734 -33.53111328 21.92105469 -32.77441406 21.36523438 C-24.77776856 15.50125736 -16.72604246 9.7263619 -8.5 4.1875 C-7.87085693 3.76065918 -7.24171387 3.33381836 -6.59350586 2.89404297 C-2.24151132 0 -2.24151132 0 0 0 Z " fill="#CFF1FD" transform="translate(522,93)"/>
<path d="M0 0 C0.99 0.33 1.98 0.66 3 1 C-14.13495931 14.98993514 -34.27322149 25.19691094 -54 35 C-55.28898193 35.64316162 -55.28898193 35.64316162 -56.60400391 36.29931641 C-93.12037863 54.28729804 -139.98330929 71.56257306 -181 71 C-176.64657695 66.51053248 -176.64657695 66.51053248 -174.2734375 64.63671875 C-161.81834141 54.71877186 -154.28792816 39.829519 -147 26 C-146.53577637 25.12504883 -146.07155273 24.25009766 -145.59326172 23.34863281 C-142.70771628 17.91000057 -139.84498561 12.45995112 -137 7 C-136.34 7.33 -135.68 7.66 -135 8 C-142.82960904 26.42144056 -142.82960904 26.42144056 -147.39453125 32.6875 C-149.08956136 35.12900322 -150.54719891 37.66789801 -152.01538086 40.25024414 C-157.71200801 50.19584072 -164.74439821 59.02520099 -173 67 C-129.57235163 63.08881428 -85.33892828 48.01983903 -46.79394531 27.92480469 C-44.98502226 26.99227876 -43.1641264 26.08941875 -41.3359375 25.1953125 C-31.06049825 20.15833248 -21.16607534 14.71807608 -11.83984375 8.06640625 C-10 7 -10 7 -7 7 C-7 6.34 -7 5.68 -7 5 C-6.01 5 -5.02 5 -4 5 C-3.67 4.01 -3.34 3.02 -3 2 C-2.01 2 -1.02 2 0 2 C0 1.34 0 0.68 0 0 Z " fill="#2E77B7" transform="translate(728,923)"/>
<path d="M0 0 C0.33 0 0.66 0 1 0 C1.1765022 12.49987453 1.34231563 24.99987413 1.5 37.5 C1.51187725 38.44108486 1.5237545 39.38216972 1.53599167 40.35177231 C1.91140427 70.33932073 2.09175841 100.32262541 2.0625 130.3125 C2.06164398 131.19636383 2.06078796 132.08022766 2.05990601 132.99087524 C2.04878088 143.66060609 2.02912529 154.33030315 2 165 C-4.55300011 160.65963734 -4.55300011 160.65963734 -7.33984375 158.30078125 C-25.66960231 143.05355811 -46.52995691 132.16340948 -70 127 C-69.505 126.01 -69.505 126.01 -69 125 C-60.19264226 126.07845197 -52.26973497 128.91941157 -44 132 C-44 132.66 -44 133.32 -44 134 C-42.72125 134.20625 -41.4425 134.4125 -40.125 134.625 C-34.47375289 135.86486026 -29.58109647 138.48049373 -25 142 C-25 142.66 -25 143.32 -25 144 C-24.31550781 144.06316406 -23.63101563 144.12632812 -22.92578125 144.19140625 C-18.96551641 145.28589867 -16.37029555 147.40758559 -13.1875 149.9375 C-12.59001953 150.39318359 -11.99253906 150.84886719 -11.37695312 151.31835938 C-9.87410116 152.49144268 -8.4312663 153.74056947 -7 155 C-7 155.66 -7 156.32 -7 157 C-6.071875 157.185625 -6.071875 157.185625 -5.125 157.375 C-3 158 -3 158 -1 160 C-0.37107085 142.31304041 0.10402209 124.63665553 0.125 106.9375 C0.12749756 106.18881653 0.12999512 105.44013306 0.13256836 104.66876221 C0.13838642 102.55907391 0.13701791 100.44953314 0.1328125 98.33984375 C0.13112061 96.53567993 0.13112061 96.53567993 0.12939453 94.69506836 C0.30667929 92.08255164 0.30667929 92.08255164 -1 91 C-1.10246778 88.21693646 -1.13944034 85.45937486 -1.1328125 82.67578125 C-1.13479141 81.36527298 -1.13479141 81.36527298 -1.1368103 80.02828979 C-1.13875067 77.12299228 -1.13232562 74.21778802 -1.125 71.3125 C-1.12367065 69.82926743 -1.12367065 69.82926743 -1.12231445 68.31607056 C-1.09849782 45.5370603 -0.59575582 22.7702309 0 0 Z " fill="#4FA2D1" transform="translate(518,625)"/>
<path d="M0 0 C0.33 0 0.66 0 1 0 C1.17875113 11.33316649 1.34410672 22.66649749 1.5 34 C1.51187725 34.86297321 1.5237545 35.72594643 1.53599167 36.61507034 C1.95091172 67.05642639 2.08915852 97.49346624 2.0625 127.9375 C2.06164398 128.92216248 2.06078796 129.90682495 2.05990601 130.92132568 C2.04866098 142.94756955 2.02880726 154.97378572 2 167 C1.34 167 0.68 167 0 167 C0.33 163.04 0.66 159.08 1 155 C0.34 155 -0.32 155 -1 155 C-1.03090035 141.72917739 -1.05108207 128.45835378 -1.0625 115.1875 C-1.06335602 114.19965515 -1.06421204 113.2118103 -1.06509399 112.19403076 C-1.08655802 84.12537813 -0.96267948 56.06505366 -0.5 28 C-0.48804218 27.27415585 -0.47608437 26.54831169 -0.46376419 25.80047226 C-0.32103619 17.20009272 -0.16730771 8.5999393 0 0 Z " fill="#A0DCF1" transform="translate(517,351)"/>
<path d="M0 0 C3.24049659 5.37153229 2.33674272 11.54716429 2.3125 17.625 C2.31200653 18.30183838 2.31151306 18.97867676 2.31100464 19.67602539 C2.28356631 32.12975532 1.36127006 44.43098745 0.13793945 56.81762695 C-0.68293432 65.15003668 -1.25711231 73.44022423 -1.5 81.8125 C-1.89231615 93.41066299 -2.99606747 103.34593083 -10 113 C-11 110 -11 110 -10.29296875 108.16015625 C-9.74576172 107.12181641 -9.74576172 107.12181641 -9.1875 106.0625 C-4.33289249 95.73361688 -4.52312918 83.78386964 -3.9375 72.5625 C-3.82067993 70.43180881 -3.70196343 68.30123213 -3.58255005 66.17068481 C-3.50397808 64.76602505 -3.42656809 63.36129981 -3.35031128 61.95651245 C-3.1260499 57.90444234 -2.8273975 53.86669534 -2.47265625 49.82421875 C-1.63445146 39.3454394 -1.63418319 28.81191239 -1.44775391 18.30566406 C-1.3962959 15.47972262 -1.33905268 12.65394265 -1.28125 9.828125 C-1.26767456 8.95536926 -1.25409912 8.08261353 -1.2401123 7.18341064 C-1.11307623 1.11307623 -1.11307623 1.11307623 0 0 Z " fill="#1D6BB2" transform="translate(522,865)"/>
<path d="M0 0 C0.99 0.33 1.98 0.66 3 1 C-17.65631934 17.86496959 -53.19475925 42.25455206 -80 46 C-80.66 45.34 -81.32 44.68 -82 44 C-80.93640259 43.56300781 -80.93640259 43.56300781 -79.85131836 43.1171875 C-66.54049591 37.62667557 -53.57283413 32.02077387 -41 25 C-39.27647901 24.13449814 -37.54774744 23.27924483 -35.8125 22.4375 C-27.43509152 18.29054364 -19.44845903 13.49303502 -11.83984375 8.06640625 C-10 7 -10 7 -7 7 C-7 6.34 -7 5.68 -7 5 C-6.01 5 -5.02 5 -4 5 C-3.67 4.01 -3.34 3.02 -3 2 C-2.01 2 -1.02 2 0 2 C0 1.34 0 0.68 0 0 Z " fill="#529ECE" transform="translate(728,923)"/>
<path d="M0 0 C0.99 0.33 1.98 0.66 3 1 C2.67 1.66 2.34 2.32 2 3 C1.9051217 4.62244889 1.87369849 6.24878763 1.87301636 7.87400818 C1.87019653 8.90421585 1.86737671 9.93442352 1.86447144 10.99584961 C1.86649567 12.13086914 1.8685199 13.26588867 1.87060547 14.43530273 C1.86885315 15.62736832 1.86710083 16.8194339 1.86529541 18.04762268 C1.86163934 21.3250114 1.86251019 24.60235996 1.8656745 27.87974811 C1.86820533 31.31526445 1.86585805 34.7507781 1.86428833 38.18629456 C1.86246655 43.96591676 1.86487086 49.74552621 1.86962891 55.52514648 C1.8750484 62.18464834 1.87332582 68.84411948 1.8678025 75.50362056 C1.86324387 81.23117662 1.86263492 86.9587235 1.86524117 92.68628079 C1.86679186 96.10212745 1.86703157 99.51795975 1.86370468 102.93380547 C1.8611493 106.75593981 1.86506035 110.57801641 1.87060547 114.40014648 C1.86858124 115.51694794 1.86655701 116.63374939 1.86447144 117.78439331 C1.88055226 123.80416524 2.15500039 129.71004888 2.79762459 135.69682407 C3.05110086 138.58156405 2.89828857 141.31464221 2.5625 144.1875 C2.46066406 145.10917969 2.35882812 146.03085937 2.25390625 146.98046875 C2.12822266 147.98013672 2.12822266 147.98013672 2 149 C1.67 149 1.34 149 1 149 C-0.09517132 133.27682927 -0.13403299 117.57671001 -0.10139394 101.82273316 C-0.09504691 98.2300246 -0.09454779 94.63731475 -0.09336853 91.04460144 C-0.09028809 84.27369331 -0.0821201 77.50280177 -0.07201904 70.73190087 C-0.06075443 63.00972316 -0.05532166 55.28754457 -0.05032361 47.56536067 C-0.03993386 31.71023092 -0.02239967 15.85511761 0 0 Z " fill="#DCF4FD" transform="translate(530,111)"/>
<path d="M0 0 C-0.33 0.66 -0.66 1.32 -1 2 C-2.66584322 2.33742445 -4.33272293 2.66973337 -6 3 C-8.27408986 3.9856294 -10.5093358 5.00688022 -12.75 6.0625 C-27.28899289 12.64196356 -42.8076769 17.08038013 -58.25 21 C-59.06500977 21.2077002 -59.88001953 21.41540039 -60.71972656 21.62939453 C-64.55610658 22.56197266 -68.01929595 23.25476506 -72 23 C-72.33 23.66 -72.66 24.32 -73 25 C-75.71446979 25.31241455 -78.33909361 25.51336592 -81.0625 25.625 C-82.20041992 25.68300781 -82.20041992 25.68300781 -83.36132812 25.7421875 C-85.24047195 25.83673562 -87.12020336 25.91946756 -89 26 C-89 26.66 -89 27.32 -89 28 C-90.98 27.67 -92.96 27.34 -95 27 C-92.08569803 24.08569803 -88.74621183 24.335394 -84.8125 23.875 C-59.20595341 20.44661837 -32.72824902 12.74721234 -9.375 1.765625 C-8.570625 1.38921875 -7.76625 1.0128125 -6.9375 0.625 C-6.24527344 0.28726563 -5.55304688 -0.05046875 -4.83984375 -0.3984375 C-3 -1 -3 -1 0 0 Z " fill="#9EDAF0" transform="translate(825,546)"/>
<path d="M0 0 C3.22292588 3.17777105 6.32144423 6.41587735 9.3125 9.8125 C10.00988281 10.60269531 10.70726562 11.39289063 11.42578125 12.20703125 C12.20501953 13.09455078 12.20501953 13.09455078 13 14 C12.67 14.66 12.34 15.32 12 16 C6.125 11.375 6.125 11.375 5 8 C4.01 7.67 3.02 7.34 2 7 C2.01160156 7.59425781 2.02320313 8.18851562 2.03515625 8.80078125 C2.10546296 15.25895513 1.68350916 21.57989613 1 28 C1.66 28 2.32 28 3 28 C3 39.22 3 50.44 3 62 C2.01 62.495 2.01 62.495 1 63 C0.21132446 41.9889285 -0.14271698 21.02550407 0 0 Z " fill="#9FD8EE" transform="translate(538,499)"/>
<path d="M0 0 C10.77531944 9.52919406 14.9016363 25.50734744 18 39 C18.24492188 39.9796875 18.48984375 40.959375 18.7421875 41.96875 C20.13367307 47.99216698 20.21090206 53.83697304 20 60 C19.34 59.67 18.68 59.34 18 59 C17.46923828 56.8737793 17.46923828 56.8737793 17.0703125 54.07421875 C16.9165918 53.05497314 16.76287109 52.03572754 16.60449219 50.9855957 C16.44625977 49.89722412 16.28802734 48.80885254 16.125 47.6875 C14.92684704 39.90007848 13.66485618 32.60700527 10.734375 25.26953125 C9.91456957 22.73598361 9.86839046 20.64629188 10 18 C9.34 18 8.68 18 8 18 C7.15930585 16.39967863 6.32768495 14.79458829 5.5 13.1875 C5.0359375 12.29417969 4.571875 11.40085937 4.09375 10.48046875 C3 8 3 8 3 5 C2.34 5 1.68 5 1 5 C0.67 3.35 0.34 1.7 0 0 Z " fill="#3E8BC3" transform="translate(502,804)"/>
<path d="M0 0 C0.33 0 0.66 0 1 0 C2.19388403 51.15920082 2.19388403 51.15920082 2 71 C1.34 71 0.68 71 0 71 C0.33 67.04 0.66 63.08 1 59 C0.34 59 -0.32 59 -1 59 C-1.02312851 51.45501767 -1.04091769 43.91003899 -1.05181217 36.36502934 C-1.05703989 32.86191115 -1.0641355 29.35881715 -1.07543945 25.85571289 C-1.08834206 21.83219159 -1.09322912 17.80869586 -1.09765625 13.78515625 C-1.10539818 11.88987938 -1.10539818 11.88987938 -1.11329651 9.95631409 C-1.11337204 8.795186 -1.11344757 7.63405792 -1.11352539 6.43774414 C-1.11685631 4.8955294 -1.11685631 4.8955294 -1.12025452 3.32215881 C-1 1 -1 1 0 0 Z " fill="#8DD2ED" transform="translate(517,447)"/>
<path d="M0 0 C0.33 0 0.66 0 1 0 C1 22.11 1 44.22 1 67 C-1 65 -1 65 -1.21118164 62.72290039 C-1.19434326 61.77406982 -1.17750488 60.82523926 -1.16015625 59.84765625 C-1.14855469 58.77298096 -1.13695312 57.69830566 -1.125 56.59106445 C-1.104375 55.42663818 -1.08375 54.26221191 -1.0625 53.0625 C-0.92551636 39.01692001 -1.37177249 25.02985745 -2 11 C-2.99 11.66 -3.98 12.32 -5 13 C-4.54554036 11.58208592 -4.08625056 10.16571954 -3.625 8.75 C-3.24214844 7.56664062 -3.24214844 7.56664062 -2.8515625 6.359375 C-2.04826333 4.13372042 -1.10288338 2.09068328 0 0 Z " fill="#C5ECFA" transform="translate(517,248)"/>
<path d="M0 0 C2.22763399 3.57679552 2.24485877 6.51673896 2.23046875 10.6796875 C2.23001053 11.32890167 2.22955231 11.97811584 2.2290802 12.64700317 C2.22606357 14.02380191 2.21819483 15.40059741 2.20581055 16.77734375 C2.18786257 18.83346378 2.18529914 20.88912324 2.18554688 22.9453125 C2.16151821 31.66732541 1.73894693 40.30780728 1 49 C-1.09872094 45.8519186 -1.24939115 45.13077319 -1.24291992 41.54443359 C-1.24753487 40.19821426 -1.24753487 40.19821426 -1.25224304 38.82479858 C-1.24505753 37.85909943 -1.23787201 36.89340027 -1.23046875 35.8984375 C-1.23001053 34.90623199 -1.22955231 33.91402649 -1.2290802 32.89175415 C-1.22605937 30.79533695 -1.21817811 28.69892196 -1.20581055 26.60253906 C-1.18753279 23.38077922 -1.18530101 20.15930632 -1.18554688 16.9375 C-1.18063253 14.90364333 -1.17480458 12.86978862 -1.16796875 10.8359375 C-1.16685593 9.86618988 -1.1657431 8.89644226 -1.16459656 7.89730835 C-1.15821671 7.00613312 -1.15183685 6.11495789 -1.14526367 5.19677734 C-1.14145187 4.4086264 -1.13764008 3.62047546 -1.13371277 2.80844116 C-1 1 -1 1 0 0 Z " fill="#4383BE" transform="translate(522,865)"/>
<path d="M0 0 C0.66 0.33 1.32 0.66 2 1 C3.12687432 24.88347514 -2.43809235 48.52363038 -15 69 C-15.90154464 66.53872783 -16.17466729 65.41712783 -15.14453125 62.95703125 C-14.70496094 62.24933594 -14.26539063 61.54164063 -13.8125 60.8125 C-9.8782724 54.13524148 -6.93171274 47.77178291 -5.4375 40.140625 C-5.01856761 38.09084864 -4.48049864 36.12650938 -3.875 34.125 C-2.86518504 31.05938278 -2.86518504 31.05938278 -3 28 C-2.34 28 -1.68 28 -1 28 C-1.33 26.02 -1.66 24.04 -2 22 C-1.34 22 -0.68 22 0 22 C-0.185625 20.783125 -0.37125 19.56625 -0.5625 18.3125 C-0.99179991 14.90195071 -0.73883471 12.36580255 0 9 C0.09158278 5.99812011 0.05887009 3.00237467 0 0 Z " fill="#6CBDE1" transform="translate(421,624)"/>
<path d="M0 0 C6.16329786 -0.3217106 11.53576817 0.89917009 17.5 2.375 C26.31265398 4.47679659 34.98846684 6.05954405 44 7 C44 7.66 44 8.32 44 9 C35.96814917 9.32979116 28.70622256 8.42832591 20.875 6.6875 C19.85535156 6.47416016 18.83570313 6.26082031 17.78515625 6.04101562 C11.69266774 4.73101328 5.87339806 3.08194256 0 1 C0 0.67 0 0.34 0 0 Z " fill="#3178B8" transform="translate(421,982)"/>
<path d="M0 0 C0.66 0 1.32 0 2 0 C-0.15167498 4.95410045 -3.20162321 6.74319667 -8 9 C-19.37465484 13.29678282 -30.02058785 13.46421834 -42 13 C-41.67 12.34 -41.34 11.68 -41 11 C-39.02563477 10.63696289 -39.02563477 10.63696289 -36.44140625 10.47265625 C-35.49716797 10.40240234 -34.55292969 10.33214844 -33.58007812 10.25976562 C-31.60361965 10.13056025 -29.62705956 10.00289783 -27.65039062 9.87695312 C-19.01015561 9.23024639 -11.3799978 7.69636224 -4 3 C-3.01 3 -2.02 3 -1 3 C-0.67 2.01 -0.34 1.02 0 0 Z " fill="#2971B4" transform="translate(508,979)"/>
<path d="M0 0 C-1 3 -1 3 -3.41748047 4.47045898 C-4.47338379 4.97391846 -5.52928711 5.47737793 -6.6171875 5.99609375 C-7.7825 6.55490234 -8.9478125 7.11371094 -10.1484375 7.68945312 C-10.76170898 7.97699463 -11.37498047 8.26453613 -12.00683594 8.56079102 C-13.83840386 9.42032583 -15.66176166 10.2954931 -17.484375 11.17382812 C-24.53384686 14.52502673 -31.60317622 17.50444669 -39 20 C-39.66 19.34 -40.32 18.68 -41 18 C-40.28046143 17.70343506 -39.56092285 17.40687012 -38.81958008 17.10131836 C-21.1046711 9.89226755 -21.1046711 9.89226755 -4.125 1.14453125 C-2 0 -2 0 0 0 Z " fill="#4A92C7" transform="translate(687,949)"/>
<path d="M0 0 C0.66 0 1.32 0 2 0 C-2.85222422 13.39027262 -16.12333003 25.72075066 -28 33 C-29.6489706 33.70930824 -31.31151962 34.390692 -33 35 C-33 34.34 -33 33.68 -33 33 C-31.1640625 31.58984375 -31.1640625 31.58984375 -28.625 29.9375 C-19.00909487 23.38615387 -10.86168855 15.62549301 -4.25 6.0625 C-3.5075 5.051875 -2.765 4.04125 -2 3 C-1.34 3 -0.68 3 0 3 C0 2.01 0 1.02 0 0 Z " fill="#67B7DD" transform="translate(403,693)"/>
<path d="M0 0 C0.33 0 0.66 0 1 0 C1.33 12.54 1.66 25.08 2 38 C2.33 37.34 2.66 36.68 3 36 C3.66 36 4.32 36 5 36 C4.26309887 42.48472993 2.64681249 48.69239743 1 55 C0.67 55 0.34 55 0 55 C0 36.85 0 18.7 0 0 Z " fill="#4697CA" transform="translate(545,734)"/>
<path d="M0 0 C0.33 0 0.66 0 1 0 C0.41753353 9.25920831 -0.39926568 18.98671978 -7 26 C-7.7115625 27.2375 -7.7115625 27.2375 -8.4375 28.5 C-11.71430547 33.74288875 -14.994229 36.46363998 -21 38 C-20.319375 37.34 -19.63875 36.68 -18.9375 36 C-17.95345289 35.00480221 -16.97486987 34.00418927 -16 33 C-15.43410156 32.41863281 -14.86820312 31.83726562 -14.28515625 31.23828125 C-7.22076543 23.61739574 -3.83877421 15.64732451 -1.578125 5.56640625 C-1 3 -1 3 0 0 Z " fill="#78C3E4" transform="translate(364,676)"/>
<path d="M0 0 C1.48239802 0.05340074 2.96482007 0.10613881 4.44726562 0.15820312 C8.02765213 0.28535962 11.60763342 0.42137895 15.1875 0.5625 C15.1875 1.2225 15.1875 1.8825 15.1875 2.5625 C-16.13290447 2.76888953 -16.13290447 2.76888953 -29.8125 1.5625 C-29.8125 1.2325 -29.8125 0.9025 -29.8125 0.5625 C-19.79723071 -0.47842806 -10.03287043 -0.39804878 0 0 Z " fill="#90D4ED" transform="translate(714.8125,547.4375)"/>
<path d="M0 0 C0.94333132 3.00616723 1.01445067 4.90944198 0.19555664 7.94238281 C-0.00472641 8.70286926 -0.20500946 9.46335571 -0.41136169 10.24688721 C-0.63526077 11.05744568 -0.85915985 11.86800415 -1.08984375 12.703125 C-1.31321915 13.54091492 -1.53659454 14.37870483 -1.76673889 15.24188232 C-2.48134303 17.91376258 -3.20922446 20.5818174 -3.9375 23.25 C-4.4247077 25.06226377 -4.91104634 26.87476141 -5.39648438 28.6875 C-6.58759379 33.12777546 -7.79062241 37.56466695 -9 42 C-9.33 42 -9.66 42 -10 42 C-10.60199127 34.62560689 -8.57876628 28.12530279 -6.58203125 21.10107422 C-5.56767553 17.43935218 -4.66136254 13.75095455 -3.75 10.0625 C-3.57500977 9.35802734 -3.40001953 8.65355469 -3.21972656 7.92773438 C-2.81202308 6.28543586 -2.40583336 4.64276165 -2 3 C-1.34 3 -0.68 3 0 3 C0 2.01 0 1.02 0 0 Z " fill="#64A5D1" transform="translate(633,800)"/>
<path d="M0 0 C11.22 0 22.44 0 34 0 C33.67 0.66 33.34 1.32 33 2 C31.64805542 2.03758423 31.64805542 2.03758423 30.26879883 2.07592773 C26.85986391 2.17221546 23.45103508 2.27136027 20.04223633 2.37231445 C18.57905218 2.41509012 17.11583619 2.45679271 15.65258789 2.49731445 C6.40829705 2.7541884 -2.78389325 3.18596218 -12 4 C-11.67 3.01 -11.34 2.02 -11 1 C-7.37 1.33 -3.74 1.66 0 2 C0 1.34 0 0.68 0 0 Z " fill="#52A6D4" transform="translate(406,748)"/>
<path d="M0 0 C-0.33 0.66 -0.66 1.32 -1 2 C-3.16981833 2.53583031 -5.36295593 2.97847562 -7.5625 3.375 C-17.53798168 5.25089666 -17.53798168 5.25089666 -24.875 11.75 C-25.24625 12.4925 -25.6175 13.235 -26 14 C-26.66 14 -27.32 14 -28 14 C-27.91621094 14.61488281 -27.83242187 15.22976563 -27.74609375 15.86328125 C-27.64425781 16.67152344 -27.54242188 17.47976563 -27.4375 18.3125 C-27.28087891 19.51326172 -27.28087891 19.51326172 -27.12109375 20.73828125 C-27 23 -27 23 -28 26 C-29.85573758 24.14426242 -29.38617687 21.37341774 -29.5 18.875 C-29.44505974 14.31495812 -29.32649615 11.36117838 -26.1875 7.9375 C-21.73534296 4.27582799 -16.48095871 2.56119191 -11 1 C-10.30777344 0.80277344 -9.61554688 0.60554687 -8.90234375 0.40234375 C-5.94234097 -0.2236938 -3.01247353 -0.05793218 0 0 Z " fill="#8FD2EC" transform="translate(253,763)"/>
<path d="M0 0 C1.485 0.99 1.485 0.99 3 2 C-14.01716875 8.73123564 -14.01716875 8.73123564 -21.875 11.5 C-22.77992188 11.8196875 -23.68484375 12.139375 -24.6171875 12.46875 C-27.1639764 13.03655867 -28.56546633 12.86057934 -31 12 C-28.00418142 10.00278761 -25.48509618 9.02398914 -22.08984375 7.87109375 C-20.93548828 7.47599609 -19.78113281 7.08089844 -18.59179688 6.67382812 C-16.78291992 6.0618457 -16.78291992 6.0618457 -14.9375 5.4375 C-12.55039199 4.62484043 -10.16365364 3.81109394 -7.77734375 2.99609375 C-6.71765381 2.63700928 -5.65796387 2.2779248 -4.56616211 1.90795898 C-2.05444508 1.07858072 -2.05444508 1.07858072 0 0 Z " fill="#3A84BF" transform="translate(645,967)"/>
<path d="M0 0 C4.57985872 6.86978808 1.87270191 18.08334695 1 26 C0.34 26 -0.32 26 -1 26 C-1 32.6 -1 39.2 -1 46 C-1.33 46 -1.66 46 -2 46 C-2.27380247 30.54537149 -1.52306778 15.38055415 0 0 Z " fill="#276FB4" transform="translate(520,908)"/>
<path d="M0 0 C0.99 0.33 1.98 0.66 3 1 C0.11253126 3.88746874 -3.41751293 4.47716543 -7.25 5.5625 C-8.00152344 5.78357422 -8.75304687 6.00464844 -9.52734375 6.23242188 C-16.92295536 8.36850167 -23.69412708 9.14212627 -31.375 9.0625 C-32.62216797 9.05573242 -32.62216797 9.05573242 -33.89453125 9.04882812 C-35.92971897 9.03713164 -37.96486923 9.01919935 -40 9 C-40 8.67 -40 8.34 -40 8 C-33.565 7.505 -33.565 7.505 -27 7 C-27 6.67 -27 6.34 -27 6 C-25.824375 6.04125 -24.64875 6.0825 -23.4375 6.125 C-19.33772219 6.1394613 -15.93310779 5.16536527 -12 4 C-8.5625 3.875 -8.5625 3.875 -6 4 C-5.67 3.34 -5.34 2.68 -5 2 C-4.01 1.67 -3.02 1.34 -2 1 C-1.34 1.33 -0.68 1.66 0 2 C0 1.34 0 0.68 0 0 Z " fill="#6DBFE2" transform="translate(355,733)"/>
<path d="M0 0 C0.33 0 0.66 0 1 0 C1.04898437 0.85464844 1.09796875 1.70929687 1.1484375 2.58984375 C1.22320312 3.69457031 1.29796875 4.79929687 1.375 5.9375 C1.44460938 7.03964844 1.51421875 8.14179687 1.5859375 9.27734375 C1.72257812 10.17582031 1.85921875 11.07429687 2 12 C2.66 12.33 3.32 12.66 4 13 C3.38578278 16.10640135 2.75677646 19.20962625 2.125 22.3125 C1.95097656 23.19357422 1.77695312 24.07464844 1.59765625 24.98242188 C1.42363281 25.82998047 1.24960937 26.67753906 1.0703125 27.55078125 C0.91320801 28.33106689 0.75610352 29.11135254 0.59423828 29.9152832 C0 32 0 32 -2 35 C-1.85885325 31.22897636 -1.7111987 27.4582328 -1.5625 23.6875 C-1.52318359 22.63498047 -1.48386719 21.58246094 -1.44335938 20.49804688 C-1.16901636 13.63947152 -0.69319348 6.82901897 0 0 Z " fill="#7DC8E7" transform="translate(441,596)"/>
<path d="M0 0 C2 1 2 1 2.9296875 3.40625 C3.39761719 4.93765625 3.39761719 4.93765625 3.875 6.5 C5.34784137 11.12110823 7.01677822 15.48909165 9.05078125 19.88671875 C10.53787925 23.19750071 11.75998913 26.5899701 13 30 C10.36 30 7.72 30 5 30 C4.67 29.34 4.34 28.68 4 28 C5.65 27.67 7.3 27.34 9 27 C8.76289307 26.43079834 8.52578613 25.86159668 8.28149414 25.27514648 C7.20014461 22.66597009 6.13126199 20.05185626 5.0625 17.4375 C4.50272461 16.09461914 4.50272461 16.09461914 3.93164062 14.72460938 C1.91583139 9.76680828 0.46151247 5.3403586 0 0 Z " fill="#8AD1EC" transform="translate(231,718)"/>
<path d="M0 0 C0.66 0.33 1.32 0.66 2 1 C-6.03939888 19.91503239 -6.03939888 19.91503239 -12 28 C-12.33 28.66 -12.66 29.32 -13 30 C-13.66 30 -14.32 30 -15 30 C-13.58501785 26.32765496 -11.97296011 22.81718891 -10.21484375 19.296875 C-9.68439453 18.2346875 -9.15394531 17.1725 -8.60742188 16.078125 C-7.78081055 14.43070313 -7.78081055 14.43070313 -6.9375 12.75 C-6.38255859 11.63625 -5.82761719 10.5225 -5.25585938 9.375 C-4.72669922 8.31796875 -4.19753906 7.2609375 -3.65234375 6.171875 C-3.16757568 5.2034668 -2.68280762 4.23505859 -2.18334961 3.23730469 C-1 1 -1 1 0 0 Z " fill="#4586BF" transform="translate(591,930)"/>
<path d="M0 0 C8.80735774 1.07845197 16.73026503 3.91941157 25 7 C25 7.66 25 8.32 25 9 C25.99 9 26.98 9 28 9 C28 9.66 28 10.32 28 11 C22.71913118 9.48790741 17.52233249 7.85965073 12.375 5.9375 C7.95597997 4.2968681 3.59546333 3.04048226 -1 2 C-0.67 1.34 -0.34 0.68 0 0 Z " fill="#5CA5D2" transform="translate(449,750)"/>
<path d="M0 0 C2.31328453 2.83750926 3.67978857 5.39579923 4.8671875 8.8515625 C5.19589844 9.78613281 5.52460937 10.72070312 5.86328125 11.68359375 C6.19714844 12.65425781 6.53101563 13.62492187 6.875 14.625 C9.20167624 21.38431634 11.71527599 27.73405334 15.14892578 34.01708984 C15.42978027 34.6714502 15.71063477 35.32581055 16 36 C15.67 36.66 15.34 37.32 15 38 C14.71125 37.195625 14.4225 36.39125 14.125 35.5625 C13.26737432 32.8673532 13.26737432 32.8673532 11 32 C8.73236372 28.05628472 7.26930833 24.01906247 5.89453125 19.7109375 C4.37718487 15.1125166 2.66560028 10.58118307 0.98828125 6.0390625 C0 3 0 3 0 0 Z " fill="#9AD9EF" transform="translate(590,452)"/>
<path d="M0 0 C5.06623768 4.23816537 9.80038069 8.67408963 14.4375 13.375 C15.07365234 14.01566406 15.70980469 14.65632812 16.36523438 15.31640625 C17.91250332 16.87530879 19.45736492 18.43651416 21 20 C20.34 20.66 19.68 21.32 19 22 C12.4 15.4 5.8 8.8 -1 2 C-0.67 1.34 -0.34 0.68 0 0 Z " fill="#69B1D9" transform="translate(302,906)"/>
<path d="M0 0 C0.66 0 1.32 0 2 0 C0.5033316 9.42901093 -2.70893126 18.07892687 -6 27 C-6.66 26.67 -7.32 26.34 -8 26 C-6.75971762 19.82777121 -5.10396411 13.93317878 -3 8 C-2.34 8 -1.68 8 -1 8 C-1.33 7.01 -1.66 6.02 -2 5 C-1.0625 2.3125 -1.0625 2.3125 0 0 Z " fill="#4F9BCC" transform="translate(557,743)"/>
<path d="M0 0 C6.06216474 1.19078236 11.17931047 2.99985337 16 7 C16 7.66 16 8.32 16 9 C16.70125 9.0825 17.4025 9.165 18.125 9.25 C21.6903452 10.18009005 24.09015572 11.76686369 27 14 C27 14.66 27 15.32 27 16 C24.05047842 15.39091709 21.88513968 14.47935102 19.35546875 12.85546875 C18.67806641 12.42556641 18.00066406 11.99566406 17.30273438 11.55273438 C16.60470703 11.10220703 15.90667969 10.65167969 15.1875 10.1875 C10.19017365 6.99202653 5.17455896 3.90181149 0 1 C0 0.67 0 0.34 0 0 Z " fill="#4C9ACC" transform="translate(477,760)"/>
<path d="M0 0 C0.94101562 0.00322266 1.88203125 0.00644531 2.8515625 0.00976562 C3.83640625 0.01814453 4.82125 0.02652344 5.8359375 0.03515625 C6.82851563 0.03966797 7.82109375 0.04417969 8.84375 0.04882812 C11.2995391 0.0606348 13.75520854 0.07710225 16.2109375 0.09765625 C16.7059375 1.58265625 16.7059375 1.58265625 17.2109375 3.09765625 C16.62828125 3.0819458 16.045625 3.06623535 15.4453125 3.05004883 C2.94985082 2.75902835 -8.60388059 3.1648331 -20.7890625 6.09765625 C-20.7890625 5.43765625 -20.7890625 4.77765625 -20.7890625 4.09765625 C-16.80309078 2.16896026 -13.12852401 1.70208249 -8.77734375 1.34375 C-5.59668549 0.95007324 -3.36058128 -0.02024447 0 0 Z " fill="#79CAE9" transform="translate(725.7890625,637.90234375)"/>
<path d="M0 0 C-3.29959043 7.69904433 -11.07044807 13.61599776 -18 18 C-18.66 18 -19.32 18 -20 18 C-20 17.34 -20 16.68 -20 16 C-18.6015625 14.84375 -18.6015625 14.84375 -16.625 13.5 C-11.93616622 10.13408718 -8.07464063 6.14644945 -4.1015625 1.9765625 C-2 0 -2 0 0 0 Z " fill="#7DCBE9" transform="translate(826,823)"/>
<path d="M0 0 C1.32 0 2.64 0 4 0 C4 0.66 4 1.32 4 2 C4.99 2 5.98 2 7 2 C7.33 2.66 7.66 3.32 8 4 C8.99 4.33 9.98 4.66 11 5 C12.39453125 6.453125 12.39453125 6.453125 13.8125 8.25 C16.60139694 11.64001257 19.55230533 14.29109704 23 17 C22.34 17.66 21.68 18.32 21 19 C20.23816406 18.20335937 19.47632813 17.40671875 18.69140625 16.5859375 C13.32349864 11.05148175 8.20469238 5.99005446 1.546875 1.98828125 C1.03640625 1.66214844 0.5259375 1.33601562 0 1 C0 0.67 0 0.34 0 0 Z " fill="#4A94C8" transform="translate(450,816)"/>
<path d="M0 0 C5.63624342 -0.23952163 10.48573392 0.61720415 15.9375 2 C16.71673828 2.19078125 17.49597656 2.3815625 18.29882812 2.578125 C20.20099248 3.0449138 22.10076009 3.52145136 24 4 C19.69196718 6.68122322 16.67106554 5.69470501 11.90625 4.71484375 C7.84654333 3.71628687 3.91878322 2.45140119 0 1 C0 0.67 0 0.34 0 0 Z " fill="#3B83BE" transform="translate(421,982)"/>
<path d="M0 0 C4.67556305 7.01334457 4.27913561 15.84303706 4 24 C3.34 23.67 2.68 23.34 2 23 C0.31427048 15.42462289 -0.26690797 7.74033115 0 0 Z " fill="#3581BE" transform="translate(518,840)"/>
<path d="M0 0 C0.66 0.33 1.32 0.66 2 1 C2 1.66 2 2.32 2 3 C4.65228812 4.07525194 7.28368454 5.09456151 10 6 C10 6.66 10 7.32 10 8 C10.99 8.268125 11.98 8.53625 13 8.8125 C17.09612784 9.976839 21.02843633 11.46711578 25 13 C25 13.33 25 13.66 25 14 C19.65325125 13.48036713 15.73358554 12.20598829 10.875 9.75 C9.69679688 9.16734375 8.51859375 8.5846875 7.3046875 7.984375 C3.86873297 5.92117772 1.67931895 3.93208488 -1 1 C-0.67 0.67 -0.34 0.34 0 0 Z " fill="#81CDE9" transform="translate(270,724)"/>
<path d="M0 0 C0.66 0 1.32 0 2 0 C3.875 2.046875 3.875 2.046875 6 4.75 C6.70125 5.63171875 7.4025 6.5134375 8.125 7.421875 C9.69307683 9.57798064 10.91326484 11.57748621 12 14 C8.14154952 11.65137797 5.84661863 10.11938002 4 6 C3.01 5.67 2.02 5.34 1 5 C1 8.3 1 11.6 1 15 C0.67 15 0.34 15 0 15 C0 10.05 0 5.1 0 0 Z " fill="#89D1EC" transform="translate(539,501)"/>
<path d="M0 0 C2.83556803 2.83556803 3.77445029 6.30375868 5.125 10 C5.54072266 11.10601563 5.54072266 11.10601563 5.96484375 12.234375 C8 17.72829433 8 17.72829433 8 20 C7.01 19.67 6.02 19.34 5 19 C4 16.375 4 16.375 3 13 C2.484375 11.80375 1.96875 10.6075 1.4375 9.375 C-0.62469136 4.53333333 -0.62469136 4.53333333 -1 2 C-0.67 1.34 -0.34 0.68 0 0 Z " fill="#5CA6D3" transform="translate(691,851)"/>
<path d="M0 0 C0.66 0 1.32 0 2 0 C0.65731932 3.591189 -0.94800275 6.78716992 -2.9375 10.0625 C-3.44152344 10.89910156 -3.94554687 11.73570312 -4.46484375 12.59765625 C-5.8841524 14.81871176 -7.38779862 16.91616956 -9 19 C-9.33 18.01 -9.66 17.02 -10 16 C-8.8203125 13.84375 -8.8203125 13.84375 -7.125 11.5 C-5.26770381 8.90842392 -4.01516762 7.04550286 -3 4 C-2.34 4 -1.68 4 -1 4 C-0.67 2.68 -0.34 1.36 0 0 Z " fill="#5AA6D3" transform="translate(573,712)"/>
<path d="M0 0 C0 0.33 0 0.66 0 1 C-1.65 1 -3.3 1 -5 1 C-5.33 1.66 -5.66 2.32 -6 3 C-8.71446979 3.31241455 -11.33909361 3.51336592 -14.0625 3.625 C-14.82111328 3.66367187 -15.57972656 3.70234375 -16.36132812 3.7421875 C-18.24047195 3.83673562 -20.12020336 3.91946756 -22 4 C-22 4.66 -22 5.32 -22 6 C-24.97 5.505 -24.97 5.505 -28 5 C-25.67642598 2.67642598 -24.81059988 2.61118394 -21.640625 2.1484375 C-20.33738281 1.95507812 -20.33738281 1.95507812 -19.0078125 1.7578125 C-18.09773437 1.63148438 -17.18765625 1.50515625 -16.25 1.375 C-15.35539063 1.2409375 -14.46078125 1.106875 -13.5390625 0.96875 C-8.98879857 0.31104223 -4.611029 -0.16795139 0 0 Z " fill="#8DD3ED" transform="translate(758,568)"/>
<path d="M0 0 C-0.33 0.66 -0.66 1.32 -1 2 C-2.66255036 2.35329195 -4.33028463 2.68229027 -6 3 C-9.05747225 4.24006521 -12.05420396 5.58690561 -15.0625 6.94140625 C-17.95170958 7.98259747 -19.96332216 8.21770301 -23 8 C-20.36667267 6.24444845 -18.17203748 5.19229399 -15.25 4.0625 C-12.13858738 2.85427262 -9.08872702 1.5941471 -6.0625 0.1875 C-3 -1 -3 -1 0 0 Z " fill="#ADE0F3" transform="translate(825,546)"/>
<path d="M0 0 C2.97 0.495 2.97 0.495 6 1 C6 1.66 6 2.32 6 3 C11.445 4.485 11.445 4.485 17 6 C17 6.66 17 7.32 17 8 C17.66 8.33 18.32 8.66 19 9 C14.01400883 8.46199791 10.48164295 6.88255471 6.125 4.4375 C4.97257812 3.79683594 3.82015625 3.15617188 2.6328125 2.49609375 C1.76398438 2.00238281 0.89515625 1.50867188 0 1 C0 0.67 0 0.34 0 0 Z " fill="#4794C8" transform="translate(372,963)"/>
<path d="M0 0 C3.95092059 -0.07409401 7.90157294 -0.12857406 11.85302734 -0.16479492 C13.85919374 -0.18732251 15.86516526 -0.2254357 17.87109375 -0.26367188 C19.12792969 -0.27333984 20.38476562 -0.28300781 21.6796875 -0.29296875 C22.84226074 -0.3086792 24.00483398 -0.32438965 25.20263672 -0.34057617 C26.1257666 -0.22818604 27.04889648 -0.1157959 28 0 C28.66 0.99 29.32 1.98 30 3 C28.02 3 26.04 3 24 3 C24 2.67 24 2.34 24 2 C16.08 1.67 8.16 1.34 0 1 C0 0.67 0 0.34 0 0 Z " fill="#69B1D9" transform="translate(342,796)"/>
<path d="M0 0 C0.99 0.33 1.98 0.66 3 1 C1.0862931 2.46236093 -0.83075233 3.91994246 -2.75 5.375 C-3.55824219 5.99375 -3.55824219 5.99375 -4.3828125 6.625 C-7.14944813 8.71684645 -9.8209088 10.59564418 -13 12 C-13.66 11.34 -14.32 10.68 -15 10 C-10.375 7 -10.375 7 -7 7 C-7 6.34 -7 5.68 -7 5 C-6.01 5 -5.02 5 -4 5 C-3.67 4.01 -3.34 3.02 -3 2 C-2.01 2 -1.02 2 0 2 C0 1.34 0 0.68 0 0 Z " fill="#5FA9D4" transform="translate(728,923)"/>
<path d="M0 0 C0 0.33 0 0.66 0 1 C-2.06060064 1.36505516 -4.12359632 1.71660715 -6.1875 2.0625 C-7.91033203 2.35833984 -7.91033203 2.35833984 -9.66796875 2.66015625 C-12.78648366 2.97822284 -14.99805783 2.80843264 -18 2 C-18 1.67 -18 1.34 -18 1 C-11.69661213 -0.3792223 -6.3503077 -1.41117949 0 0 Z " fill="#3C7BB9" transform="translate(584,988)"/>
<path d="M0 0 C0.95827504 3.04498611 0.99431517 5.02273931 0.22265625 8.109375 C-0.05288086 9.24052734 -0.05288086 9.24052734 -0.33398438 10.39453125 C-0.63272461 11.56048828 -0.63272461 11.56048828 -0.9375 12.75 C-1.23043945 13.93916016 -1.23043945 13.93916016 -1.52929688 15.15234375 C-2.01124079 17.10362885 -2.50452088 19.05210783 -3 21 C-3.33 21 -3.66 21 -4 21 C-3.66569599 13.43781278 -3.12892533 6.93805182 0 0 Z " fill="#60A6D3" transform="translate(638,778)"/>
<path d="M0 0 C0.66 0.33 1.32 0.66 2 1 C0.7260411 3.03833424 -0.61061923 5.03852126 -2 7 C-2.66 7 -3.32 7 -4 7 C-3.91621094 7.61488281 -3.83242187 8.22976563 -3.74609375 8.86328125 C-3.64425781 9.67152344 -3.54242188 10.47976563 -3.4375 11.3125 C-3.33308594 12.11300781 -3.22867188 12.91351562 -3.12109375 13.73828125 C-3 16 -3 16 -4 19 C-5.86251681 17.13748319 -5.30214039 14.2496451 -5.375 11.75 C-5.36158279 5.63845912 -5.36158279 5.63845912 -3.8828125 3.02734375 C-2.5 1.6875 -2.5 1.6875 0 0 Z " fill="#82CEEA" transform="translate(229,770)"/>
<path d="M0 0 C0.33 0.99 0.66 1.98 1 3 C4.38570149 4.3462194 8.14822622 4.31037584 11.75 4.5625 C12.92046875 4.64628906 14.0909375 4.73007812 15.296875 4.81640625 C16.18890625 4.87699219 17.0809375 4.93757812 18 5 C18 5.66 18 6.32 18 7 C12.06 6.67 6.12 6.34 0 6 C0 4.02 0 2.04 0 0 Z " fill="#88D0EB" transform="translate(666,542)"/>
<path d="M0 0 C3.63 0.33 7.26 0.66 11 1 C11 1.33 11 1.66 11 2 C7.71115696 2.55985988 4.4187385 3.09476652 1.125 3.625 C0.18785156 3.78484375 -0.74929688 3.9446875 -1.71484375 4.109375 C-2.61074219 4.25117187 -3.50664062 4.39296875 -4.4296875 4.5390625 C-5.25710449 4.67521973 -6.08452148 4.81137695 -6.93701172 4.95166016 C-7.95819092 4.97558838 -7.95819092 4.97558838 -9 5 C-9.66 4.34 -10.32 3.68 -11 3 C-9.02 3 -7.04 3 -5 3 C-5 2.34 -5 1.68 -5 1 C-3.35 1.33 -1.7 1.66 0 2 C0 1.34 0 0.68 0 0 Z " fill="#64B5DC" transform="translate(333,797)"/>
<path d="M0 0 C4.46428571 4.25 4.46428571 4.25 5 8 C4.34 8 3.68 8 3 8 C3 9.65 3 11.3 3 13 C2.34 12.67 1.68 12.34 1 12 C0.5859375 9.27734375 0.5859375 9.27734375 0.375 5.9375 C0.30023438 4.83277344 0.22546875 3.72804688 0.1484375 2.58984375 C0.09945313 1.73519531 0.05046875 0.88054687 0 0 Z " fill="#A4DDF2" transform="translate(436,428)"/>
<path d="M0 0 C2 3.75 2 3.75 2 6 C1.34 6 0.68 6 0 6 C0 12.6 0 19.2 0 26 C-0.33 26 -0.66 26 -1 26 C-1.02907084 22.41668375 -1.04682263 18.83339792 -1.0625 15.25 C-1.07087891 14.23421875 -1.07925781 13.2184375 -1.08789062 12.171875 C-1.09111328 11.1921875 -1.09433594 10.2125 -1.09765625 9.203125 C-1.10289307 8.30239258 -1.10812988 7.40166016 -1.11352539 6.47363281 C-1.00762312 4.16610196 -0.65132813 2.20865595 0 0 Z " fill="#4077B6" transform="translate(519,928)"/>
<path d="M0 0 C0.33 0 0.66 0 1 0 C1.04898437 0.85464844 1.09796875 1.70929687 1.1484375 2.58984375 C1.22320312 3.69457031 1.29796875 4.79929687 1.375 5.9375 C1.44460938 7.03964844 1.51421875 8.14179687 1.5859375 9.27734375 C1.72257812 10.17582031 1.85921875 11.07429687 2 12 C2.66 12.33 3.32 12.66 4 13 C2.63016497 16.16115776 2.0109362 16.9927092 -1 19 C-0.67 12.73 -0.34 6.46 0 0 Z " fill="#9ED6ED" transform="translate(441,596)"/>
<path d="M0 0 C4.87440007 0.48744001 9.33909281 1.57319168 14 3 C14 3.66 14 4.32 14 5 C12.06115111 4.71743908 10.12394039 4.4236207 8.1875 4.125 C7.10855469 3.96257813 6.02960938 3.80015625 4.91796875 3.6328125 C2 3 2 3 -1 1 C-0.67 0.67 -0.34 0.34 0 0 Z " fill="#4E9FCF" transform="translate(449,750)"/>
<path d="M0 0 C0.66 0 1.32 0 2 0 C0.55613418 3.71279784 -1.12236392 4.9486443 -4.625 6.75 C-5.44226563 7.17796875 -6.25953125 7.6059375 -7.1015625 8.046875 C-7.72804688 8.36140625 -8.35453125 8.6759375 -9 9 C-9.66 8.34 -10.32 7.68 -11 7 C-4.375 3 -4.375 3 -1 3 C-0.67 2.01 -0.34 1.02 0 0 Z " fill="#3776B7" transform="translate(508,979)"/>
<path d="M0 0 C3.93548431 3.06093224 6.68116787 5.49115974 9 10 C5.26512223 9.5020163 3.18762365 9.12508244 0 7 C1.32 6.67 2.64 6.34 4 6 C3.34 5.566875 2.68 5.13375 2 4.6875 C1.34 4.130625 0.68 3.57375 0 3 C0 2.01 0 1.02 0 0 Z " fill="#8CD2EC" transform="translate(627,520)"/>
<path d="M0 0 C0.33 0 0.66 0 1 0 C1.74507544 6.37305598 2.10349817 12.58311325 2 19 C0.48046875 18.01171875 0.48046875 18.01171875 -1 16 C-1.05538697 13.16943421 -0.9635167 10.60930635 -0.6875 7.8125 C-0.62626953 7.06291016 -0.56503906 6.31332031 -0.50195312 5.54101562 C-0.34891389 3.69277255 -0.17633121 1.8461665 0 0 Z " fill="#B2E4F6" transform="translate(420,338)"/>
<path d="M0 0 C-0.66 1.65 -1.32 3.3 -2 5 C-5.3 5.33 -8.6 5.66 -12 6 C-4 0 -4 0 0 0 Z " fill="#7FC2E2" transform="translate(773,881)"/>
<path d="M0 0 C1.41764994 0.93601246 2.83407568 1.8738792 4.25 2.8125 C5.03890625 3.33457031 5.8278125 3.85664062 6.640625 4.39453125 C8.81092481 5.87134122 10.91413768 7.40689873 13 9 C12.67 9.66 12.34 10.32 12 11 C11.38511719 10.48308594 10.77023438 9.96617187 10.13671875 9.43359375 C9.32847656 8.77488281 8.52023438 8.11617187 7.6875 7.4375 C6.88699219 6.77621094 6.08648437 6.11492188 5.26171875 5.43359375 C4.51535156 4.96050781 3.76898438 4.48742187 3 4 C2.01 4.33 1.02 4.66 0 5 C0 3.35 0 1.7 0 0 Z " fill="#8CD2EC" transform="translate(245,675)"/>
<path d="M0 0 C1.21386936 3.64160808 0.6674695 4.33165469 -0.9375 7.6875 C-1.31777344 8.49574219 -1.69804688 9.30398438 -2.08984375 10.13671875 C-2.39019531 10.75160156 -2.69054687 11.36648438 -3 12 C-3.66 11.67 -4.32 11.34 -5 11 C-4.54917531 9.53932801 -4.08906463 8.08151968 -3.625 6.625 C-3.36976563 5.81289063 -3.11453125 5.00078125 -2.8515625 4.1640625 C-2 2 -2 2 0 0 Z " fill="#57A2D1" transform="translate(563,731)"/>
<path d="M0 0 C0.66 0.33 1.32 0.66 2 1 C-0.93730745 3.50215079 -3.1052187 4.81884738 -7 5 C-9.47276139 4.19120096 -11.65210122 3.15093077 -14 2 C-11.1198928 1.03996427 -9.41400117 0.92154198 -6.4375 1 C-3.08718018 1.12955645 -3.08718018 1.12955645 0 0 Z " fill="#93D6EF" transform="translate(477,458)"/>
<path d="M0 0 C0.66 0 1.32 0 2 0 C1.71788123 1.6266848 1.42397625 3.25132896 1.125 4.875 C0.96257813 5.77992188 0.80015625 6.68484375 0.6328125 7.6171875 C0 10 0 10 -2 12 C-2.33 10.68 -2.66 9.36 -3 8 C-2.34 8 -1.68 8 -1 8 C-1.33 7.01 -1.66 6.02 -2 5 C-1.0625 2.3125 -1.0625 2.3125 0 0 Z " fill="#58A2D0" transform="translate(557,743)"/>
<path d="M0 0 C1.64846769 0.44876616 3.29373455 0.90930488 4.9375 1.375 C5.85402344 1.63023437 6.77054687 1.88546875 7.71484375 2.1484375 C10 3 10 3 11 5 C7.37 4.34 3.74 3.68 0 3 C0 2.01 0 1.02 0 0 Z " fill="#438CC4" transform="translate(409,977)"/>
<path d="M0 0 C1.1484375 1.734375 1.1484375 1.734375 2 4 C1.1015625 6.140625 1.1015625 6.140625 -0.375 8.25 C-0.85710938 8.95640625 -1.33921875 9.6628125 -1.8359375 10.390625 C-2.22007812 10.92171875 -2.60421875 11.4528125 -3 12 C-4.21386936 8.35839192 -3.6674695 7.66834531 -2.0625 4.3125 C-1.49208984 3.10013672 -1.49208984 3.10013672 -0.91015625 1.86328125 C-0.60980469 1.24839844 -0.30945313 0.63351562 0 0 Z " fill="#3274B6" transform="translate(515,966)"/>
<path d="M0 0 C2.60608273 2.5162178 4.89381685 5.05134359 7 8 C6.67 8.66 6.34 9.32 6 10 C3.03595495 7.19195732 0.55500981 4.81684226 -1 1 C-0.67 0.67 -0.34 0.34 0 0 Z " fill="#60A8D4" transform="translate(699,871)"/>
<path d="M0 0 C2.63595772 2.63595772 3.07702112 5.06187181 4.125 8.625 C4.47820312 9.81351563 4.83140625 11.00203125 5.1953125 12.2265625 C5.46085937 13.14179687 5.72640625 14.05703125 6 15 C5.34 15 4.68 15 4 15 C3.13656176 12.87875034 2.28449352 10.75286928 1.4375 8.625 C0.96183594 7.44164062 0.48617188 6.25828125 -0.00390625 5.0390625 C-1 2 -1 2 0 0 Z " fill="#6AB9DE" transform="translate(302,831)"/>
<path d="M0 0 C0.33 0 0.66 0 1 0 C1 3.63 1 7.26 1 11 C0.01 10.67 -0.98 10.34 -2 10 C-2 8.02 -2 6.04 -2 4 C-1.34 4 -0.68 4 0 4 C0 2.68 0 1.36 0 0 Z " fill="#6EBBDF" transform="translate(302,819)"/>
<path d="M0 0 C0.99 0.33 1.98 0.66 3 1 C0.69846709 3.30153291 -0.84875905 3.7577028 -3.9375 4.6875 C-4.81277344 4.95949219 -5.68804687 5.23148438 -6.58984375 5.51171875 C-9 6 -9 6 -12 5 C-11.030625 4.87625 -10.06125 4.7525 -9.0625 4.625 C-8.051875 4.41875 -7.04125 4.2125 -6 4 C-5.67 3.34 -5.34 2.68 -5 2 C-4.01 1.67 -3.02 1.34 -2 1 C-1.34 1.33 -0.68 1.66 0 2 C0 1.34 0 0.68 0 0 Z " fill="#65B9DE" transform="translate(355,733)"/>
<path d="M0 0 C1.15518918 0.90484792 2.29885406 1.8244206 3.4375 2.75 C4.07558594 3.26046875 4.71367188 3.7709375 5.37109375 4.296875 C7.18810554 6.19667629 7.60423197 7.43586908 8 10 C6.84481082 9.09515208 5.70114594 8.1755794 4.5625 7.25 C3.60537109 6.48429688 3.60537109 6.48429688 2.62890625 5.703125 C0.81189446 3.80332371 0.39576803 2.56413092 0 0 Z " fill="#86CFEB" transform="translate(552,516)"/>
<path d="M0 0 C2.34917898 2.15341406 3.82443004 4.21667937 5.25 7.0625 C5.60578125 7.75472656 5.9615625 8.44695312 6.328125 9.16015625 C6.54984375 9.76730469 6.7715625 10.37445313 7 11 C6.67 11.66 6.34 12.32 6 13 C5.71125 12.195625 5.4225 11.39125 5.125 10.5625 C4.26737432 7.8673532 4.26737432 7.8673532 2 7 C0.95191959 5.02477154 -0.0520411 3.02518491 -1 1 C-0.67 0.67 -0.34 0.34 0 0 Z " fill="#8FD4ED" transform="translate(599,477)"/>
<path d="M0 0 C1.99701936 0.26556108 3.97764818 0.64787339 5.953125 1.04296875 C5.953125 1.37296875 5.953125 1.70296875 5.953125 2.04296875 C4.303125 2.37296875 2.653125 2.70296875 0.953125 3.04296875 C0.953125 3.37296875 0.953125 3.70296875 0.953125 4.04296875 C-1.356875 4.04296875 -3.666875 4.04296875 -6.046875 4.04296875 C-4.28243726 1.61686685 -3.12317824 0.0655629 0 0 Z " fill="#3D7AB9" transform="translate(553.046875,989.95703125)"/>
<path d="M0 0 C1 2 1 2 0.22265625 4.3828125 C-0.16019531 5.28773438 -0.54304687 6.19265625 -0.9375 7.125 C-1.31777344 8.03507813 -1.69804688 8.94515625 -2.08984375 9.8828125 C-2.39019531 10.58148437 -2.69054687 11.28015625 -3 12 C-3.33 12 -3.66 12 -4 12 C-3.28571429 3.42857143 -3.28571429 3.42857143 0 0 Z " fill="#4B8EC4" transform="translate(604,899)"/>
<path d="M0 0 C2.97 0.99 5.94 1.98 9 3 C9 3.66 9 4.32 9 5 C9.99 5.33 10.98 5.66 12 6 C7.5428126 5.73781251 5.48477302 5.42288711 2.0625 2.4375 C1.381875 1.633125 0.70125 0.82875 0 0 Z " fill="#8BD1EC" transform="translate(222,740)"/>
<path d="M0 0 C0.66 0.66 1.32 1.32 2 2 C0.56705502 2.84114171 -0.87154405 3.67265687 -2.3125 4.5 C-3.51326172 5.19609375 -3.51326172 5.19609375 -4.73828125 5.90625 C-7 7 -7 7 -10 7 C-9.67 6.34 -9.34 5.68 -9 5 C-8.01 5 -7.02 5 -6 5 C-5.67 4.34 -5.34 3.68 -5 3 C-4.01 3 -3.02 3 -2 3 C-2 2.34 -2 1.68 -2 1 C-1.34 0.67 -0.68 0.34 0 0 Z " fill="#6BB9DF" transform="translate(368,727)"/>
<path d="M0 0 C0.66 0 1.32 0 2 0 C1.52797514 4.24822374 -0.96655518 6.19989709 -4 9 C-3.35494404 5.51669784 -2.01782732 2.90567134 0 0 Z " fill="#6DB5DB" transform="translate(423,707)"/>
<path d="M0 0 C0.66 0.66 1.32 1.32 2 2 C-1.465 4.97 -1.465 4.97 -5 8 C-3.95206337 3.80825346 -3.08236365 2.78407039 0 0 Z " fill="#73BBDF" transform="translate(390,710)"/>
<path d="M0 0 C0.99 0 1.98 0 3 0 C2.34 3.63 1.68 7.26 1 11 C0.67 11 0.34 11 0 11 C-0.33 8.69 -0.66 6.38 -1 4 C-0.34 4 0.32 4 1 4 C0.67 2.68 0.34 1.36 0 0 Z " fill="#81CCE9" transform="translate(698,656)"/>
<path d="M0 0 C4.62 0.66 9.24 1.32 14 2 C14 2.33 14 2.66 14 3 C9.38 3 4.76 3 0 3 C0 2.01 0 1.02 0 0 Z " fill="#7CCBEA" transform="translate(658,571)"/>
<path d="M0 0 C2.3773161 2.3773161 2.67028521 3.70285207 3 7 C2.34 7.66 1.68 8.32 1 9 C-1.09230769 4.56923077 -1.09230769 4.56923077 -0.625 1.6875 C-0.41875 1.130625 -0.2125 0.57375 0 0 Z " fill="#4C92C6" transform="translate(513,823)"/>
<path d="M0 0 C1.45606519 4.52092968 0.27032841 7.51648796 -1 12 C-2.28317892 8.15046324 -2.06643637 5.05261865 -2 1 C-1.34 0.67 -0.68 0.34 0 0 Z " fill="#93D5EE" transform="translate(850,753)"/>
<path d="M0 0 C0.66 0 1.32 0 2 0 C2.08159574 4.16138263 1.98248524 7.9472484 1 12 C0.67 12 0.34 12 0 12 C-0.33 9.69 -0.66 7.38 -1 5 C-0.34 5 0.32 5 1 5 C0.67 3.35 0.34 1.7 0 0 Z " fill="#76C5E5" transform="translate(694,675)"/>
<path d="M0 0 C0.66 0 1.32 0 2 0 C2 0.66 2 1.32 2 2 C3.32 1.67 4.64 1.34 6 1 C6.33 1.99 6.66 2.98 7 4 C2.545 3.01 2.545 3.01 -2 2 C-1.34 1.34 -0.68 0.68 0 0 Z " fill="#86D0EB" transform="translate(746,639)"/>
</svg>
