<?xml version="1.0" standalone="no"?>
<!DOCTYPE svg PUBLIC "-//W3C//DTD SVG 20010904//EN"
 "http://www.w3.org/TR/2001/REC-SVG-20010904/DTD/svg10.dtd">
<svg version="1.0" xmlns="http://www.w3.org/2000/svg"
 width="1063.000000pt" height="916.000000pt" viewBox="0 0 1063.000000 916.000000"
 preserveAspectRatio="xMidYMid meet">

<g transform="translate(0.000000,916.000000) scale(0.100000,-0.100000)"
fill="#000000" stroke="none">
<path d="M0 4580 l0 -4580 5315 0 5315 0 0 4580 0 4580 -5315 0 -5315 0 0
-4580z m3615 4107 c285 -80 504 -253 713 -562 116 -173 197 -336 411 -828 162
-372 220 -477 322 -577 178 -175 387 -151 562 65 58 72 162 280 287 575 160
375 260 576 377 754 211 323 446 505 753 582 62 16 111 19 280 19 186 -1 216
-3 316 -27 62 -15 146 -42 187 -61 380 -176 711 -696 987 -1552 191 -590 311
-1120 500 -2200 34 -192 79 -441 100 -552 165 -847 251 -1582 291 -2483 16
-359 4 -499 -61 -691 -126 -376 -393 -654 -743 -773 -152 -52 -258 -69 -437
-69 -229 -1 -393 32 -568 114 -326 151 -567 452 -719 894 -142 416 -207 850
-258 1740 -33 565 -62 859 -99 980 -71 231 -301 339 -508 237 -112 -55 -140
-95 -347 -493 -101 -195 -197 -373 -212 -396 -102 -149 -306 -244 -488 -228
-138 12 -242 65 -347 177 -50 53 -83 110 -208 348 -221 424 -245 465 -298 519
-70 72 -141 104 -242 109 -66 3 -92 0 -139 -18 -115 -43 -199 -139 -231 -264
-36 -137 -63 -415 -96 -961 -65 -1090 -151 -1564 -364 -2000 -88 -180 -171
-300 -286 -415 -202 -201 -443 -309 -759 -341 -258 -26 -550 35 -770 160 -326
185 -559 559 -600 966 -5 52 -5 193 0 340 30 872 121 1669 294 2560 24 127 67
361 95 520 191 1095 337 1731 534 2311 204 602 413 992 671 1249 177 177 300
243 534 285 159 29 439 23 566 -13z"/>
<path d="M3193 8629 c-107 -10 -233 -36 -303 -61 -239 -88 -462 -330 -663
-718 -304 -585 -546 -1431 -777 -2715 -79 -443 -144 -797 -175 -965 -120 -639
-205 -1320 -245 -1980 -19 -305 -28 -666 -19 -752 34 -337 234 -685 489 -852
210 -138 466 -205 730 -192 678 33 1075 486 1260 1437 58 303 95 667 130 1309
33 601 70 893 129 1007 35 69 101 143 163 183 87 57 153 73 268 68 81 -4 105
-10 161 -36 75 -36 143 -92 192 -160 19 -26 117 -207 218 -402 170 -328 189
-360 249 -421 141 -143 330 -176 508 -88 127 62 154 100 372 519 175 335 202
382 259 442 47 51 83 78 139 106 74 36 78 37 191 37 110 0 120 -2 184 -32 127
-60 226 -181 262 -319 37 -141 65 -418 90 -879 45 -823 91 -1207 190 -1590
169 -651 480 -1031 936 -1144 301 -74 601 -45 864 83 130 64 208 120 298 215
163 173 271 395 313 642 14 89 16 142 10 357 -21 823 -114 1636 -290 2562 -30
157 -71 380 -91 495 -258 1490 -496 2375 -804 2995 -205 411 -407 649 -645
760 -134 63 -258 85 -476 85 -162 0 -195 -3 -270 -23 -235 -64 -435 -207 -605
-433 -137 -183 -243 -384 -445 -853 -62 -143 -132 -302 -156 -354 -94 -201
-216 -345 -351 -413 -64 -32 -74 -34 -168 -34 -97 0 -104 2 -178 38 -54 27
-96 58 -142 103 -118 120 -173 220 -360 654 -115 268 -257 562 -327 680 -120
201 -280 380 -426 477 -142 95 -281 144 -462 163 -105 11 -110 11 -227 -1z
m158 -304 c253 -89 533 -333 692 -602 98 -166 177 -382 177 -484 0 -125 -97
-224 -232 -236 -107 -10 -203 53 -228 149 -88 344 -272 575 -578 728 -116 57
-153 112 -155 226 -1 101 63 199 148 223 48 14 129 12 176 -4z m4186 -40 c76
-32 274 -209 394 -353 262 -315 419 -680 469 -1091 6 -56 7 -97 0 -121 -33
-121 -175 -202 -293 -166 -111 33 -158 104 -183 273 -62 427 -232 723 -595
1035 -80 69 -110 124 -110 200 0 29 4 65 10 81 44 116 199 187 308 142z
m-3142 -1524 c186 -86 166 -388 -29 -446 -172 -51 -320 56 -319 230 1 147 90
235 238 235 47 0 83 -7 110 -19z m4081 -455 c121 -57 178 -220 117 -340 -76
-152 -276 -187 -388 -69 -51 54 -69 102 -69 183 -1 64 3 82 26 122 30 51 77
94 123 114 49 21 133 17 191 -10z m-6108 -3611 c273 -52 521 -240 665 -505
145 -265 172 -607 72 -900 -168 -493 -654 -779 -1121 -660 -314 81 -578 335
-687 662 -76 228 -77 500 -3 722 121 358 402 617 741 681 96 18 237 18 333 0z
m6220 0 c386 -73 694 -400 779 -827 22 -112 22 -317 -1 -426 -122 -584 -639
-945 -1162 -812 -313 80 -578 336 -687 662 -76 228 -77 500 -3 722 123 365
414 627 763 686 81 13 226 11 311 -5z"/>
</g>
</svg>
