<?xml version="1.0" encoding="UTF-8"?>
<svg version="1.1" xmlns="http://www.w3.org/2000/svg" width="1080" height="1080">
<path d="M0 0 C356.4 0 712.8 0 1080 0 C1080 356.4 1080 712.8 1080 1080 C723.6 1080 367.2 1080 0 1080 C0 723.6 0 367.2 0 0 Z " fill="#FEFEFE" transform="translate(0,0)"/>
<path d="M0 0 C5.5331588 3.19045401 9.38841142 8.1819243 11.15234375 14.33984375 C11.26707031 14.90832031 11.38179688 15.47679687 11.5 16.0625 C15.17974243 15.82467105 16.38911753 15.1735528 19.04296875 12.515625 C19.92994593 11.45245371 20.81121618 10.38450204 21.6875 9.3125 C27.39111587 2.81106833 32.2878475 -1.33439531 41.1796875 -2.36328125 C48.33901533 -2.61137677 54.7294495 -2.53097304 60.5 2.0625 C67.19729121 8.45536888 69.68433593 16.23431272 69.99829102 25.38891602 C70.02402298 27.46758976 70.02835907 29.54442964 70.01642036 31.62323189 C70.00362414 33.86584813 70.01522786 36.10726314 70.03245544 38.34983826 C70.05898751 42.30340868 70.06475756 46.25667734 70.06335449 50.21032715 C70.06111474 56.53953435 70.07552758 62.86836884 70.11894035 69.19743156 C70.12868486 71.39155659 70.12011327 73.58507859 70.11024475 75.77919006 C70.1237855 83.97458018 70.78788864 90.63827728 74.5 98.0625 C59.32 98.0625 44.14 98.0625 28.5 98.0625 C29.49 95.7525 30.48 93.4425 31.5 91.0625 C31.94450483 87.8873267 31.94450483 87.8873267 31.88818359 84.63989258 C31.90236832 82.79812187 31.90236832 82.79812187 31.9168396 80.91914368 C31.91076691 79.61164658 31.90469421 78.30414948 31.8984375 76.95703125 C31.90046126 75.58656154 31.90337521 74.21609288 31.90713501 72.84562683 C31.91153974 69.98527691 31.90518464 67.12520948 31.89111328 64.26489258 C31.87397325 60.6029443 31.88390398 56.94165341 31.90183067 53.27972889 C31.91267746 50.45467686 31.909219 47.62978049 31.9014473 44.80472374 C31.8984818 42.7994837 31.90756937 40.79423753 31.9168396 38.78901672 C31.90738312 37.57062607 31.89792664 36.35223541 31.88818359 35.09692383 C31.88460342 33.48978264 31.88460342 33.48978264 31.88095093 31.85017395 C31.44612757 28.66827926 30.80260945 27.28479442 28.5 25.0625 C25.32896512 24.60218848 23.51676867 24.37901335 20.5 25.0625 C16.7121042 27.94459463 14.98236567 30.60778957 13.5 35.0625 C13.1884023 37.68192335 13.1884023 37.68192335 13.20947266 40.44433594 C13.19671295 41.49602966 13.18395325 42.54772339 13.17080688 43.63128662 C13.16858124 44.75843079 13.16635559 45.88557495 13.1640625 47.046875 C13.1574057 48.21704163 13.1507489 49.38720825 13.14389038 50.59283447 C13.13377318 53.06740754 13.12907307 55.54200784 13.12939453 58.01660156 C13.12503187 61.78496829 13.08872897 65.55215368 13.05078125 69.3203125 C13.0449107 71.72916268 13.0409429 74.1380184 13.0390625 76.546875 C13.02469147 77.66592224 13.01032043 78.78496948 12.99551392 79.93792725 C13.0047438 81.5343808 13.0047438 81.5343808 13.01416016 83.16308594 C13.01131012 84.08732361 13.00846008 85.01156128 13.00552368 85.96380615 C13.54626349 90.20555948 13.54626349 90.20555948 17.5 98.0625 C2.32 98.0625 -12.86 98.0625 -28.5 98.0625 C-27.51 95.0925 -26.52 92.1225 -25.5 89.0625 C-25.06105022 85.76967582 -25.06105022 85.76967582 -25.11181641 82.59643555 C-25.10235992 81.40878098 -25.09290344 80.2211264 -25.0831604 78.9974823 C-25.08923309 77.74405533 -25.09530579 76.49062836 -25.1015625 75.19921875 C-25.09725723 73.23490654 -25.09725723 73.23490654 -25.09286499 71.23091125 C-25.08847067 68.47666656 -25.09478337 65.72271607 -25.10888672 62.96850586 C-25.12606206 59.44336929 -25.11606744 55.91891391 -25.09816933 52.39380169 C-25.08472216 49.01638604 -25.09413289 45.63915374 -25.1015625 42.26171875 C-25.09548981 40.99817062 -25.08941711 39.7346225 -25.0831604 38.43278503 C-25.09261688 37.26089127 -25.10207336 36.0889975 -25.11181641 34.8815918 C-25.11539658 33.3367939 -25.11539658 33.3367939 -25.11904907 31.76078796 C-25.555196 28.67154491 -26.35631723 27.29666884 -28.5 25.0625 C-31.58156561 24.1738088 -34.39029166 24.32599013 -37.5 25.0625 C-40.66209937 27.43036314 -42.25433566 30.32550699 -43.5 34.0625 C-43.5976811 35.78925844 -43.63818657 37.51951882 -43.64526367 39.24902344 C-43.65164352 40.30732361 -43.65802338 41.36562378 -43.66459656 42.45599365 C-43.66570938 43.5997345 -43.6668222 44.74347534 -43.66796875 45.921875 C-43.67129715 47.09961487 -43.67462555 48.27735474 -43.67805481 49.49078369 C-43.68312195 51.9857138 -43.6854632 54.48065069 -43.68530273 56.97558594 C-43.68748329 60.78331778 -43.70562521 64.59075717 -43.72460938 68.3984375 C-43.72754455 70.82291568 -43.72952852 73.24739523 -43.73046875 75.671875 C-43.73765427 76.80751892 -43.74483978 77.94316284 -43.75224304 79.11322021 C-43.73578264 84.84273309 -43.44349856 89.66072388 -41.5 95.0625 C-41.17 96.0525 -40.84 97.0425 -40.5 98.0625 C-55.68 98.0625 -70.86 98.0625 -86.5 98.0625 C-85.18 94.7625 -83.86 91.4625 -82.5 88.0625 C-82.15048236 85.19644896 -81.95793549 82.73595496 -81.99829102 79.89404297 C-81.99018654 78.76996033 -81.99018654 78.76996033 -81.98191833 77.62316895 C-81.96956442 75.18325438 -81.98582774 72.74455094 -82.00390625 70.3046875 C-82.00375098 68.58936502 -82.00225742 66.87404219 -81.99949646 65.15872192 C-81.99811856 61.57977618 -82.01057026 58.00123416 -82.03344727 54.42236328 C-82.0618733 49.85178316 -82.05907473 45.28187064 -82.04635715 40.71124077 C-82.03937997 37.17487963 -82.04721176 33.63867092 -82.05961418 30.10232925 C-82.06410584 28.41754873 -82.06448563 26.73275173 -82.06054878 25.04796982 C-82.05761524 22.68903153 -82.07424254 20.33099216 -82.09594727 17.97216797 C-82.08919479 16.94484055 -82.08919479 16.94484055 -82.08230591 15.89675903 C-82.17190105 9.99122279 -83.87559034 5.31131933 -86.5 0.0625 C-81.30393014 -0.03645826 -76.10841002 -0.10900993 -70.91162109 -0.15722656 C-69.14427128 -0.1773285 -67.37698787 -0.20461472 -65.60986328 -0.23925781 C-63.06786715 -0.28784009 -60.52675104 -0.31048226 -57.984375 -0.328125 C-56.80134796 -0.35909271 -56.80134796 -0.35909271 -55.59442139 -0.39068604 C-51.9775427 -0.39216179 -49.94342749 -0.27880054 -47.03222656 1.96191406 C-44.50263774 5.42982073 -44.38792351 7.42392151 -44.4375 11.6875 C-44.44652344 12.69039062 -44.45554687 13.69328125 -44.46484375 14.7265625 C-44.47644531 15.49742187 -44.48804688 16.26828125 -44.5 17.0625 C-40.64329039 15.30945018 -38.70639644 13.11960778 -36.3125 9.75 C-27.973398 -1.48487808 -12.9900135 -5.75356762 0 0 Z " fill="#B01C1C" transform="translate(351.5,538.9375)"/>
<path d="M0 0 C2.23793 3.356895 2.25167857 4.44725871 2.25828552 8.36958313 C2.26511353 9.48411865 2.27194153 10.59865417 2.27897644 11.7469635 C2.27642349 12.97039963 2.27387054 14.19383575 2.27124023 15.4543457 C2.27926347 17.43150895 2.28728912 19.40867219 2.29540551 21.38583505 C2.30226438 23.51218631 2.30426096 25.63849459 2.30496025 27.76485634 C2.30690048 32.19846603 2.32495183 36.63191932 2.34571838 41.06547546 C2.39491735 52.07998361 2.42577498 63.09453435 2.44702148 74.10913086 C2.46355193 82.66486068 2.48639372 91.22045673 2.53004223 99.776097 C2.55179944 104.18090474 2.5598782 108.58545827 2.55764949 112.99031603 C2.55971141 116.37943986 2.58107644 119.76839665 2.59936523 123.1574707 C2.59478806 124.37483414 2.59021088 125.59219757 2.585495 126.84645081 C2.63573114 132.69387531 2.69241472 137.0724805 6 142 C0.80393014 142.09895826 -4.39158998 142.17150993 -9.58837891 142.21972656 C-11.35572872 142.2398285 -13.12301213 142.26711472 -14.89013672 142.30175781 C-17.43213285 142.35034009 -19.97324896 142.37298226 -22.515625 142.390625 C-23.69865204 142.42159271 -23.69865204 142.42159271 -24.90557861 142.45318604 C-28.51007588 142.45465674 -30.56144824 142.33211051 -33.47851562 140.12304688 C-35.1578334 137.77976263 -35.75126241 136.07617966 -36.25 133.25 C-36.39953125 132.45078125 -36.5490625 131.6515625 -36.703125 130.828125 C-36.80109375 130.22484375 -36.8990625 129.6215625 -37 129 C-37.4125 129.59167969 -37.825 130.18335938 -38.25 130.79296875 C-42.89701762 137.15149956 -47.45188007 141.48396002 -55 144 C-65.93429366 144.79745199 -75.44862454 143.82612538 -84.12109375 136.73046875 C-89.75843437 131.53848976 -94.21640768 126.17999565 -97 119 C-97.37253906 118.04996094 -97.74507812 117.09992188 -98.12890625 116.12109375 C-103.98029789 98.85235256 -102.17567227 80.20350447 -94.8125 63.6875 C-89.62615716 54.18447546 -81.54751754 45.91473925 -71.1328125 42.36328125 C-63.39462156 41.04523774 -54.81932404 40.85492068 -48 45 C-45.59098852 46.80675861 -43.23365664 48.64912882 -40.91796875 50.57421875 C-39.13079669 52.19886494 -39.13079669 52.19886494 -37 52 C-36.82632592 47.96198226 -36.69965392 43.92542209 -36.61547852 39.88452148 C-36.58037854 38.51174033 -36.53268178 37.13921903 -36.47192383 35.76733398 C-35.79764917 27.92097843 -35.79764917 27.92097843 -38.58935547 20.95849609 C-40.6829235 19.36874495 -40.6829235 19.36874495 -44 18 C-43 15 -43 15 -40.85791016 13.71313477 C-39.92769043 13.29346436 -38.9974707 12.87379395 -38.0390625 12.44140625 C-37.00910156 11.97283203 -35.97914063 11.50425781 -34.91796875 11.02148438 C-33.83128906 10.54001953 -32.74460937 10.05855469 -31.625 9.5625 C-30.57699219 9.08490234 -29.52898437 8.60730469 -28.44921875 8.11523438 C-8.13863439 -1.03582619 -8.13863439 -1.03582619 0 0 Z " fill="#B11E1E" transform="translate(964,495)"/>
<path d="M0 0 C2 2 2 2 2.1953125 4.1640625 C2.17210937 4.97617187 2.14890625 5.78828125 2.125 6.625 C2.10695313 7.44226563 2.08890625 8.25953125 2.0703125 9.1015625 C2.04710937 9.72804688 2.02390625 10.35453125 2 11 C5.40458706 9.13081495 8.50170109 7.4110966 11.5 4.9375 C18.76881703 -0.6958332 26.00660354 -1.0228541 35 0 C46.59099016 3.18344096 53.32197412 9.01653895 59.4296875 19.13671875 C67.73089869 34.27300681 69.49405408 52.60938231 65.75390625 69.453125 C61.8200275 82.74270503 56.12900311 92.00036157 44 99 C36.37562504 102.9021302 26.81590048 103.57085415 18.5703125 101.34375 C11.92074342 98.34238808 7.26626973 92.74080059 3 87 C2.99413376 87.60277267 2.98826752 88.20554535 2.98222351 88.82658386 C2.9182499 95.10483091 2.83381978 101.38256725 2.73754883 107.66040039 C2.70431094 110.00277978 2.6762755 112.34523904 2.65356445 114.68774414 C2.61999832 118.05649833 2.56767981 121.42452131 2.51171875 124.79296875 C2.50213387 126.36198189 2.50213387 126.36198189 2.49235535 127.96269226 C2.30722852 137.13421733 2.30722852 137.13421733 -1 141 C-4.22603545 142.61301773 -7.74710038 142.12053599 -11.2890625 142.09765625 C-12.51669815 142.09553383 -12.51669815 142.09553383 -13.76913452 142.09336853 C-16.38779325 142.0877629 -19.00636704 142.07520948 -21.625 142.0625 C-23.39843627 142.05748572 -25.17187387 142.05292269 -26.9453125 142.04882812 C-31.29690782 142.03779164 -35.6484395 142.02052325 -40 142 C-39.71670239 141.40451292 -39.43340479 140.80902584 -39.14152241 140.1954937 C-36.24124898 133.63785399 -35.43482646 128.22786982 -35.5300293 121.10595703 C-35.5278389 120.06728989 -35.5256485 119.02862274 -35.52339172 117.95848083 C-35.52109792 114.55792378 -35.54723461 111.15825267 -35.57421875 107.7578125 C-35.57914711 105.38272374 -35.58244308 103.00763108 -35.58418274 100.63253784 C-35.59179998 95.67156434 -35.61229692 90.7108817 -35.64331055 85.75 C-35.68301343 79.38784273 -35.70094325 73.02587373 -35.71061993 66.66360664 C-35.72058264 60.59081644 -35.74046223 54.51807214 -35.76171875 48.4453125 C-35.7651145 47.28632572 -35.76851025 46.12733894 -35.7720089 44.93323135 C-35.78357054 41.66132366 -35.80208673 38.38953547 -35.82299805 35.11767578 C-35.82568695 34.14723831 -35.82837585 33.17680084 -35.83114624 32.17695618 C-35.8418792 30.83991386 -35.8418792 30.83991386 -35.85282898 29.4758606 C-35.85710246 28.70348116 -35.86137594 27.93110172 -35.86577892 27.13531685 C-36.00518979 24.91743581 -36.21010493 23.08225981 -37 21 C-39.99615946 19.6954344 -39.99615946 19.6954344 -43 19 C-43 17.68 -43 16.36 -43 15 C-38.83883209 13.18192498 -34.67619791 11.36726425 -30.51220703 9.55566406 C-29.09774266 8.93972413 -27.68367363 8.32287546 -26.27001953 7.70507812 C-24.23054203 6.8139745 -22.18963517 5.92621753 -20.1484375 5.0390625 C-19.210569 4.62800766 -19.210569 4.62800766 -18.25375366 4.20864868 C-12.03396075 1.51293543 -6.86553666 -0.5281182 0 0 Z " fill="#B01C1C" transform="translate(469,537)"/>
<path d="M0 0 C8.36039574 0.58957704 15.6987585 0.91800207 23.23046875 -3.171875 C25 -4 25 -4 28 -3.8125 C30 -3 30 -3 31 -2 C32.14244459 8.2820013 27.05850722 18.93631309 21 27 C16.20034112 31.91990085 12.95976769 34.15151272 6 34.25 C4.9275 34.27578125 3.855 34.3015625 2.75 34.328125 C-6.12990431 33.55113337 -13.80340355 29.87668128 -21.6875 25.9375 C-34.20673998 19.5383106 -34.20673998 19.5383106 -48 19 C-51.21013047 20.8764117 -51.21013047 20.8764117 -53 24 C-53.53252977 27.72770841 -53.33732441 30.11452341 -52 33.625 C-42.73835914 44.62319852 -26.10713654 45.08782427 -12.8125 46.4375 C3.33538345 48.11007447 15.73720791 52.07122724 26.4609375 64.8515625 C33.33526553 74.44770568 34.24382802 85.65159499 32.5390625 97.09375 C29.42591071 111.01136978 22.41335983 122.90204053 10.75 131.3125 C-3.02525704 139.83427588 -19.70846644 142.36116177 -35.55859375 139.31640625 C-46.68995529 135.82790413 -57.57194726 129.57049494 -63.375 119.125 C-65.25237128 114.84095453 -66.70357831 110.709836 -66 106 C-61.10577684 96.37530093 -48.07397234 90.14210417 -38.359375 86.5546875 C-34.52433856 85.65307297 -30.73026941 85.65742459 -27 87 C-24.71990367 90.42014449 -24.79819972 91.45611531 -24.9453125 95.4453125 C-24.98205078 97.06179688 -24.98205078 97.06179688 -25.01953125 98.7109375 C-25.08912835 100.96382127 -25.16707749 103.21646454 -25.25390625 105.46875 C-25.39583191 112.49824466 -24.76930437 117.94804773 -21 124 C-17.31309947 127.68690053 -13.25194855 128.15429389 -8.1875 128.25 C-1.23135286 128.16816297 3.94311715 125.91641388 9 121 C12.50742277 115.92028427 12.80430187 110.97217252 12 105 C10.10815878 98.26552119 5.93099672 94.42438579 0 91 C-5.58512115 88.184512 -11.44138411 86.17469402 -17.359375 84.19140625 C-53.21438117 72.16218739 -53.21438117 72.16218739 -61.4375 56.9375 C-65.74186589 46.89397959 -66.9103088 35.67558277 -63.375 25.1875 C-58.00975971 12.46368362 -49.24586566 3.24899316 -36.4453125 -2.125 C-25.81486419 -5.92886649 -10.23146894 -5.11573447 0 0 Z " fill="#B01D1D" transform="translate(176,499)"/>
<path d="M0 0 C7.0909325 5.72500748 10.8496412 12.81064234 13.70703125 21.3828125 C14.28784336 29.74874082 14.17808015 35.71024668 9.08203125 42.5703125 C2.76467262 47.39145461 -4.6828394 47.81205269 -12.359375 47.67578125 C-13.27887436 47.67153641 -14.19837372 47.66729156 -15.14573669 47.66291809 C-18.04929334 47.64628026 -20.95212601 47.60865717 -23.85546875 47.5703125 C-25.83788052 47.55524636 -27.82030329 47.54156136 -29.80273438 47.52929688 C-34.63308653 47.49642576 -39.46290539 47.44474861 -44.29296875 47.3828125 C-42.0988933 54.56851618 -38.66229031 56.67293279 -32.29296875 60.3828125 C-22.66754585 65.46289681 -12.41734612 69.98839274 -1.29296875 68.3828125 C3.07875076 66.91169419 6.87525594 64.93732938 10.70703125 62.3828125 C12.89453125 62.7578125 12.89453125 62.7578125 14.70703125 63.3828125 C15.15277057 71.17753606 11.72639245 76.98461759 6.62109375 82.73046875 C-3.53612567 92.26399926 -15.16847788 94.86734675 -28.80078125 94.6328125 C-42.83464842 93.62815087 -53.52175414 87.1370926 -63.29296875 77.3828125 C-64.17662109 76.5165625 -64.17662109 76.5165625 -65.078125 75.6328125 C-74.31376147 65.80666219 -75.55979715 54.03442217 -75.4453125 41.09765625 C-75.24921095 36.31579532 -74.60186951 31.97900998 -73.29296875 27.3828125 C-72.92558594 26.06216797 -72.92558594 26.06216797 -72.55078125 24.71484375 C-68.17736018 10.9946865 -59.30403577 2.21016983 -46.79296875 -4.4921875 C-30.9776227 -9.57569159 -13.91953312 -9.81718349 0 0 Z " fill="#B01D1D" transform="translate(842.29296875,544.6171875)"/>
<path d="M0 0 C2.29623788 1.98194834 3.10749762 3.48833845 3.46484375 6.48828125 C3.05903823 10.7767939 1.62576257 14.07487547 -0.1640625 17.95703125 C-0.47279297 18.65957031 -0.78152344 19.36210938 -1.09960938 20.0859375 C-2.70034735 23.65137071 -4.31374661 26.81788684 -6.8515625 29.83203125 C-12.0676247 29.36211574 -15.02946523 27.65109511 -19.2265625 24.58203125 C-20.36892436 23.76181154 -21.51215151 22.9427956 -22.65625 22.125 C-23.71070313 21.36832031 -24.76515625 20.61164062 -25.8515625 19.83203125 C-32.48440012 15.39248019 -37.57046678 12.21861675 -45.8515625 12.83203125 C-46.8415625 13.49203125 -47.8315625 14.15203125 -48.8515625 14.83203125 C-49.60894707 21.10750341 -48.47760876 25.63766438 -44.8515625 30.83203125 C-40.34489773 35.59174404 -35.95552265 38.02856591 -29.4296875 38.24609375 C-27.89248047 38.30410156 -27.89248047 38.30410156 -26.32421875 38.36328125 C-25.26074219 38.39421875 -24.19726562 38.42515625 -23.1015625 38.45703125 C-22.02261719 38.49570312 -20.94367187 38.534375 -19.83203125 38.57421875 C-17.17204475 38.66837756 -14.5120631 38.75400512 -11.8515625 38.83203125 C-11.8515625 41.14203125 -11.8515625 43.45203125 -11.8515625 45.83203125 C-16.1415625 45.83203125 -20.4315625 45.83203125 -24.8515625 45.83203125 C-24.79027836 56.66354264 -24.71311935 67.49481453 -24.61584759 78.32606602 C-24.5711729 83.35578869 -24.53191031 88.38543091 -24.50512695 93.4152832 C-24.47906514 98.27189027 -24.43864219 103.12818723 -24.38837624 107.98460197 C-24.37172701 109.83484978 -24.36020064 111.68515119 -24.35394859 113.53546333 C-24.34428633 116.13277608 -24.31620203 118.72929898 -24.28393555 121.32641602 C-24.28537064 122.08671112 -24.28680573 122.84700623 -24.2882843 123.63034058 C-24.27574615 124.34675217 -24.26320801 125.06316376 -24.25028992 125.80128479 C-24.24337647 126.72077329 -24.24337647 126.72077329 -24.23632336 127.65883732 C-23.77517313 130.74379786 -23.77517313 130.74379786 -20.8515625 136.83203125 C-36.0315625 136.83203125 -51.2115625 136.83203125 -66.8515625 136.83203125 C-65.5315625 133.53203125 -64.2115625 130.23203125 -62.8515625 126.83203125 C-62.50649675 123.28608929 -62.33431759 120.07018078 -62.38500977 116.53979492 C-62.38270355 115.56435226 -62.38039734 114.58890961 -62.37802124 113.58390808 C-62.37540777 111.48329652 -62.38175288 109.38265796 -62.39627266 107.28209496 C-62.4183234 103.94634967 -62.4143882 100.61150311 -62.40379333 97.27571106 C-62.38221916 88.99210109 -62.3994116 80.70869512 -62.42529297 72.42510986 C-62.44678683 65.41608153 -62.44851279 58.40763412 -62.42237663 51.39861488 C-62.41806057 48.13199081 -62.44256134 44.86640658 -62.46791077 41.59989929 C-62.48025424 26.69360425 -61.20068248 15.08749887 -50.23828125 3.92578125 C-37.18125 -7.52850476 -14.78576265 -9.32688403 0 0 Z " fill="#B01D1D" transform="translate(707.8515625,500.16796875)"/>
<path d="M0 0 C2.59374144 2.59374144 2.25220183 3.63232318 2.25828552 7.24259949 C2.26511353 8.35431519 2.27194153 9.46603088 2.27897644 10.61143494 C2.27514702 12.44962547 2.27514702 12.44962547 2.27124023 14.32495117 C2.27926366 16.29947155 2.28728949 18.27399191 2.29540551 20.24851191 C2.30227085 22.37520577 2.30426143 24.50185665 2.30496025 26.62856102 C2.30689883 31.0623654 2.3249421 35.49601302 2.34571838 39.92976379 C2.3949448 50.94719136 2.4257577 61.96466177 2.44702148 72.98217773 C2.46355802 81.53530558 2.48642547 90.08829975 2.53004223 98.64133817 C2.55178474 103.04503093 2.5598795 107.44846959 2.55764949 111.85221231 C2.559714 115.24423886 2.58108555 118.63609933 2.59936523 122.02807617 C2.59478806 123.24341537 2.59021088 124.45875458 2.585495 125.71092224 C2.63864795 131.91339485 2.99648469 136.52377281 6 142 C0.80393014 142.09895826 -4.39158998 142.17150993 -9.58837891 142.21972656 C-11.35572872 142.2398285 -13.12301213 142.26711472 -14.89013672 142.30175781 C-17.43213285 142.35034009 -19.97324896 142.37298226 -22.515625 142.390625 C-23.69865204 142.42159271 -23.69865204 142.42159271 -24.90557861 142.45318604 C-28.47953062 142.45464428 -30.5587975 142.32841389 -33.46777344 140.16308594 C-35.77842826 136.90107164 -36.12590411 134.29431139 -36.13803101 130.4074707 C-36.14348434 129.46529694 -36.14893768 128.52312317 -36.15455627 127.55239868 C-36.1555986 126.52061493 -36.15664093 125.48883118 -36.15771484 124.42578125 C-36.16533592 122.79375259 -36.16533592 122.79375259 -36.17311096 121.12875366 C-36.18382063 118.76336475 -36.19243846 116.39796566 -36.19923019 114.03256226 C-36.2109992 110.29289409 -36.23044551 106.55334244 -36.25234985 102.8137207 C-36.31404404 92.18020919 -36.36832466 81.54672469 -36.40136719 70.91308594 C-36.42165481 64.41268923 -36.45751946 57.91247632 -36.50212479 51.41220093 C-36.51632427 48.93063863 -36.52501607 46.44903865 -36.52817917 43.96743774 C-36.53306389 40.50280307 -36.55615821 37.03873844 -36.58349609 33.57421875 C-36.58048996 32.542435 -36.57748383 31.51065125 -36.5743866 30.44760132 C-36.58547958 29.50542755 -36.59657257 28.56325378 -36.60800171 27.5925293 C-36.61131186 26.77326462 -36.614622 25.95399994 -36.61803246 25.10990906 C-37.09287788 22.48696197 -37.9429263 21.64235505 -40 20 C-42.09989652 18.82425289 -42.09989652 18.82425289 -44 18 C-43 15 -43 15 -40.85791016 13.71313477 C-39.92769043 13.29346436 -38.9974707 12.87379395 -38.0390625 12.44140625 C-37.00910156 11.97283203 -35.97914063 11.50425781 -34.91796875 11.02148438 C-33.83128906 10.54001953 -32.74460937 10.05855469 -31.625 9.5625 C-30.57699219 9.08490234 -29.52898438 8.60730469 -28.44921875 8.11523438 C-8.40304236 -0.91669553 -8.40304236 -0.91669553 0 0 Z " fill="#B12020" transform="translate(582,495)"/>
<path d="M0 0 C2.59998625 2.59998625 2.2470825 4.40390417 2.27897644 7.94606018 C2.27514702 9.19515419 2.27514702 9.19515419 2.27124023 10.46948242 C2.27646698 11.34610535 2.28169373 12.22272827 2.28707886 13.12591553 C2.29733774 15.03403617 2.30310254 16.94218494 2.30496025 18.85033226 C2.3086147 21.87279253 2.32531785 24.89492193 2.34571838 27.91731262 C2.40120663 36.51227659 2.43176814 45.10729053 2.45629883 53.70239258 C2.47220071 58.95677049 2.50245364 64.21091625 2.54106331 69.46517372 C2.55269669 71.46615439 2.55864351 73.46717666 2.55874443 75.46819115 C2.55893713 78.27355427 2.57725267 81.07828095 2.59936523 83.88354492 C2.59478806 84.70615311 2.59021088 85.52876129 2.585495 86.376297 C2.59514282 87.14871735 2.60479065 87.9211377 2.61473083 88.71696472 C2.61674216 89.37897983 2.61875349 90.04099493 2.62082577 90.7230711 C3.05695663 93.8984453 3.05695663 93.8984453 6 100 C-9.18 100 -24.36 100 -40 100 C-38.515 96.535 -38.515 96.535 -37 93 C-36.54003675 89.45921964 -36.54003675 89.45921964 -36.58007812 85.7512207 C-36.57160858 85.06412018 -36.56313904 84.37701965 -36.55441284 83.6690979 C-36.5312067 81.42113231 -36.53001611 79.17385699 -36.53125 76.92578125 C-36.52414231 75.35352814 -36.51644242 73.78127761 -36.50817871 72.20903015 C-36.49477451 68.92500577 -36.49314845 65.64122172 -36.49902344 62.35717773 C-36.504939 58.15019293 -36.47423414 53.94435445 -36.43390656 49.73759174 C-36.40806493 46.49561863 -36.40514841 43.25392371 -36.40879822 40.0118618 C-36.40710598 38.46050301 -36.39745333 36.90913152 -36.37965393 35.35787392 C-36.35751387 33.19132846 -36.36713381 31.02713311 -36.38476562 28.8605957 C-36.38271118 27.62928421 -36.38065674 26.39797272 -36.37854004 25.12934875 C-36.72984815 21.79328679 -36.72984815 21.79328679 -39.53845215 19.57121277 C-40.35076294 19.05271255 -41.16307373 18.53421234 -42 18 C-41 15 -41 15 -38.734375 13.60546875 C-37.74953125 13.13753906 -36.7646875 12.66960938 -35.75 12.1875 C-34.12384766 11.41019531 -34.12384766 11.41019531 -32.46484375 10.6171875 C-30.74974609 9.81667969 -30.74974609 9.81667969 -29 9 C-27.33130859 8.19949219 -27.33130859 8.19949219 -25.62890625 7.3828125 C-8.2573534 -0.84258708 -8.2573534 -0.84258708 0 0 Z " fill="#B11F1F" transform="translate(756,537)"/>
<path d="M0 0 C2.59998625 2.59998625 2.2470825 4.40390417 2.27897644 7.94606018 C2.27514702 9.19515419 2.27514702 9.19515419 2.27124023 10.46948242 C2.27646698 11.34610535 2.28169373 12.22272827 2.28707886 13.12591553 C2.29733774 15.03403617 2.30310254 16.94218494 2.30496025 18.85033226 C2.3086147 21.87279253 2.32531785 24.89492193 2.34571838 27.91731262 C2.40120663 36.51227659 2.43176814 45.10729053 2.45629883 53.70239258 C2.47220071 58.95677049 2.50245364 64.21091625 2.54106331 69.46517372 C2.55269669 71.46615439 2.55864351 73.46717666 2.55874443 75.46819115 C2.55893713 78.27355427 2.57725267 81.07828095 2.59936523 83.88354492 C2.59478806 84.70615311 2.59021088 85.52876129 2.585495 86.376297 C2.59514282 87.14871735 2.60479065 87.9211377 2.61473083 88.71696472 C2.61674216 89.37897983 2.61875349 90.04099493 2.62082577 90.7230711 C3.05695663 93.8984453 3.05695663 93.8984453 6 100 C-9.18 100 -24.36 100 -40 100 C-38.515 96.535 -38.515 96.535 -37 93 C-36.54003675 89.45921964 -36.54003675 89.45921964 -36.58007812 85.7512207 C-36.57160858 85.06412018 -36.56313904 84.37701965 -36.55441284 83.6690979 C-36.5312067 81.42113231 -36.53001611 79.17385699 -36.53125 76.92578125 C-36.52414231 75.35352814 -36.51644242 73.78127761 -36.50817871 72.20903015 C-36.49477451 68.92500577 -36.49314845 65.64122172 -36.49902344 62.35717773 C-36.504939 58.15019293 -36.47423414 53.94435445 -36.43390656 49.73759174 C-36.40806493 46.49561863 -36.40514841 43.25392371 -36.40879822 40.0118618 C-36.40710598 38.46050301 -36.39745333 36.90913152 -36.37965393 35.35787392 C-36.35751387 33.19132846 -36.36713381 31.02713311 -36.38476562 28.8605957 C-36.38271118 27.62928421 -36.38065674 26.39797272 -36.37854004 25.12934875 C-36.72984815 21.79328679 -36.72984815 21.79328679 -39.53845215 19.57121277 C-40.35076294 19.05271255 -41.16307373 18.53421234 -42 18 C-41 15 -41 15 -38.734375 13.60546875 C-37.74953125 13.13753906 -36.7646875 12.66960938 -35.75 12.1875 C-34.12384766 11.41019531 -34.12384766 11.41019531 -32.46484375 10.6171875 C-30.74974609 9.81667969 -30.74974609 9.81667969 -29 9 C-27.33130859 8.19949219 -27.33130859 8.19949219 -25.62890625 7.3828125 C-8.2573534 -0.84258708 -8.2573534 -0.84258708 0 0 Z " fill="#B11F1F" transform="translate(632,537)"/>
<path d="M0 0 C1.80173201 1.80173201 1.13037772 4.26209874 1.14344788 6.66139221 C1.14291916 7.47430222 1.14239044 8.28721222 1.1418457 9.12475586 C1.14532013 9.97690674 1.14879456 10.82905762 1.15237427 11.70703125 C1.15974744 13.565519 1.16508446 15.42401565 1.16866493 17.28251457 C1.17581815 20.23004693 1.19147941 23.17741161 1.21000671 26.12489319 C1.26250629 34.50844923 1.31038734 42.89191818 1.32592773 51.27563477 C1.33604896 56.39927201 1.3654873 61.52249456 1.40724754 66.64596748 C1.41951313 68.59422216 1.42468697 70.54253556 1.42244911 72.49082756 C1.42007778 75.23122673 1.4424036 77.97045348 1.4699707 80.71069336 C1.46336929 81.50538528 1.45676788 82.30007721 1.44996643 83.11885071 C1.56223168 89.97274393 3.19098959 92.97747398 6 100 C-9.18 100 -24.36 100 -40 100 C-39.01 96.7 -38.02 93.4 -37 90 C-36.56694277 86.31575689 -36.56694277 86.31575689 -36.62768555 82.76196289 C-36.62403488 82.11183228 -36.62038422 81.46170166 -36.61662292 80.79187012 C-36.60864535 78.6851832 -36.62200733 76.57929656 -36.63671875 74.47265625 C-36.63723846 72.99197897 -36.63671647 71.51130099 -36.63520813 70.03062439 C-36.63529725 66.94861366 -36.64561024 63.86686783 -36.66381836 60.78491211 C-36.68664389 56.8349697 -36.68701809 52.88540857 -36.68030071 48.93541813 C-36.67696303 45.88739121 -36.68358468 42.83945137 -36.69342995 39.79144096 C-36.69727525 38.33418673 -36.69843294 36.87692282 -36.6968441 35.41966438 C-36.69647369 33.39051252 -36.71056482 31.36137348 -36.7253418 29.33227539 C-36.72994919 28.17885147 -36.73455658 27.02542755 -36.73930359 25.83705139 C-36.7915968 22.79668162 -36.7915968 22.79668162 -39 20 C-39.99 19.67 -40.98 19.34 -42 19 C-42 17.68 -42 16.36 -42 15 C-9.06303468 -1.04573477 -9.06303468 -1.04573477 0 0 Z " fill="#B01C1C" transform="translate(255,537)"/>
<path d="M0 0 C3.64775399 3.27362537 5.76207921 7.28496796 6.19326782 12.20547485 C6.28146158 14.96825091 6.30335943 17.72408467 6.30078125 20.48828125 C6.30506638 21.50544724 6.3093515 22.52261322 6.31376648 23.57060242 C6.31950121 25.7198309 6.32001636 27.8690788 6.31567383 30.01831055 C6.31252115 33.29054283 6.33595903 36.56186425 6.36132812 39.83398438 C6.36360207 41.9270822 6.36430417 44.02018244 6.36328125 46.11328125 C6.372491 47.08437332 6.38170074 48.05546539 6.39118958 49.0559845 C6.34381735 56.08511138 5.16682843 61.38861929 1.5 67.5 C-2.75294159 70.05176495 -7.19082155 69.66555595 -12 69 C-15.56350527 67.40779552 -16.59429589 65.92494999 -18.14453125 62.390625 C-19.18385154 59.61420755 -20.1185923 56.83001002 -21 54 C-21.495 52.515 -21.495 52.515 -22 51 C-22.22847368 46.83727878 -22.22834832 42.67415461 -22.24023438 38.50561523 C-22.24985216 36.46880862 -22.28084481 34.43305049 -22.3125 32.39648438 C-22.35586949 21.39689634 -21.04605173 11.79701668 -14 3 C-9.96759365 -0.5843612 -5.18979436 -1.03990262 0 0 Z " fill="#FEFCFC" transform="translate(922,552)"/>
<path d="M0 0 C4.64630271 0.1193272 7.20681225 1.24381083 10.75 4.375 C18.45289773 14.21759155 17.94770152 25.8259462 18 37.75 C18.020625 38.91789063 18.04125 40.08578125 18.0625 41.2890625 C18.10603173 50.99663871 16.94315397 59.63355754 10.75 67.375 C6.28784943 70.34976704 1.97563431 70.23191221 -3.25 69.375 C-7.99247206 65.50359423 -9.21380876 61.33654412 -10.25 55.375 C-10.53637498 51.92512727 -10.57754677 48.49187759 -10.5859375 45.03125 C-10.5925943 44.06272095 -10.5992511 43.09419189 -10.60610962 42.09631348 C-10.61618406 40.05918259 -10.62092826 38.02201905 -10.62060547 35.98486328 C-10.62498744 32.88388503 -10.66138702 29.78432168 -10.69921875 26.68359375 C-10.70508641 24.69531732 -10.70905614 22.7070342 -10.7109375 20.71875 C-10.72530853 19.80081665 -10.73967957 18.8828833 -10.75448608 17.93713379 C-10.70282248 10.59464506 -8.96154985 0.15240731 0 0 Z " fill="#FEFDFD" transform="translate(481.25,551.625)"/>
<path d="M0 0 C5.37674714 3.18215647 8.97492025 6.87937861 11.0625 12.8125 C11.80274419 19.42399604 11.5967729 26.0099624 8.0625 31.8125 C4.14683342 36.22325085 -0.38409534 38.52268705 -6.20703125 39.18359375 C-18.26197464 39.40954087 -18.26197464 39.40954087 -23.31640625 35.55078125 C-27.79052381 30.7532335 -30.18713902 25.23739599 -30.5 18.6875 C-30.17109982 13.02508341 -28.40971338 8.41030711 -24.4765625 4.27734375 C-17.51076611 -1.78678864 -8.80028121 -3.41156276 0 0 Z " fill="#B11E1E" transform="translate(747.9375,490.1875)"/>
<path d="M0 0 C5.37674714 3.18215647 8.97492025 6.87937861 11.0625 12.8125 C11.80274419 19.42399604 11.5967729 26.0099624 8.0625 31.8125 C4.14683342 36.22325085 -0.38409534 38.52268705 -6.20703125 39.18359375 C-18.26197464 39.40954087 -18.26197464 39.40954087 -23.31640625 35.55078125 C-27.79052381 30.7532335 -30.18713902 25.23739599 -30.5 18.6875 C-30.17109982 13.02508341 -28.40971338 8.41030711 -24.4765625 4.27734375 C-17.51076611 -1.78678864 -8.80028121 -3.41156276 0 0 Z " fill="#B11E1E" transform="translate(623.9375,490.1875)"/>
<path d="M0 0 C4.52495137 2.66228947 7.23376937 6.09717606 9.875 10.625 C11.6249432 17.62477279 11.1606741 24.04717658 7.5625 30.375 C3.5614415 35.13301552 -0.57656154 37.9767255 -6.8046875 38.84375 C-13.29342584 38.90155613 -18.56097777 38.9442651 -23.88671875 34.94140625 C-28.47565704 30.3062318 -30.57335294 24.70697058 -30.8125 18.25 C-30.7490462 12.26154763 -29.17006367 8.0504248 -25.4375 3.375 C-18.69817477 -2.70724102 -8.20100195 -3.77183486 0 0 Z " fill="#B01D1D" transform="translate(247.4375,490.625)"/>
<path d="M0 0 C5.90867739 2.96459682 10.54537908 6.62627714 14.25 12.12890625 C15.45074559 15.83241071 15.5966301 19.24664912 15.25 23.12890625 C12.32533038 27.70665001 7.28945561 28.88583101 2.25 30.12890625 C-1.32456943 30.54770949 -4.84146725 30.59476206 -8.4375 30.56640625 C-9.34822266 30.58638672 -10.25894531 30.60636719 -11.19726562 30.62695312 C-16.88454287 30.62282293 -20.27890624 29.98451716 -24.75 26.12890625 C-29.31814629 19.82801482 -29.66438198 12.71412039 -28.75 5.12890625 C-26.625 2.06640625 -26.625 2.06640625 -23.75 0.12890625 C-22.4196875 -0.76828125 -22.4196875 -0.76828125 -21.0625 -1.68359375 C-13.60209116 -4.35807994 -7.10843935 -3.18769077 0 0 Z " fill="#FDFBFB" transform="translate(811.75,554.87109375)"/>
</svg>
