<?xml version="1.0" encoding="UTF-8"?>
<svg version="1.1" xmlns="http://www.w3.org/2000/svg" width="1110" height="858">
<path d="M0 0 C366.3 0 732.6 0 1110 0 C1110 283.14 1110 566.28 1110 858 C743.7 858 377.4 858 0 858 C0 574.86 0 291.72 0 0 Z " fill="#FEFEFE" transform="translate(0,0)"/>
<path d="M0 0 C1.82337891 -0.01836914 1.82337891 -0.01836914 3.68359375 -0.03710938 C10.77860131 -0.04858997 17.23734877 0.5161976 24.125 2.1875 C25.36507813 2.43371094 26.60515625 2.67992187 27.8828125 2.93359375 C28.99398438 3.16175781 30.10515625 3.38992188 31.25 3.625 C32.92449219 3.96337891 32.92449219 3.96337891 34.6328125 4.30859375 C41.84386222 6.12345526 48.43824634 9.1706891 55.125 12.375 C56.28708984 12.92704102 56.28708984 12.92704102 57.47265625 13.49023438 C59.35815046 14.38642607 61.24177562 15.28654834 63.125 16.1875 C63.125 16.8475 63.125 17.5075 63.125 18.1875 C63.85589844 18.29320312 64.58679688 18.39890625 65.33984375 18.5078125 C81.14829154 22.36569457 96.8498551 43.56050016 106 55.875 C106.4525415 56.48053711 106.90508301 57.08607422 107.37133789 57.70996094 C111.93248916 63.99122542 115.0141724 70.43146337 117.35205078 77.82080078 C118.1651855 80.31054431 119.08290638 82.74079268 120.02734375 85.18359375 C125.16873531 98.77799372 127.75359066 111.90742354 129.70703125 126.27148438 C132.60570592 146.49448104 140.95603973 166.83556622 157.125 180.1875 C159.94137564 181.8875156 159.94137564 181.8875156 163.125 183.1875 C163.80820312 183.56519531 164.49140625 183.94289063 165.1953125 184.33203125 C183.26822359 194.20353879 208.54769544 196.89330786 228.36328125 191.15234375 C229.27464844 190.83394531 230.18601562 190.51554688 231.125 190.1875 C232.10855469 189.85878906 233.09210937 189.53007813 234.10546875 189.19140625 C253.49969546 181.94052459 265.69143837 167.8469151 274.37109375 149.5625 C276.87282137 143.64401599 278.53238279 137.48725506 280.1953125 131.2890625 C280.9739541 128.69140943 281.88087377 126.57320395 283.125 124.1875 C290.08503447 124.16223162 297.0450572 124.14466778 304.00512695 124.13256836 C306.37492312 124.12752659 308.74471615 124.12069335 311.11450195 124.11206055 C314.51254039 124.0999881 317.91053785 124.09427029 321.30859375 124.08984375 C322.37524765 124.08468246 323.44190155 124.07952118 324.5408783 124.07420349 C326.01229027 124.07409019 326.01229027 124.07409019 327.51342773 124.07397461 C328.38168686 124.071754 329.24994598 124.06953339 330.14451599 124.06724548 C332.125 124.1875 332.125 124.1875 333.125 125.1875 C334.88368225 149.26791844 326.79155944 170.56809517 315.125 191.1875 C314.61126831 192.11864624 314.61126831 192.11864624 314.0871582 193.06860352 C298.39191551 221.23984293 269.70299442 241.70045229 239.18945312 250.60595703 C209.32030401 259.01990135 176.14082567 256.95950205 148.625 241.9375 C146.45502663 240.69324921 144.28802009 239.44379955 142.125 238.1875 C140.65160156 237.4759375 140.65160156 237.4759375 139.1484375 236.75 C135.60989765 234.92129723 132.47011656 232.77010266 129.25 230.4375 C128.32973022 229.77488159 128.32973022 229.77488159 127.39086914 229.09887695 C97.71362905 207.49867671 81.55655743 176.40384101 75.87890625 140.609375 C75.45629355 137.88611817 75.04015132 135.16190282 74.625 132.4375 C71.58606691 112.57410235 66.31170048 89.93528038 49.46679688 76.90478516 C41.3007503 71.17122525 32.83647156 67.51825318 23.125 65.1875 C22.05121094 64.89101563 20.97742188 64.59453125 19.87109375 64.2890625 C0.10719044 59.29655854 -22.7301611 61.09924816 -40.7421875 70.71875 C-51.89647419 77.41764172 -60.67091371 85.7193405 -66.875 97.1875 C-67.25011719 97.85652344 -67.62523437 98.52554688 -68.01171875 99.21484375 C-74.64393129 112.45305456 -76.4202906 128.00448906 -78.42578125 142.45605469 C-82.0813619 168.31781375 -92.98135799 193.8228095 -111.39355469 212.66503906 C-112.73583248 214.04447946 -114.03114742 215.46923532 -115.3203125 216.8984375 C-131.70540395 234.50546797 -155.35379894 246.37382646 -178.609375 251.609375 C-180.82782194 251.97021515 -180.82782194 251.97021515 -181.875 253.1875 C-186.85533271 254.08368243 -191.74563225 254.34734975 -196.79296875 254.35546875 C-197.53146561 254.35879715 -198.26996246 254.36212555 -199.03083801 254.36555481 C-200.58638899 254.37058935 -202.14195065 254.37296422 -203.69750977 254.37280273 C-206.03876239 254.37497795 -208.37953428 254.39313958 -210.72070312 254.41210938 C-223.80632216 254.46493914 -235.25221253 252.7799897 -247.625 248.3125 C-249.08873047 247.80396484 -249.08873047 247.80396484 -250.58203125 247.28515625 C-256.23685673 245.28351547 -261.5947835 243.03215454 -266.875 240.1875 C-267.926875 239.62546875 -268.97875 239.0634375 -270.0625 238.484375 C-270.990625 237.97390625 -271.91875 237.4634375 -272.875 236.9375 C-273.82375 236.41671875 -274.7725 235.8959375 -275.75 235.359375 C-276.45125 234.97265625 -277.1525 234.5859375 -277.875 234.1875 C-277.875 233.5275 -277.875 232.8675 -277.875 232.1875 C-278.7103125 231.7853125 -278.7103125 231.7853125 -279.5625 231.375 C-282.08725334 230.07850504 -284.51214484 228.76273677 -286.875 227.1875 C-286.875 226.5275 -286.875 225.8675 -286.875 225.1875 C-287.45983154 224.92646484 -288.04466309 224.66542969 -288.6472168 224.39648438 C-292.61360954 222.2439828 -295.53058715 218.86977249 -298.6875 215.6875 C-299.41018066 214.95917969 -300.13286133 214.23085938 -300.87744141 213.48046875 C-305.86707196 208.37638153 -310.13721817 203.28035201 -313.875 197.1875 C-314.67830159 195.97347753 -315.48454537 194.76139913 -316.29296875 193.55078125 C-328.24085816 175.41781442 -334.95280317 155.12022951 -335.0625 133.3125 C-335.08376953 131.36730469 -335.08376953 131.36730469 -335.10546875 129.3828125 C-334.875 126.1875 -334.875 126.1875 -332.875 124.1875 C-330.81222534 123.94699097 -330.81222534 123.94699097 -328.24169922 123.96044922 C-327.28085419 123.96060028 -326.32000916 123.96075134 -325.33004761 123.96090698 C-324.29042877 123.97122955 -323.25080994 123.98155212 -322.1796875 123.9921875 C-321.11710724 123.9950174 -320.05452698 123.99784729 -318.95974731 124.00076294 C-315.55638501 124.01198361 -312.15328314 124.03709163 -308.75 124.0625 C-306.44661838 124.07252736 -304.14323264 124.08165363 -301.83984375 124.08984375 C-296.18480655 124.11192907 -290.52992187 124.14542511 -284.875 124.1875 C-284.639021 124.87150879 -284.40304199 125.55551758 -284.15991211 126.26025391 C-276.42838352 148.54249308 -268.74134183 169.80941376 -248.875 184.1875 C-245.62727767 185.62189276 -245.62727767 185.62189276 -242.125 186.75 C-240.40023437 187.33974609 -240.40023437 187.33974609 -238.640625 187.94140625 C-237.39796875 188.35261719 -236.1553125 188.76382813 -234.875 189.1875 C-234.16867432 189.44354004 -233.46234863 189.69958008 -232.73461914 189.96337891 C-227.4379448 191.84579659 -222.40276038 192.90115857 -216.8125 193.4375 C-215.99322021 193.51830811 -215.17394043 193.59911621 -214.32983398 193.68237305 C-195.94559556 195.28386186 -176.0640211 192.59208992 -161.13574219 180.81542969 C-160.33765137 180.1294873 -160.33765137 180.1294873 -159.5234375 179.4296875 C-156.875 177.1875 -156.875 177.1875 -154.875 177.1875 C-154.63007813 176.61515625 -154.38515625 176.0428125 -154.1328125 175.453125 C-152.66406587 172.80755653 -150.89282061 171.07285433 -148.75 168.9375 C-137.27137294 156.18552042 -134.22675873 141.83673302 -131.41308594 125.33837891 C-130.73188097 121.34943547 -130.00293715 117.3705776 -129.25683594 113.39331055 C-128.93131137 111.65545468 -128.61357717 109.91611137 -128.30566406 108.17504883 C-127.29329865 102.64818756 -125.78310071 97.46908459 -123.875 92.1875 C-123.51752686 91.18348145 -123.51752686 91.18348145 -123.15283203 90.15917969 C-122.4487848 88.20495058 -121.72870533 86.25766131 -121 84.3125 C-120.74460449 83.62994141 -120.48920898 82.94738281 -120.22607422 82.24414062 C-118.02598782 76.44081676 -115.55560936 70.78594079 -112.875 65.1875 C-112.215 65.1875 -111.555 65.1875 -110.875 65.1875 C-110.48634766 64.12789063 -110.48634766 64.12789063 -110.08984375 63.046875 C-108.78204658 59.96871575 -107.21638291 57.26841043 -105.4375 54.4375 C-104.54224609 52.99117188 -104.54224609 52.99117188 -103.62890625 51.515625 C-101.875 49.1875 -101.875 49.1875 -98.875 48.1875 C-97.65630071 45.68302484 -97.65630071 45.68302484 -96.875 43.1875 C-96.215 43.1875 -95.555 43.1875 -94.875 43.1875 C-94.52695312 42.35605469 -94.52695312 42.35605469 -94.171875 41.5078125 C-83.93381189 23.19031404 -57.85677808 11.24091442 -38.875 5.1875 C-25.83257748 1.5710531 -13.54875277 0.00713844 0 0 Z " fill="#8BA1B9" transform="translate(552.875,359.8125)"/>
<path d="M0 0 C0.99 0 1.98 0 3 0 C3 0.66 3 1.32 3 2 C3.86885456 2.22413606 4.73770912 2.44827211 5.63289261 2.67920017 C9.48061856 4.18853005 11.96484476 6.30139447 14.87371826 9.13279724 C15.43041096 9.66092465 15.98710367 10.18905206 16.56066585 10.73318332 C18.38681179 12.47582139 20.19550017 14.23496829 22 16 C22.60736527 16.59295215 23.21473055 17.1859043 23.84050083 17.79682469 C28.59955926 22.45728967 33.31144839 27.16435741 38.02050781 31.87524414 C39.58396099 33.43569782 41.1476164 34.9959489 42.7114563 36.55601501 C46.92017917 40.75597929 51.1257256 44.95910982 55.33039188 49.16313481 C57.96372904 51.79575742 60.59777857 54.42766512 63.23207855 57.05932426 C71.96594967 65.78444657 80.69778045 74.51160307 89.42690149 83.24147768 C89.89510603 83.70972217 90.36331057 84.17796667 90.84570312 84.66040039 C91.31448917 85.12922732 91.78327522 85.59805425 92.26626691 86.08108806 C99.87285331 93.6880814 107.48442536 101.2900644 115.09825173 108.88981063 C122.94818267 116.72534091 130.79425066 124.56472396 138.63664508 132.40779775 C143.02692241 136.79832915 147.41871358 141.18731864 151.81443024 145.57240486 C155.94594722 149.69420007 160.07258122 153.82082357 164.19561386 157.95110512 C165.70267673 159.4592084 167.21142398 160.96563078 168.72204208 162.47017288 C175.88569754 169.60689257 182.8347856 176.70318346 189.11631393 184.63900471 C191.86928105 188.0895491 194.84011213 191.304802 197.875 194.50708008 C198.50591553 195.17608998 199.13683105 195.84509989 199.78686523 196.53438282 C207.1683258 204.30759408 214.79693081 211.83200476 222.43218994 219.35452843 C226.89938964 223.75976074 231.35037994 228.18134873 235.8046875 232.59960938 C241.43504376 238.18188769 247.06981286 243.75954236 252.71972656 249.32202148 C257.3275296 253.85980295 261.92073753 258.41190441 266.50439453 262.9740696 C268.24702438 264.70309656 269.99506097 266.42669175 271.74853516 268.14472008 C274.18221175 270.53042015 276.59685665 272.93390177 279.0078125 275.3425293 C279.73590118 276.04747528 280.46398987 276.75242126 281.21414185 277.47872925 C281.86422211 278.13561234 282.51430237 278.79249542 283.18408203 279.46928406 C283.75546906 280.03384151 284.32685608 280.59839895 284.91555786 281.1800642 C286 283 286 283 285.67599487 285.72066975 C285.45291656 286.47284873 285.22983826 287.22502771 285 288 C280.66468586 288.89944277 276.32495769 289.76978814 271.97802734 290.61083984 C270.31141192 290.93873234 268.64923597 291.28907401 266.98828125 291.64453125 C259.48798186 293.06682541 252.04806845 293.20809774 244.4375 293.25 C243.39674316 293.25926514 242.35598633 293.26853027 241.28369141 293.27807617 C218.64223345 293.18713946 202.75800306 285.30858537 186.328125 270.14453125 C184.27623781 268.25445395 182.18599121 266.43342036 180.0625 264.625 C172.86434142 258.34482521 166.14265987 251.48875348 159.94140625 244.2265625 C157.35519037 241.2604799 154.67764346 238.38345834 152 235.5 C148.69511285 231.94014845 145.41768672 228.37102562 142.25 224.6875 C139.31379377 221.28805735 136.16829306 218.15031932 132.96875 215 C130.44574541 212.43694772 128.12437183 209.72654176 125.78125 207 C123.29742572 204.21114467 120.63288563 201.62313017 117.97265625 199.00390625 C115.42662171 196.41753849 113.07978443 193.6846472 110.71484375 190.93359375 C109.03995701 189.04505403 107.30052413 187.26844352 105.5 185.5 C103.20673964 183.24202057 101.03571972 180.94003496 98.9375 178.5 C95.45172354 174.44768651 91.79186916 170.57473971 88.125 166.6875 C84.1320175 162.44531377 80.25001156 158.19112033 76.625 153.625 C66.58539939 141.11240953 54.97505252 129.83589907 43.55908203 118.59570312 C40.10044426 115.17629236 36.72234304 111.74752866 33.55078125 108.05859375 C29.35453153 103.17817945 24.80969709 98.66355476 20.25 94.125 C19.40050781 93.27164063 18.55101562 92.41828125 17.67578125 91.5390625 C16.85980469 90.724375 16.04382813 89.9096875 15.203125 89.0703125 C14.46739258 88.33570801 13.73166016 87.60110352 12.97363281 86.84423828 C10.93552057 84.83944386 10.93552057 84.83944386 8 83 C-0.17300772 83.30841539 -4.90079505 87.62490063 -10.4375 93.25 C-10.91485596 93.73380127 -11.39221191 94.21760254 -11.8840332 94.71606445 C-15.16659774 98.06966336 -18.27927824 101.53729264 -21.32421875 105.10546875 C-23.13977378 107.15801931 -25.04759536 109.07746006 -27 111 C-29.53814799 113.49939764 -31.94128303 116.03781792 -34.25 118.75 C-37.78058333 122.86361544 -41.59446024 126.65503712 -45.47363281 130.43652344 C-48.22648703 133.14162969 -50.82600225 135.91740776 -53.34375 138.84375 C-57.85029628 144.05351559 -62.77207584 148.82087592 -67.68359375 153.64453125 C-71.75890466 157.67562541 -75.62703245 161.79771943 -79.36523438 166.14257812 C-81.78527899 168.89223455 -84.37840381 171.44437776 -87 174 C-90.28673187 177.24215227 -93.50758336 180.47950983 -96.5 184 C-99.97476522 188.08795909 -103.77950812 191.80672837 -107.59326172 195.57373047 C-110.97080861 198.92582646 -114.14248896 202.38214556 -117.2265625 206.0078125 C-120.1228999 209.26140738 -123.25515272 212.27475396 -126.375 215.3125 C-128.33303954 217.31715953 -130.14308877 219.31791813 -131.95483398 221.44604492 C-136.84273303 227.04942054 -142.10193084 232.28625872 -147.34765625 237.55078125 C-148.15580686 238.36317292 -148.15580686 238.36317292 -148.98028374 239.19197655 C-151.83369181 242.06028488 -154.68989456 244.92577393 -157.54858398 247.78881836 C-160.46074695 250.70644201 -163.36352005 253.6332192 -166.26412296 256.56232929 C-168.53188216 258.84895284 -170.80655638 261.12860722 -173.08300591 263.40657616 C-174.15413493 264.48068065 -175.22282745 265.55722195 -176.28874397 266.6364994 C-193.97403752 284.52750799 -209.46185154 294.6326815 -235.125 295.3125 C-248.73485898 295.11023033 -263.07561468 293.35182143 -276 289 C-276.99 288.67 -277.98 288.34 -279 288 C-278.77335315 277.12095126 -267.99716227 269.85140398 -260.78540039 262.65600586 C-259.77252435 261.6417718 -258.75986052 260.62732578 -257.74739075 259.61268616 C-255.01827362 256.87904246 -252.28604174 254.14853258 -249.55306935 251.41874385 C-246.68055682 248.54877975 -243.81050389 245.67635757 -240.94004822 242.80433655 C-236.12108907 237.98356292 -231.30003647 233.16489045 -226.4777832 228.34741211 C-220.91879601 222.79386614 -215.36342019 217.23672715 -209.80990607 211.67770857 C-205.02426654 206.88751732 -200.23666385 202.09929473 -195.44744295 197.31268412 C-192.59468182 194.46147446 -189.74258259 191.6096115 -186.8922596 188.75596428 C-184.21129145 186.0720874 -181.52785047 183.3907068 -178.84255791 180.71115685 C-177.86299885 179.73290939 -176.88426988 178.75382984 -175.90647888 177.77381516 C-171.07490116 172.93227151 -166.19596802 168.2404064 -161.0091486 163.78246212 C-156.97157772 160.20043879 -153.20118491 156.33957099 -149.39038086 152.51977539 C-148.46411392 151.59526077 -147.53784698 150.67074615 -146.58351135 149.71821594 C-144.0647388 147.2039655 -141.54909548 144.68660652 -139.03417659 142.16850209 C-136.38843138 139.5202061 -133.74022548 136.87437244 -131.09242249 134.22813416 C-126.64827668 129.78580215 -122.20623077 125.34137858 -117.76538086 120.89575195 C-112.64808715 115.77301715 -107.52720125 110.65389447 -102.4044351 105.5366326 C-97.98791276 101.12466391 -93.57336171 96.71072989 -89.16042048 92.29517931 C-86.53277558 89.665984 -83.90448029 87.03744841 -81.2743969 84.41069221 C-78.34012331 81.47987222 -75.40999406 78.54494166 -72.48022461 75.60961914 C-71.1903212 74.32275208 -71.1903212 74.32275208 -69.87435913 73.0098877 C-65.0461575 68.16479063 -60.44709708 63.19568701 -56 58 C-46.11344288 46.92979595 -35.59723804 36.51077805 -25.0625 26.0625 C-21.75878016 22.7854923 -18.45848485 19.50508918 -15.16015625 16.22265625 C-14.4142775 15.48507584 -13.66839874 14.74749542 -12.8999176 13.98756409 C-9.81878866 10.9209403 -6.8353641 7.88011793 -4.11499023 4.48608398 C-3.06807007 3.25547241 -3.06807007 3.25547241 -2 2 C-1.34 2 -0.68 2 0 2 C0 1.34 0 0.68 0 0 Z " fill="#84936A" transform="translate(549,156)"/>
<path d="M0 0 C6.78359752 6.05758574 13.25063915 12.39726222 19.67155457 18.83216858 C20.78378021 19.94371827 21.89615407 21.05511967 23.00866699 22.16638184 C25.32215594 24.47840878 27.63385829 26.79220282 29.94425964 29.10731506 C32.88583563 32.05460086 35.83189831 34.99735449 38.77931499 37.93879795 C41.07098311 40.22683118 43.36023798 42.51726707 45.64879799 44.80840874 C46.73358384 45.89385508 47.81909465 46.97857746 48.90538597 48.06251717 C54.74706416 53.89431253 60.42172739 59.80033721 65.78483582 66.07826233 C66.99114702 67.39722065 68.20467953 68.70972215 69.43327332 70.00794983 C70.35366394 70.98441467 70.35366394 70.98441467 71.29264832 71.98060608 C71.90882019 72.63158264 72.52499207 73.2825592 73.15983582 73.95326233 C77.04762172 78.06344276 80.89302719 82.19541274 84.63568115 86.43859863 C90.87152359 93.37251256 97.48761624 99.92103559 104.08537292 106.50819397 C105.51221505 107.93639358 106.93884489 109.36480529 108.36528015 110.79341125 C112.21160644 114.64426729 116.06105366 118.49198888 119.91123652 122.33898854 C123.94633493 126.37154415 127.97898053 130.40655145 132.01202393 134.44116211 C138.77442343 141.20537604 145.53891825 147.96748917 152.30461121 154.72840881 C160.13250812 162.55084688 167.95677234 170.37690463 175.77919382 178.20481783 C182.50192901 184.9320839 189.22660195 191.6574083 195.95291334 198.38109869 C199.9679978 202.3946225 203.98239953 206.40882292 207.99505424 210.42477608 C211.75946797 214.19206873 215.52630085 217.95692533 219.29505157 221.71987915 C220.68027951 223.10378036 222.06464891 224.48854153 223.4481144 225.87420464 C225.32982482 227.7586295 227.21455881 229.63997595 229.10012817 231.52053833 C229.65235092 232.07499179 230.20457366 232.62944526 230.77353042 233.20070034 C233.51829298 235.98488407 233.51829298 235.98488407 236.78483582 238.07826233 C236.53483582 240.95326233 236.53483582 240.95326233 235.78483582 244.07826233 C232.49732467 246.36251917 228.92145569 246.64141824 225.01921082 247.14857483 C224.02579681 247.27805008 224.02579681 247.27805008 223.01231384 247.41014099 C220.85437204 247.68570245 218.69511053 247.94665972 216.53483582 248.20326233 C215.79918396 248.29164368 215.0635321 248.38002502 214.30558777 248.47108459 C204.64134796 249.613308 195.02550045 250.48919947 185.28483582 250.57826233 C184.34478699 250.59647034 183.40473816 250.61467834 182.436203 250.63343811 C161.69564018 250.44845675 143.546582 230.11576031 129.90544128 216.37171936 C126.32641326 212.72297613 122.88096699 209.00623186 119.58561707 205.09779358 C117.09859047 202.30865529 114.44267038 199.7037533 111.78483582 197.07826233 C108.56274238 193.89537904 105.39431141 190.73136129 102.47233582 187.26576233 C98.97036784 183.14122227 95.1261861 179.38255183 91.28483582 175.57826233 C86.9195188 171.25498014 82.67869613 166.93149392 78.71842957 162.23060608 C75.86533352 159.05473553 72.81860519 156.08066681 69.78483582 153.07826233 C62.42767109 145.7971603 62.42767109 145.7971603 59.34733582 142.14076233 C55.32436879 137.37699319 50.82521677 133.06923344 46.37687683 128.70741272 C43.2713486 125.64397688 40.28115742 122.54682066 37.44108582 119.23451233 C33.14843734 114.25619897 28.46525905 109.6888285 23.78483582 105.07826233 C18.46311167 99.8359669 13.26156241 94.5863211 8.39811707 88.91419983 C5.8322917 85.99425329 3.06374913 83.29346602 0.28483582 80.57826233 C-3.79389379 76.55035802 -7.70091165 72.47566458 -11.41047668 68.10169983 C-14.19164093 64.98342476 -17.18902096 62.08380635 -20.16218567 59.15077209 C-22.85332857 56.48189688 -25.43396423 53.76620461 -27.90266418 50.89076233 C-37.91971898 39.23199818 -37.91971898 39.23199818 -51.91047668 33.63685608 C-63.66075456 33.11796916 -73.9070398 38.4622477 -82.5115509 46.12269592 C-84.82883008 48.36235098 -87.09245312 50.64386451 -89.34016418 52.95326233 C-90.099422 53.71767639 -90.85867981 54.48209045 -91.64094543 55.26966858 C-95.75066053 59.43597184 -99.69449219 63.70110942 -103.51741028 68.1309967 C-106.41923126 71.45928605 -109.44152597 74.67338259 -112.46516418 77.89076233 C-113.11485168 78.58363342 -113.76453918 79.27650452 -114.43391418 79.9903717 C-119.07377836 84.917944 -123.8046724 89.72957803 -128.65266418 94.45326233 C-130.68066941 96.5307311 -132.57512774 98.62973717 -134.46516418 100.82826233 C-139.20374609 106.29506786 -144.38774768 111.2982857 -149.54328918 116.36732483 C-153.72217299 120.50356697 -157.70364915 124.71722525 -161.53547668 129.17591858 C-164.28435976 132.28918848 -167.24871211 135.17422729 -170.21516418 138.07826233 C-175.6311572 143.42195101 -175.6311572 143.42195101 -180.71516418 149.07826233 C-183.99913372 152.96540994 -187.60130262 156.5018065 -191.21516418 160.07826233 C-196.60054698 165.39027793 -196.60054698 165.39027793 -201.65266418 171.01576233 C-205.71457938 175.82565168 -210.27044502 180.15712945 -214.73957825 184.58314514 C-218.46517889 188.28651445 -222.02711647 192.04127551 -225.41438293 196.05873108 C-228.39795143 199.40472872 -231.62517312 202.5076999 -234.81355286 205.65711975 C-237.55890926 208.38182467 -240.20808943 211.12876261 -242.71516418 214.07826233 C-257.82547861 231.6280733 -274.61735577 245.04840078 -298.21516418 248.07826233 C-302.13751273 248.33610395 -306.03542613 248.36370211 -309.96516418 248.32826233 C-311.03266907 248.32367004 -312.10017395 248.31907776 -313.20002747 248.31434631 C-340.41349411 248.01215235 -340.41349411 248.01215235 -349.21516418 245.07826233 C-349.8916322 238.58416937 -348.06116417 235.23809001 -344.21516418 230.07826233 C-341.38438378 226.84958472 -338.3657864 223.83199796 -335.31567383 220.8112793 C-333.97016015 219.46086236 -333.97016015 219.46086236 -332.59746438 218.08316427 C-330.12255051 215.59964797 -327.63844127 213.12551604 -325.15265071 210.65289295 C-322.46750648 207.97868845 -319.79107114 205.29579169 -317.11352539 202.61398315 C-311.87253719 197.36737179 -306.62363127 192.12875148 -301.37202498 186.8927707 C-295.25177843 180.79009572 -289.1396305 174.67933619 -283.0278366 168.56819791 C-272.11904736 157.66109551 -261.2032186 146.76106593 -250.28327942 135.86512756 C-239.69678274 125.30188185 -229.1148355 114.73410781 -218.53816223 104.161026 C-217.88686005 103.50994658 -217.23555786 102.85886717 -216.56451925 102.18805807 C-215.25237652 100.87635796 -213.94023409 99.56465755 -212.62809195 98.25295684 C-211.98075625 97.60584071 -211.33342055 96.95872458 -210.66646862 96.29199886 C-210.02072715 95.64647338 -209.37498567 95.00094789 -208.70967628 94.33586102 C-198.6173999 84.24729051 -188.52129824 74.16254867 -178.42467156 64.0783322 C-174.77073117 60.42881858 -171.11728343 56.77881263 -167.46417924 53.12846201 C-161.66777549 47.33650103 -155.86969477 41.54622955 -150.06825515 35.75931232 C-147.41899054 33.11662978 -144.77047903 30.47320507 -142.12410736 27.82762527 C-139.25065305 24.95510932 -136.37332787 22.08650184 -133.49560547 19.21826172 C-132.66631017 18.38809994 -131.83701488 17.55793816 -130.98258942 16.70261997 C-126.21770079 11.96122058 -121.32587197 7.44377417 -116.21516418 3.07826233 C-115.33731262 2.30740295 -114.45946106 1.53654358 -113.55500793 0.74232483 C-104.42541376 -7.00669657 -89.82218931 -18.92173767 -77.21516418 -18.92173767 C-77.21516418 -19.58173767 -77.21516418 -20.24173767 -77.21516418 -20.92173767 C-50.39599745 -29.86145992 -20.21322977 -17.53573183 0 0 Z " fill="#85936B" transform="translate(609.2151641845703,68.92173767089844)"/>
<path d="M0 0 C11.71550832 8.89729411 21.34545276 23.68920288 25 38 C26.6909859 56.51174592 24.62272453 75.47752931 12.96484375 90.6484375 C10.73225002 93.2078483 8.41887746 95.616292 6 98 C5.19175781 98.80695313 4.38351562 99.61390625 3.55078125 100.4453125 C-1.80680364 105.5421672 -7.10997876 109.2836463 -14 112 C-14.94866943 112.38841064 -14.94866943 112.38841064 -15.91650391 112.78466797 C-22.07979075 115.10672719 -27.70273078 115.4701085 -34.25 115.375 C-35.77451782 115.3586853 -35.77451782 115.3586853 -37.32983398 115.34204102 C-44.87811151 115.18228592 -51.85220161 114.59060418 -59 112 C-60.09828125 111.60554687 -61.1965625 111.21109375 -62.328125 110.8046875 C-78.03347627 104.07885321 -89.94867741 90.32430289 -97 75 C-98.80185594 69.59443217 -98.22755377 63.78144987 -98.25 58.125 C-98.270625 56.86429688 -98.29125 55.60359375 -98.3125 54.3046875 C-98.38401205 36.92725861 -93.91622876 21.05263936 -81.57421875 8.3125 C-58.13504819 -12.74362894 -27.09759485 -16.25192347 0 0 Z M-39.625 8.25 C-41.18927734 8.27126953 -41.18927734 8.27126953 -42.78515625 8.29296875 C-49.78533226 8.51145115 -55.82237449 9.5455451 -62 13 C-64.69393521 15.78266213 -64.69393521 15.78266213 -67 19 C-68.35255366 20.21300447 -69.72929156 21.39940963 -71.125 22.5625 C-77.38278043 27.97495174 -79.70124521 33.88723036 -81 42 C-82.11998823 57.99207433 -81.57059282 71.70873366 -70.95703125 84.453125 C-63.04586332 92.91037355 -53.33228746 97.79023064 -41.66796875 98.30078125 C-40.17460057 98.32022057 -38.68095227 98.32375677 -37.1875 98.3125 C-36.00619507 98.30404053 -36.00619507 98.30404053 -34.80102539 98.29541016 C-24.15765256 98.07478816 -16.48881231 95.43562397 -8 89 C-7.13375 88.4225 -6.2675 87.845 -5.375 87.25 C3.8744653 78.48734866 6.77876316 69.63218013 7.203125 57.3515625 C7.41340049 44.59529282 6.81860823 32.1359107 -2 22 C-5.18943346 19.88364696 -8.47485345 18.45617069 -12 17 C-15 15 -15 15 -16.3125 12.5 C-18.50734306 9.24838065 -20.23229607 8.84581109 -24 8 C-29.21222565 8 -34.41495035 8.1051014 -39.625 8.25 Z " fill="#585859" transform="translate(524,679)"/>
<path d="M0 0 C2.32223956 2.96500229 2.16159425 4.7677073 2 8.484375 C1.96390625 9.56203125 1.9278125 10.6396875 1.890625 11.75 C1.84421875 12.56984375 1.7978125 13.3896875 1.75 14.234375 C-2.75181204 16.05653702 -5.56432767 16.61251392 -10.25 15.234375 C-12.48909975 14.02460499 -14.65864344 12.75265614 -16.80859375 11.390625 C-25.54807621 7.25160611 -41.87943221 6.77181016 -51.125 9.546875 C-52.51453758 10.0724381 -53.8910206 10.63420316 -55.25 11.234375 C-56.9 11.894375 -58.55 12.554375 -60.25 13.234375 C-60.25 19.174375 -60.25 25.114375 -60.25 31.234375 C-58.6 31.894375 -56.95 32.554375 -55.25 33.234375 C-53.94709252 33.98605239 -52.65543736 34.75752908 -51.375 35.546875 C-44.3902261 39.50647091 -36.50259567 41.72762079 -28.8125 43.93359375 C-15.9947452 47.74493372 -3.94008383 55.02494645 4.75 65.234375 C6.98627252 69.39383059 8.27979217 73.53229668 8.75 78.234375 C8.82605469 78.90210938 8.90210938 79.56984375 8.98046875 80.2578125 C9.5264587 88.66900902 5.70592044 95.11349334 0.5 101.484375 C-7.11572117 109.64407625 -16.15347727 114.19774068 -27.32421875 114.66796875 C-29.52852448 114.69113539 -31.73316195 114.69172957 -33.9375 114.671875 C-35.08855225 114.66575195 -36.23960449 114.65962891 -37.42553711 114.65332031 C-46.00119137 114.49586885 -53.25875554 113.50300814 -61.25 110.234375 C-62.51263672 109.76644531 -62.51263672 109.76644531 -63.80078125 109.2890625 C-66.04328351 108.3920616 -68.12517177 107.38007588 -70.25 106.234375 C-71.40048828 105.65816406 -71.40048828 105.65816406 -72.57421875 105.0703125 C-74.99912902 103.62298385 -76.57227079 102.51608672 -78.25 100.234375 C-78.91348643 96.14897036 -78.72756884 92.33350755 -78.25 88.234375 C-75.69873232 86.95874116 -73.78677914 87.03064205 -70.9375 86.984375 C-69.99261719 86.95859375 -69.04773438 86.9328125 -68.07421875 86.90625 C-64.749771 87.29249289 -63.03768803 88.42543637 -60.25 90.234375 C-58.41437372 90.98945532 -56.55901172 91.698229 -54.6875 92.359375 C-53.75808594 92.69195313 -52.82867187 93.02453125 -51.87109375 93.3671875 C-41.65272293 96.74793016 -27.05532182 97.43152776 -16.9375 93.546875 C-14.01669446 91.69349112 -13.35944705 90.5684074 -12.2734375 87.25390625 C-11.5748792 82.10943877 -11.41148817 77.57540636 -14.3125 73.109375 C-16.8455777 70.24187413 -19.68660347 68.64315967 -23.25 67.234375 C-23.25 66.574375 -23.25 65.914375 -23.25 65.234375 C-24.26320313 65.06035156 -24.26320313 65.06035156 -25.296875 64.8828125 C-28.78746137 64.11636099 -32.12428366 63.01526728 -35.5 61.859375 C-40.56154961 60.11996253 -40.56154961 60.11996253 -45.66796875 58.51953125 C-57.70476861 54.95738351 -70.78828208 49.06334674 -77.57421875 38.09375 C-81.82692234 30.03599582 -83.08904524 20.48337567 -80.484375 11.6328125 C-75.24823724 1.19741119 -64.85595629 -5.88687202 -54.03125 -9.5078125 C-36.70287096 -13.83990726 -14.2620311 -11.19173274 0 0 Z " fill="#59595A" transform="translate(398.25,679.765625)"/>
<path d="M0 0 C1.00957764 -0.00999023 2.01915527 -0.01998047 3.05932617 -0.03027344 C12.22474086 0.07472272 20.09293446 1.82104377 27.8125 6.9375 C29.17375 7.81921875 29.17375 7.81921875 30.5625 8.71875 C32.8125 10.4375 32.8125 10.4375 34.8125 13.4375 C35.0078125 16.35546875 35.0078125 16.35546875 34.9375 19.625 C34.91945313 20.71167969 34.90140625 21.79835938 34.8828125 22.91796875 C34.85960937 23.74941406 34.83640625 24.58085938 34.8125 25.4375 C31.01176835 27.28356966 28.86275249 27.69884624 24.8125 26.4375 C23.14923458 25.66130947 21.50394627 24.84584729 19.875 24 C9.19058008 19.03783988 -6.33701162 16.91208696 -17.75 20.625 C-21.50603983 22.60545736 -22.9660067 23.85227004 -25.1875 27.4375 C-25.65180035 30.23153567 -25.56864728 32.92781149 -25.4375 35.75 C-25.41042969 36.86084961 -25.41042969 36.86084961 -25.3828125 37.99414062 C-25.33597337 39.8091571 -25.26423789 41.62350166 -25.1875 43.4375 C-1.8620602 52.90401291 -1.8620602 52.90401291 21.8125 61.4375 C21.8125 62.0975 21.8125 62.7575 21.8125 63.4375 C22.4725 63.64375 23.1325 63.85 23.8125 64.0625 C30.96355327 67.34006608 37.85167261 72.69825642 40.91796875 80.109375 C43.08416486 88.16875964 43.33893156 98.38879766 39.75 106.0625 C38.3359375 108.37109375 38.3359375 108.37109375 36.8125 110.4375 C36.35101562 111.06785156 35.88953125 111.69820312 35.4140625 112.34765625 C28.44163685 120.39956912 16.27856259 125.56395462 5.8125 126.4375 C-10.01810702 127.42280749 -25.39467961 124.28187036 -39.1875 116.4375 C-39.83460938 116.10363281 -40.48171875 115.76976562 -41.1484375 115.42578125 C-42.8125 114.375 -42.8125 114.375 -45.1875 111.4375 C-45.67509897 107.38830855 -45.53686128 103.49397259 -45.1875 99.4375 C-39.82521006 96.75635503 -33.93413308 98.35841294 -28.53588867 100.13037109 C-26.63093203 100.78884553 -24.73325567 101.46826683 -22.8359375 102.1484375 C-11.26212497 106.23768604 3.2787585 109.59275141 15.24609375 105.16796875 C19.77412186 102.53402893 19.77412186 102.53402893 22.8125 98.4375 C22.88366382 96.06347499 22.89659085 93.68749323 22.875 91.3125 C22.86597656 90.03117188 22.85695313 88.74984375 22.84765625 87.4296875 C22.83605469 86.44226563 22.82445312 85.45484375 22.8125 84.4375 C22.30460938 84.18613281 21.79671875 83.93476562 21.2734375 83.67578125 C19.31228199 82.6889776 17.3613348 81.68189329 15.4140625 80.66796875 C5.97566607 75.79426765 -3.39599824 71.76990748 -13.6015625 68.71484375 C-25.19777157 65.193813 -35.41227671 59.05989379 -43.37109375 49.93359375 C-45.9577028 44.95506666 -45.77210594 40.59008808 -45.6875 35.0625 C-45.70296875 34.05960938 -45.7184375 33.05671875 -45.734375 32.0234375 C-45.70013331 25.48327481 -44.62537461 20.98153852 -41.1875 15.4375 C-40.83042969 14.78193115 -40.47335937 14.1263623 -40.10546875 13.45092773 C-36.75694232 7.42841618 -31.46321879 6.31457635 -25.1875 4.4375 C-23.82044922 3.87869141 -23.82044922 3.87869141 -22.42578125 3.30859375 C-14.93288347 0.43748338 -7.97199063 0.04619682 0 0 Z " fill="#59595A" transform="translate(615.1875,668.5625)"/>
<path d="M0 0 C1.0725 0.00515625 2.145 0.0103125 3.25 0.015625 C4.85875 0.00789062 4.85875 0.00789062 6.5 0 C9.25 0.265625 9.25 0.265625 11.25 2.265625 C12.65951959 10.43668354 12.39510094 18.962553 12.42578125 27.23046875 C12.44896966 29.68425346 12.47308659 32.13802955 12.49804688 34.59179688 C12.53312593 38.40069489 12.56252163 42.20927057 12.57592773 46.01831055 C12.59151387 49.73524312 12.63176795 53.45127758 12.67578125 57.16796875 C12.67387283 58.28815903 12.67196442 59.4083493 12.66999817 60.56248474 C12.84475517 72.0227552 16.24703338 82.33316242 21.5 92.453125 C22.01626953 93.55624023 22.01626953 93.55624023 22.54296875 94.68164062 C24.59092013 98.65000192 25.61596731 100.00956024 29.88671875 101.734375 C34.82902114 102.53575136 39.81583091 102.59595751 44.8125 102.578125 C46.1727832 102.60229492 46.1727832 102.60229492 47.56054688 102.62695312 C53.27141166 102.63109443 57.17244357 101.88902916 62.25 99.265625 C63.301875 98.770625 64.35375 98.275625 65.4375 97.765625 C73.14055638 90.91846377 74.73983754 76.2430389 75.57498169 66.45791626 C75.74905103 62.41993266 75.84595369 58.3884502 75.91015625 54.34765625 C75.94448498 52.87266188 75.98027576 51.3977009 76.0174408 49.92277527 C76.11145637 46.08887627 76.19145452 42.25484413 76.26654053 38.42053223 C76.38766707 32.24709977 76.52097669 26.07406876 76.67269707 19.90131187 C76.72191854 17.75482693 76.75907625 15.60836025 76.79542542 13.46162415 C76.82563278 12.16564804 76.85584015 10.86967194 76.88696289 9.53442383 C76.92002281 7.82238518 76.92002281 7.82238518 76.95375061 6.07575989 C77.25 3.265625 77.25 3.265625 79.25 0.265625 C82 -0.09765625 82 -0.09765625 85.25 -0.046875 C86.85875 -0.04107422 86.85875 -0.04107422 88.5 -0.03515625 C91.25 0.265625 91.25 0.265625 93.25 2.265625 C94.49650907 5.74536198 94.40311987 9.22207514 94.44287109 12.88818359 C94.45513733 13.87480736 94.45513733 13.87480736 94.46765137 14.88136292 C94.49245015 17.05892064 94.50902874 19.23641221 94.5234375 21.4140625 C94.52876118 22.16624683 94.53408485 22.91843117 94.53956985 23.69340897 C94.56630818 27.69338204 94.58566018 31.69332419 94.60009766 35.69335938 C94.61329428 38.95960394 94.64087371 42.22520237 94.68212891 45.49121094 C94.91151857 64.04528869 94.74738537 81.33267201 89.25 99.265625 C88.59 99.265625 87.93 99.265625 87.25 99.265625 C87.0025 99.801875 86.755 100.338125 86.5 100.890625 C81.65762503 110.09113745 74.08212473 116.60675671 64.25 120.265625 C57.77036637 122.24452083 51.75761655 122.65170851 45 122.640625 C43.98019043 122.63901367 42.96038086 122.63740234 41.90966797 122.63574219 C34.37244738 122.51299007 28.13353439 121.44774042 21.25 118.265625 C20.43660156 117.976875 19.62320313 117.688125 18.78515625 117.390625 C12.54631377 115.06533263 9.300753 111.41406407 5.25 106.265625 C4.16727826 105.11921374 3.08397238 103.97335381 2 102.828125 C-4.30049264 95.4691496 -4.90093886 85.38141502 -4.89526367 76.08886719 C-4.89862228 75.29141083 -4.9019809 74.49395447 -4.90544128 73.67233276 C-4.91489451 71.05237243 -4.91689095 68.43247629 -4.91796875 65.8125 C-4.92118313 63.98740615 -4.92454734 62.16231255 -4.92805481 60.33721924 C-4.93403043 56.5210307 -4.93589611 52.70486476 -4.93530273 48.88867188 C-4.93520071 43.99019927 -4.94890099 39.0918703 -4.96607494 34.19343185 C-4.97716598 30.42917203 -4.97922291 26.66494741 -4.97869301 22.90067291 C-4.97987565 21.0936966 -4.98431328 19.28671946 -4.99202538 17.47975922 C-5.00177529 14.96133649 -4.9989682 12.44323206 -4.99291992 9.92480469 C-4.99853943 9.17466095 -5.00415894 8.42451721 -5.00994873 7.65164185 C-4.96597059 0.47966761 -4.96597059 0.47966761 0 0 Z " fill="#585859" transform="translate(686.75,671.734375)"/>
<path d="M0 0 C7.68565043 4.90115852 14.8499374 11.51088692 18.83984375 19.81640625 C19.16339844 20.47898437 19.48695313 21.1415625 19.8203125 21.82421875 C22.89759603 28.73004751 22.39018813 37.19701143 20.52734375 44.44140625 C16.16493524 55.65902812 6.51454065 63.74559613 -4.0859375 68.78125 C-11.27117403 71.67271824 -19.83852996 72.11990438 -27.03515625 69.06640625 C-28.49231069 68.3115266 -29.93031326 67.51861916 -31.34765625 66.69140625 C-32.09789062 66.26730469 -32.848125 65.84320313 -33.62109375 65.40625 C-41.23944891 60.73903242 -48.41363861 54.003411 -51.71484375 45.52734375 C-54.019388 35.19957139 -53.67514026 24.63033378 -48.265625 15.37890625 C-44.98907277 10.7877292 -41.32448791 6.68269911 -37.34765625 2.69140625 C-36.70054687 1.97984375 -36.0534375 1.26828125 -35.38671875 0.53515625 C-26.96045602 -7.08399319 -9.34731303 -4.60155242 0 0 Z " fill="#85946B" transform="translate(774.34765625,49.30859375)"/>
<path d="M0 0 C7.27143623 3.42712312 13.11257559 8.81279469 18.75146484 14.44506836 C19.68474106 15.3658593 19.68474106 15.3658593 20.63687134 16.30525208 C22.66692703 18.31144873 24.68946199 20.32500417 26.7109375 22.33984375 C28.12953774 23.7494656 29.54820958 25.1590154 30.96694946 26.5684967 C33.9274701 29.51259491 36.8836296 32.46099795 39.83740234 35.41186523 C43.61847389 39.18753263 47.41547569 42.94674047 51.2165432 46.70226192 C54.14695369 49.60291852 57.06603552 52.51477533 59.98210526 55.429842 C61.37743663 56.82097478 62.77687876 58.20799733 64.18052292 59.59074211 C66.14070255 61.52401919 68.08440506 63.47253172 70.02490234 65.42553711 C70.89293488 66.27131821 70.89293488 66.27131821 71.77850342 67.13418579 C75.47260939 70.89638377 76.94923209 73.81942401 78 79 C75.83125748 78.49396008 74.00032373 78.00016187 72 77 C72 76.34 72 75.68 72 75 C71.10613067 74.83622046 71.10613067 74.83622046 70.19420338 74.66913223 C67.73628733 73.91957963 66.70464277 73.08779406 64.89274597 71.29388428 C64.30522552 70.71915878 63.71770508 70.14443329 63.11238098 69.55229187 C62.47999008 68.91854141 61.84759918 68.28479095 61.19604492 67.63183594 C60.52085815 66.96672501 59.84567139 66.30161407 59.15002441 65.61634827 C56.9188023 63.4136428 54.69908773 61.19976961 52.48046875 58.984375 C50.9370171 57.45055979 49.39333831 55.91697311 47.84944153 54.38360596 C44.61536082 51.16749451 41.38754969 47.94523409 38.16333008 44.71923828 C34.02428969 40.57989255 29.86497788 36.46158743 25.70006847 32.3482933 C22.50633135 29.18785121 19.32626146 26.01392939 16.14992714 22.83600616 C14.62167247 21.31129977 13.08853229 19.79147445 11.55052757 18.2766037 C9.40487573 16.16023164 7.27894021 14.02583349 5.15698242 11.88574219 C4.51447037 11.26008865 3.87195831 10.63443512 3.2099762 9.98982239 C1.63436311 8.3796332 0.21418663 6.89747923 -1 5 C-0.8848114 2.06964111 -0.8848114 2.06964111 0 0 Z " fill="#98A583" transform="translate(655,260)"/>
<path d="M0 0 C5.54502156 3.26683441 10.38753191 7.09983087 15.08007812 11.49072266 C15.92816669 12.27945235 15.92816669 12.27945235 16.79338837 13.08411598 C22.65983075 18.56843704 28.35958964 24.2140313 34.03125 29.8984375 C35.12155929 30.98807013 36.21201672 32.07755455 37.3026123 33.16690063 C39.55948296 35.42231571 41.81458282 37.67948148 44.06835938 39.93798828 C46.94388985 42.81926325 49.82395418 45.69595821 52.7053299 48.57138634 C54.94629258 50.80872599 57.18485671 53.04845332 59.42271423 55.28889847 C60.48403261 56.3508788 61.54608008 57.41213104 62.60890198 58.47260666 C72.74228316 68.58848314 72.74228316 68.58848314 77 74 C76.01 75.98 76.01 75.98 75 78 C71.06785699 76.41060574 68.66979654 73.83657498 65.75 70.8125 C62.7231522 67.68504887 59.69916518 64.70885629 56.38769531 61.88549805 C51.625711 57.73754408 47.19096279 53.29904063 42.75 48.8125 C41.89245117 47.95116455 41.03490234 47.0898291 40.15136719 46.20239258 C36.51505061 42.54986017 32.88475629 38.89136365 29.25390625 35.23339844 C26.58802403 32.54934844 23.9190819 29.86836759 21.25 27.1875 C20.44143555 26.37063721 19.63287109 25.55377441 18.79980469 24.7121582 C10.40274607 16.22132308 10.40274607 16.22132308 0.9375 9 C0.298125 8.34 -0.34125 7.68 -1 7 C-0.8125 3.25 -0.8125 3.25 0 0 Z " fill="#909D79" transform="translate(596,59)"/>
<path d="M0 0 C3.94727588 -0.17942163 6.5980513 -0.09350689 10 2 C10 2.66 10 3.32 10 4 C10.73089844 4.10570312 11.46179688 4.21140625 12.21484375 4.3203125 C28.02329154 8.17819457 43.7248551 29.37300016 52.875 41.6875 C53.3275415 42.29303711 53.78008301 42.89857422 54.24633789 43.52246094 C62.20929731 54.4884323 62.20929731 54.4884323 61.75 60 C61.5025 60.66 61.255 61.32 61 62 C60.01 62 59.02 62 58 62 C56.73242188 60.66162109 56.73242188 60.66162109 55.46875 58.7734375 C54.99332764 58.07782715 54.51790527 57.3822168 54.02807617 56.66552734 C53.52381104 55.90965332 53.0195459 55.1537793 52.5 54.375 C51.42607419 52.81050737 50.34919614 51.24803759 49.26953125 49.6875 C48.72506348 48.89988281 48.1805957 48.11226563 47.61962891 47.30078125 C36.68981241 31.77431295 24.32809696 18.52330755 7.3515625 9.609375 C6.43117188 9.09890625 5.51078125 8.5884375 4.5625 8.0625 C3.69753906 7.59972656 2.83257813 7.13695312 1.94140625 6.66015625 C0 5 0 5 -0.28515625 2.30859375 C-0.19105469 1.54675781 -0.09695313 0.78492188 0 0 Z " fill="#A4B6C8" transform="translate(606,374)"/>
<path d="M0 0 C1.21558594 -0.01224609 2.43117188 -0.02449219 3.68359375 -0.03710938 C10.77860131 -0.04858997 17.23734877 0.5161976 24.125 2.1875 C25.98511719 2.55681641 25.98511719 2.55681641 27.8828125 2.93359375 C34.23018128 4.23693977 40.14596475 5.68717617 46.125 8.1875 C47.094375 8.496875 48.06375 8.80625 49.0625 9.125 C51.125 10.1875 51.125 10.1875 52 12.25 C52.04125 12.889375 52.0825 13.52875 52.125 14.1875 C50.51246547 15.80003453 48.78900957 15.43541423 46.5625 15.5 C41.44172195 15.44857181 37.18889513 14.41471084 33.125 11.1875 C31.90625 9.046875 31.90625 9.046875 31.125 7.1875 C30.465 7.5175 29.805 7.8475 29.125 8.1875 C26.5926428 8.28523002 24.09414408 8.32660387 21.5625 8.3125 C20.86447266 8.31636719 20.16644531 8.32023437 19.44726562 8.32421875 C14.25163994 8.31413994 14.25163994 8.31413994 13.125 7.1875 C11.1349733 7.07778226 9.14138744 7.03158821 7.1484375 7.01171875 C5.91996094 6.98787109 4.69148437 6.96402344 3.42578125 6.93945312 C0.83219253 6.89687182 -1.76160539 6.86541333 -4.35546875 6.84570312 C-11.34893286 6.68891535 -16.20642315 6.4516997 -21.875 2.1875 C-21.875 1.8575 -21.875 1.5275 -21.875 1.1875 C-14.58085739 0.05063239 -7.37256037 0.00388438 0 0 Z " fill="#A1B3C6" transform="translate(552.875,359.8125)"/>
<path d="M0 0 C0.495 0.99 0.495 0.99 1 2 C3.02463255 2.65213292 3.02463255 2.65213292 5 3 C1.74040732 6.34753133 -1.60206508 9.39521871 -5.25 12.3125 C-10.30253638 16.39840459 -15.18555685 20.63728238 -20 25 C-21.65 24.34 -23.3 23.68 -25 23 C-25.66 23.99 -26.32 24.98 -27 26 C-26.34 27.32 -25.68 28.64 -25 30 C-25.77085937 30.97582031 -26.54171875 31.95164062 -27.3359375 32.95703125 C-28.34901695 34.24214129 -29.36203456 35.52730009 -30.375 36.8125 C-30.88289063 37.45509766 -31.39078125 38.09769531 -31.9140625 38.75976562 C-32.40390625 39.38173828 -32.89375 40.00371094 -33.3984375 40.64453125 C-33.84880371 41.21534424 -34.29916992 41.78615723 -34.76318359 42.37426758 C-35.90263341 43.87201655 -36.95610229 45.43415344 -38 47 C-41.875 45.25 -41.875 45.25 -43 43 C-41.671875 40.43359375 -41.671875 40.43359375 -39.75 37.4375 C-39.12609375 36.44621094 -38.5021875 35.45492187 -37.859375 34.43359375 C-36 32 -36 32 -33 31 C-31.78130071 28.49552484 -31.78130071 28.49552484 -31 26 C-30.34 26 -29.68 26 -29 26 C-28.76796875 25.44570313 -28.5359375 24.89140625 -28.296875 24.3203125 C-22.74904175 14.39436988 -10.06331696 5.03165848 0 0 Z " fill="#9FB2C5" transform="translate(487,377)"/>
<path d="M0 0 C0.73605469 0.12375 1.47210937 0.2475 2.23046875 0.375 C2.72546875 1.86 2.72546875 1.86 3.23046875 3.375 C1.91522108 5.48802084 0.5968492 7.32305134 -0.95703125 9.25 C-1.40755859 9.82008789 -1.85808594 10.39017578 -2.32226562 10.97753906 C-11.8896917 22.90737336 -22.68920912 35.26520028 -35.76953125 43.375 C-37.08953125 43.375 -38.40953125 43.375 -39.76953125 43.375 C-37.44300698 34.88501351 -31.02140245 29.99426143 -24.20703125 24.8125 C-16.60837737 19.03120182 -10.93510909 12.7381525 -6.00195312 4.59130859 C-3.35910039 0.45482883 -3.35910039 0.45482883 0 0 Z " fill="#9EB2C4" transform="translate(863.76953125,550.625)"/>
<path d="M0 0 C2.00720923 0.28674418 4.0085944 0.61866701 6 1 C6.495 3.475 6.495 3.475 7 6 C-8.2908522 9.69939973 -23.84028977 9.88573077 -39.4375 8.125 C-40.15301025 8.04660889 -40.86852051 7.96821777 -41.60571289 7.88745117 C-45.09619741 7.44643659 -47.01800118 6.98799922 -50 5 C-43.68802752 2.52586264 -38.16369893 1.55006955 -31.40625 1.5234375 C-30.09714661 1.50006821 -30.09714661 1.50006821 -28.76159668 1.47622681 C-26.0077386 1.42915205 -23.25412991 1.40106432 -20.5 1.375 C-17.71747785 1.33850161 -14.93509716 1.29798891 -12.15270996 1.25234985 C-10.42891799 1.22511836 -8.70502127 1.20376915 -6.9810791 1.18881226 C-3.18184671 1.50688776 -3.18184671 1.50688776 0 0 Z " fill="#98ACC1" transform="translate(779,606)"/>
<path d="M0 0 C2.09358685 -0.00969141 4.18618436 -0.04076067 6.27954102 -0.07226562 C13.71362098 -0.129336 19.89811547 0.33055469 26.79711914 3.24023438 C26.46711914 4.23023438 26.13711914 5.22023438 25.79711914 6.24023438 C20.80050847 7.05412701 15.9451724 7.40005407 10.87915039 7.40820312 C10.14065353 7.41153152 9.40215668 7.41485992 8.64128113 7.41828918 C7.08573015 7.42332373 5.53016849 7.42569859 3.97460938 7.42553711 C1.63335675 7.42771232 -0.70741514 7.44587395 -3.04858398 7.46484375 C-11.63279338 7.49592739 -19.76842774 7.05858173 -28.20288086 5.24023438 C-18.83810276 0.51833149 -10.36098953 0.02897166 0 0 Z " fill="#95AABF" transform="translate(345.202880859375,606.759765625)"/>
<path d="M0 0 C2.25245881 2.68841859 3.88213958 4.64641875 5 8 C3.77528636 15.49965095 0.20762955 21.79300038 -4 28 C-4.51433594 28.763125 -5.02867187 29.52625 -5.55859375 30.3125 C-10.11792719 36.61028432 -15.74141796 41.41975744 -22 46 C-22.33 46 -22.66 46 -23 46 C-23.33 44.02 -23.66 42.04 -24 40 C-22.515 39.505 -22.515 39.505 -21 39 C-20.31497615 37.67600432 -19.65140789 36.3408542 -19 35 C-17.65235178 33.55728946 -16.27342295 32.14355039 -14.875 30.75 C-7.15372739 22.33019545 -1.62120526 11.34843679 0 0 Z " fill="#9BAFC2" transform="translate(419,498)"/>
<path d="M0 0 C3.49284021 0.62998716 5.75209556 2.00842011 8.625 4.0625 C9.50414062 4.68769531 10.38328125 5.31289063 11.2890625 5.95703125 C13.95095402 7.96303884 16.46515179 10.08698284 19 12.25 C23.13546427 15.64186344 26.70239618 17.10706229 31.859375 18.34765625 C34.68855385 19.20983302 36.22995931 20.66676454 38 23 C35.625 24.8125 35.625 24.8125 32 26 C28.379958 24.86281403 25.25798529 22.91864283 22 21 C19.96072679 19.89141911 17.91909916 18.78715695 15.875 17.6875 C14.24902441 16.79343863 12.62365965 15.89826038 11 15 C11 14.34 11 13.68 11 13 C10.443125 12.731875 9.88625 12.46375 9.3125 12.1875 C6.78774666 10.89100504 4.36285516 9.57523677 2 8 C2 7.34 2 6.68 2 6 C1.01 5.67 0.02 5.34 -1 5 C-0.67 3.35 -0.34 1.7 0 0 Z " fill="#99ADC1" transform="translate(264,579)"/>
<path d="M0 0 C5.065089 0.4430107 7.45490704 1.77549193 11.125 5.25 C11.95257812 6.01828125 12.78015625 6.7865625 13.6328125 7.578125 C17.10146879 11.12691526 20.03294244 14.64000263 22.1875 19.125 C22.51105469 19.78757812 22.83460938 20.45015625 23.16796875 21.1328125 C24.814536 24.82792586 25.10963829 27.68074514 25.0625 31.6875 C25.05347656 32.68136719 25.04445313 33.67523438 25.03515625 34.69921875 C25.02355469 35.45847656 25.01195312 36.21773437 25 37 C24.67 37 24.34 37 24 37 C23.9175 35.9275 23.835 34.855 23.75 33.75 C22.9216965 29.6084825 22.07045388 28.69827765 19 26 C17.06470585 22.90352936 17 21.86069323 17 18 C16.2575 18.09667969 15.515 18.19335938 14.75 18.29296875 C12 18 12 18 9.9375 15.98828125 C9.298125 15.10527344 8.65875 14.22226563 8 13.3125 C5.1884859 9.55848969 2.41677219 6.20322393 -1 3 C-0.67 2.01 -0.34 1.02 0 0 Z " fill="#97A482" transform="translate(771,50)"/>
<path d="M0 0 C1.47906892 -0.02689216 2.95827483 -0.04634621 4.4375 -0.0625 C5.26121094 -0.07410156 6.08492187 -0.08570313 6.93359375 -0.09765625 C9 0 9 0 10 1 C10.80187188 11.97947651 9.20426282 22.28045999 7 33 C5.35 32.34 3.7 31.68 2 31 C1.65084394 21.84435229 2.72958023 13.04039783 4 4 C2.68 4 1.36 4 0 4 C0 2.68 0 1.36 0 0 Z " fill="#97ACC0" transform="translate(876,484)"/>
<path d="M0 0 C0.66 0 1.32 0 2 0 C5.65965163 3.92105532 8.77914693 8.06186515 11.875 12.4375 C16.17547567 18.43010141 20.83153198 23.88768798 27 28 C27 28.66 27 29.32 27 30 C21.57868815 30.83404798 18.49687612 28.94744828 14.23828125 25.8984375 C7.66594077 20.32399165 0.45836373 11.22534653 -0.3125 2.4375 C-0.209375 1.633125 -0.10625 0.82875 0 0 Z " fill="#97ACC0" transform="translate(275,514)"/>
<path d="M0 0 C0.66 0 1.32 0 2 0 C2 0.66 2 1.32 2 2 C2.57234375 2.03996094 3.1446875 2.07992187 3.734375 2.12109375 C7.10633326 3.42918101 8.39926959 6.11826773 10.25 9.0625 C14.96916267 16.20695139 19.63575876 23.07251556 28 26 C26.68 27.32 25.36 28.64 24 30 C14.17066639 25.63640568 6.57038554 15.89580967 1 7 C-0.25 3.63671875 -0.25 3.63671875 -1 1 C-0.67 0.67 -0.34 0.34 0 0 Z " fill="#A2B3C6" transform="translate(687,516)"/>
<path d="M0 0 C2.97 0.99 5.94 1.98 9 3 C9 3.66 9 4.32 9 5 C9.66 5.20625 10.32 5.4125 11 5.625 C17.64805482 8.67202512 22.60472733 13.23120462 27 19 C25.68 20.32 24.36 21.64 23 23 C22.319375 22.29875 21.63875 21.5975 20.9375 20.875 C16.16561771 16.14310555 11.55095851 12.23772056 5.625 9 C1.14466292 6.43398876 1.14466292 6.43398876 -0.125 2.625 C-0.08375 1.75875 -0.0425 0.8925 0 0 Z " fill="#676768" transform="translate(628,727)"/>
<path d="M0 0 C10.48235623 2.62058906 19.11651773 9.07767848 28 15 C27.67 16.65 27.34 18.3 27 20 C24 21 24 21 22.22583008 20.12304688 C21.58025146 19.65962891 20.93467285 19.19621094 20.26953125 18.71875 C19.19336548 17.95449707 19.19336548 17.95449707 18.09545898 17.17480469 C17.34208252 16.62211914 16.58870605 16.06943359 15.8125 15.5 C15.0481665 14.94989258 14.28383301 14.39978516 13.49633789 13.83300781 C8.42912581 10.14992791 3.51882378 6.35032526 -1 2 C-0.67 1.34 -0.34 0.68 0 0 Z " fill="#9BAEC2" transform="translate(668,576)"/>
<path d="M0 0 C1.9375 0.8125 1.9375 0.8125 4 2 C4.33 2.99 4.66 3.98 5 5 C4.071875 5.515625 3.14375 6.03125 2.1875 6.5625 C-1.50992401 9.0477968 -2.65113656 11.74043125 -4 16 C-4.47831347 18.67761754 -4.76182275 21.28477931 -5 24 C-6.98 23.34 -8.96 22.68 -11 22 C-11.36882377 15.97587836 -11.21186775 11.31965596 -8 6 C-5.48199224 3.7551489 -2.82826338 1.83400452 0 0 Z " fill="#727273" transform="translate(593,684)"/>
<path d="M0 0 C9.41636232 1.28739329 16.41518994 2.65195059 23 10 C24.32933326 11.31655121 25.6625274 12.62921827 27 13.9375 C28.00260713 14.95577287 29.00363813 15.97561545 30 17 C28.25 18.10546875 28.25 18.10546875 26 19 C24 18.42578125 24 18.42578125 22 17.3125 C21.30648437 16.92707031 20.61296875 16.54164063 19.8984375 16.14453125 C14.33545576 12.79071716 14.33545576 12.79071716 13.125 9.9375 C12.08364585 7.7080509 12.08364585 7.7080509 9.1875 6.75 C6.30183036 6.07101891 3.94417035 5.82681351 1 6 C0.67 4.02 0.34 2.04 0 0 Z " fill="#78787A" transform="translate(494,682)"/>
<path d="M0 0 C0.66 0 1.32 0 2 0 C2.33 1.32 2.66 2.64 3 4 C3.66 4 4.32 4 5 4 C5 5.32 5 6.64 5 8 C4.34 8 3.68 8 3 8 C2.62875 8.804375 2.62875 8.804375 2.25 9.625 C-1.17196834 16.12673984 -5.01339814 19.90237445 -11 24 C-11.66 23.67 -12.32 23.34 -13 23 C-11.73578989 18.4868354 -10.13014763 15.58715286 -7.0625 12.0625 C-3.80172545 8.15075412 -1.66768348 4.79459 0 0 Z " fill="#646465" transform="translate(771,763)"/>
<path d="M0 0 C5.57658533 1.20279291 8.16468252 2.57463368 12 7 C12.55300781 7.56332031 13.10601563 8.12664063 13.67578125 8.70703125 C15.29212911 10.41255693 16.73600876 12.01824231 18 14 C17.875 16.9375 17.875 16.9375 17 19 C12.89413353 19 12.00958542 17.80438641 9 15 C0 4.23110151 0 4.23110151 0 0 Z " fill="#A5B7C8" transform="translate(650,555)"/>
<path d="M0 0 C1.65 1.65 3.3 3.3 5 5 C-1.15034169 16.70615034 -1.15034169 16.70615034 -5 21 C-5.99 20.67 -6.98 20.34 -8 20 C-9.13056583 16.61454872 -9.13682017 15.30186686 -7.63671875 11.9921875 C-6.67185547 10.44917969 -6.67185547 10.44917969 -5.6875 8.875 C-5.05199219 7.84117187 -4.41648437 6.80734375 -3.76171875 5.7421875 C-2.52490497 3.81703612 -1.26927189 1.90390783 0 0 Z " fill="#9CAFC3" transform="translate(453,544)"/>
<path d="M0 0 C6.6 0 13.2 0 20 0 C20.33 1.98 20.66 3.96 21 6 C14.73 6 8.46 6 2 6 C1.34 4.02 0.68 2.04 0 0 Z " fill="#666666" transform="translate(474,682)"/>
<path d="M0 0 C0.66 1.32 1.32 2.64 2 4 C2.66 4 3.32 4 4 4 C4.39083065 6.08042163 4.7621087 8.16452339 5.125 10.25 C5.33382812 11.41015625 5.54265625 12.5703125 5.7578125 13.765625 C6.00650955 17.08693404 6.00167229 18.38703857 4 21 C1.875 22.25 1.875 22.25 0 23 C-3.35416667 5.03125 -3.35416667 5.03125 0 0 Z " fill="#A1B3C6" transform="translate(678,479)"/>
<path d="M0 0 C0 1.32 0 2.64 0 4 C-2.60101286 4.86500888 -5.20506411 5.71726928 -7.8125 6.5625 C-8.55048828 6.80935547 -9.28847656 7.05621094 -10.04882812 7.31054688 C-15.66015625 9.11328125 -15.66015625 9.11328125 -19 8 C-14.01561713 0.63476071 -14.01561713 0.63476071 -10.5 -1.5625 C-6.69752515 -2.2279331 -3.44962584 -1.72481292 0 0 Z " fill="#94A17E" transform="translate(754,48)"/>
<path d="M0 0 C5.0764689 0.02211969 8.08344962 0.16145391 11.9375 3.6875 C13.86968792 6.79071089 15.07710537 9.47622052 16 13 C15.34 13.66 14.68 14.32 14 15 C13.01 15 12.02 15 11 15 C9.60546875 13.13671875 9.60546875 13.13671875 8.1875 10.6875 C5.64869713 6.6406864 3.61747684 4.64909887 -1 3 C-0.67 2.01 -0.34 1.02 0 0 Z " fill="#727374" transform="translate(376,744)"/>
<path d="M0 0 C4.62 0 9.24 0 14 0 C14.66 1.98 15.32 3.96 16 6 C10.06 6 4.12 6 -2 6 C-1.34 4.02 -0.68 2.04 0 0 Z " fill="#616163" transform="translate(724,776)"/>
<path d="M0 0 C2 0 2 0 3.33203125 1.25 C6.92578258 5.49802269 10.65121632 9.91681143 13 15 C12.67 15.66 12.34 16.32 12 17 C10.35 16.67 8.7 16.34 7 16 C7 15.34 7 14.68 7 14 C6.401875 13.79375 5.80375 13.5875 5.1875 13.375 C2.08560747 11.42523898 1.30236979 9.38616146 0 6 C-0.1875 2.625 -0.1875 2.625 0 0 Z " fill="#A5B7C8" transform="translate(275,514)"/>
<path d="M0 0 C1.32 0 2.64 0 4 0 C4.69821417 2.10063576 5.38324472 4.20565737 6.0625 6.3125 C6.44535156 7.48425781 6.82820313 8.65601563 7.22265625 9.86328125 C8 13 8 13 7 16 C5.02 16 3.04 16 1 16 C0.63409254 14.27327966 0.28277805 12.54346345 -0.0625 10.8125 C-0.35833984 9.36810547 -0.35833984 9.36810547 -0.66015625 7.89453125 C-1.00423947 4.96389138 -0.74164697 2.83692932 0 0 Z " fill="#99ADC1" transform="translate(267,492)"/>
<path d="M0 0 C2 1 2 1 3.1875 3.3125 C4.39116648 8.77529403 4.56212857 15.87574287 2 21 C0.68 20.67 -0.64 20.34 -2 20 C-3.53616498 12.73812918 -2.07979208 7.05014265 0 0 Z " fill="#98ACC2" transform="translate(428,453)"/>
<path d="M0 0 C3.58792981 1.49161127 5.64312838 3.53032868 8.1875 6.4375 C9.22970703 7.61119141 9.22970703 7.61119141 10.29296875 8.80859375 C12 11 12 11 13 14 C8.77202073 14.96891192 8.77202073 14.96891192 6 14 C2.89358201 10.61265378 0.43211464 6.89138342 -2 3 C-1.34 2.01 -0.68 1.02 0 0 Z " fill="#9BAFC3" transform="translate(241,554)"/>
<path d="M0 0 C2 1.8125 2 1.8125 4 4 C4 4.99 4 5.98 4 7 C4.66 7 5.32 7 6 7 C5.34 9.97 4.68 12.94 4 16 C3.67 15.34 3.34 14.68 3 14 C1.02 14.66 -0.96 15.32 -3 16 C-2.57910004 10.39538469 -2.08386889 5.27913453 0 0 Z " fill="#96ABC0" transform="translate(475,462)"/>
<path d="M0 0 C0 0.33 0 0.66 0 1 C-3.3 1.33 -6.6 1.66 -10 2 C-10 3.32 -10 4.64 -10 6 C-12.43787385 5.8590651 -14.87517853 5.71245458 -17.3125 5.5625 C-18.34793945 5.50352539 -18.34793945 5.50352539 -19.40429688 5.44335938 C-22.47161535 5.25072585 -25.06968152 4.97677283 -28 4 C-28 3.34 -28 2.68 -28 2 C-19.24447883 -0.91850706 -9.12106758 -0.13240259 0 0 Z " fill="#919F7B" transform="translate(560,46)"/>
<path d="M0 0 C2.01171875 1.08984375 2.01171875 1.08984375 4 3 C4.20703125 6.06640625 4.20703125 6.06640625 3.8125 9.5625 C3.69519531 10.71878906 3.57789063 11.87507813 3.45703125 13.06640625 C3 16 3 16 2 18 C0.68 17.67 -0.64 17.34 -2 17 C-3.31281522 10.43592388 -2.52653315 6.16645379 0 0 Z " fill="#9AAFC3" transform="translate(834,488)"/>
<path d="M0 0 C0.99 0 1.98 0 3 0 C3.33 2.31 3.66 4.62 4 7 C2.76265016 8.03613033 1.50955363 9.05347802 0.25 10.0625 C-0.44609375 10.63097656 -1.1421875 11.19945312 -1.859375 11.78515625 C-4 13 -4 13 -6.140625 12.87109375 C-8 12 -8 12 -10 9 C-9.36191406 8.60167969 -8.72382812 8.20335937 -8.06640625 7.79296875 C-7.24011719 7.26316406 -6.41382813 6.73335937 -5.5625 6.1875 C-4.73878906 5.66542969 -3.91507813 5.14335938 -3.06640625 4.60546875 C-0.72172214 3.09039287 -0.72172214 3.09039287 0 0 Z " fill="#666768" transform="translate(756,764)"/>
<path d="M0 0 C3.37083897 -0.60502238 5.44872856 -0.3253846 8.40234375 1.41796875 C13.03153577 4.84781244 13.03153577 4.84781244 15 7 C15 8.32 15 9.64 15 11 C10.04838867 10.89894671 7.69835404 10.13916805 4.125 6.625 C1.92896121 4.31078872 1.02759914 3.08279741 0 0 Z " fill="#767777" transform="translate(515,677)"/>
<path d="M0 0 C5.30079935 2.12031974 6.7795454 5.93195792 9.08203125 10.8203125 C10 13 10 13 10 14 C8.02 14 6.04 14 4 14 C3.12808053 12.61518672 2.27809616 11.21654754 1.4375 9.8125 C0.96183594 9.03519531 0.48617187 8.25789062 -0.00390625 7.45703125 C-1.19605797 4.51639033 -0.88855164 2.99553637 0 0 Z " fill="#A2B4C7" transform="translate(228,532)"/>
<path d="M0 0 C2.58095199 2.58095199 2.5740925 4.29847351 3.125 7.875 C3.29257812 8.92429687 3.46015625 9.97359375 3.6328125 11.0546875 C4 14 4 14 4 18 C2.02 18.66 0.04 19.32 -2 20 C-1.34 13.4 -0.68 6.8 0 0 Z " fill="#A1B3C6" transform="translate(676,458)"/>
<path d="M0 0 C0.53625 0.268125 1.0725 0.53625 1.625 0.8125 C0.07497253 4.69647689 -2.37976621 6.84229619 -5.5 9.5625 C-6.86511719 10.76132812 -6.86511719 10.76132812 -8.2578125 11.984375 C-8.95648438 12.58765625 -9.65515625 13.1909375 -10.375 13.8125 C-11.375 10.8125 -11.375 10.8125 -10.3125 7.9375 C-7.94088363 4.11231231 -4.98127853 -0.39325883 0 0 Z " fill="#737373" transform="translate(459.375,692.1875)"/>
</svg>
